{"glyphs":{"0":{"ha":756,"x_min":40,"x_max":625,"o":"m 118 1057 l 493 1057 q 586 1000 572 1053 q 572 911 596 936 l 475 808 q 440 831 438 788 l 440 881 q 393 907 431 907 l 254 907 q 225 861 218 903 l 225 240 q 324 203 222 203 q 422 243 425 204 l 421 676 q 449 718 424 703 l 533 810 q 599 886 574 856 q 625 829 625 889 l 625 190 q 570 40 611 74 q 453 -3 529 7 l 265 -3 l 156 -3 q 74 40 103 7 q 47 176 44 74 l 47 896 q 118 1057 40 1046 m 201 106 q 197 101 199 106 l 197 33 q 201 31 197 31 l 208 31 q 258 68 258 31 l 258 72 q 226 106 256 106 l 201 106 m 211 96 q 246 69 246 96 q 219 42 246 42 l 210 42 l 210 93 l 211 96 m 290 86 q 267 60 269 86 q 290 31 267 31 l 299 31 q 313 36 313 31 l 313 38 l 310 43 q 296 40 306 40 q 279 57 279 40 l 311 57 q 315 61 315 57 l 315 64 q 297 86 311 86 l 290 86 m 331 86 q 328 83 328 86 l 328 33 q 331 31 328 31 l 338 31 q 340 33 340 31 l 340 57 q 351 76 340 72 q 361 67 361 76 l 361 33 q 365 31 361 31 l 371 31 q 374 33 374 31 l 374 61 q 386 76 374 72 q 394 67 394 76 l 394 33 q 399 31 394 31 l 406 31 q 408 33 408 31 l 408 63 q 393 86 408 86 l 385 86 q 374 76 374 82 q 360 86 368 86 l 356 86 q 340 76 340 83 l 339 76 l 339 86 l 331 86 m 442 86 q 419 60 424 86 l 419 56 q 440 31 421 31 l 449 31 q 472 57 472 35 l 472 63 q 453 86 468 86 l 442 86 m 281 69 q 292 78 282 75 q 303 67 303 75 l 281 67 l 281 69 m 432 56 q 447 76 432 76 q 460 63 460 74 l 460 60 q 447 42 460 42 l 440 42 q 432 56 436 42 z "},"1":{"ha":754,"x_min":35,"x_max":671,"o":"m 75 175 l 282 175 q 322 208 318 174 l 322 753 q 300 757 318 788 l 258 710 q 204 681 242 678 l 118 681 q 92 728 88 688 l 92 860 q 157 879 108 882 q 200 903 186 881 l 282 1021 q 319 1049 303 1047 q 350 1053 335 1051 q 482 1051 365 1054 q 510 1014 510 1051 l 510 208 q 535 175 510 174 l 631 175 q 671 139 671 181 l 671 39 q 621 0 671 -4 l 75 0 q 36 39 35 -3 l 36 143 q 75 175 42 178 m 236 108 q 232 104 233 108 l 232 36 q 236 33 232 33 l 243 33 q 293 71 293 33 l 293 75 q 261 108 290 108 l 236 108 m 246 99 q 281 72 281 99 q 254 44 281 44 l 244 44 l 244 96 l 246 99 m 325 89 q 301 63 304 89 q 325 33 301 33 l 333 33 q 347 39 347 33 l 347 40 l 344 46 q 331 43 340 43 q 314 60 314 43 l 346 60 q 350 64 350 60 l 350 67 q 332 89 346 89 l 325 89 m 365 89 q 363 86 363 89 l 363 36 q 365 33 363 33 l 372 33 q 375 36 375 33 l 375 60 q 386 79 375 75 q 396 69 396 79 l 396 36 q 400 33 396 33 l 406 33 q 408 36 408 33 l 408 64 q 421 79 408 75 q 429 69 429 79 l 429 36 q 433 33 429 33 l 440 33 q 443 36 443 33 l 443 65 q 428 89 443 89 l 419 89 q 408 79 408 85 q 394 89 403 89 l 390 89 q 375 79 375 86 l 374 79 l 374 89 l 365 89 m 476 89 q 454 63 458 89 l 454 58 q 475 33 456 33 l 483 33 q 507 60 507 38 l 507 65 q 488 89 503 89 l 476 89 m 315 72 q 326 81 317 78 q 338 69 338 78 l 315 69 l 315 72 m 467 58 q 482 79 467 79 q 494 65 494 76 l 494 63 q 482 44 494 44 l 475 44 q 467 58 471 44 z "},"2":{"ha":756,"x_min":40,"x_max":685,"o":"m 81 796 l 79 963 q 188 1061 99 1042 l 290 1061 l 503 1061 q 671 814 647 1054 q 558 549 675 679 l 257 203 q 297 188 265 186 l 657 188 q 685 151 681 183 l 685 28 q 600 -1 681 -3 l 75 -1 q 40 49 40 19 l 40 201 q 56 256 40 231 l 440 683 q 480 788 483 747 q 467 846 476 828 q 436 876 458 864 q 349 891 414 889 q 267 883 283 893 q 249 835 251 872 l 249 771 q 214 738 253 742 l 113 738 q 81 796 86 753 z "},"3":{"ha":754,"x_min":43,"x_max":694,"o":"m 86 347 l 185 347 q 221 319 221 349 l 221 242 q 417 158 249 121 q 512 250 494 199 q 529 351 529 301 q 515 433 529 401 q 469 484 501 464 q 333 500 436 504 q 236 525 256 490 l 233 603 q 279 658 240 628 l 476 858 q 453 892 490 893 l 125 892 q 92 935 99 897 l 92 1031 q 121 1058 86 1058 l 608 1058 q 661 1029 650 1058 l 661 836 q 636 789 657 803 l 525 675 q 514 625 465 622 q 644 547 592 603 q 690 413 694 469 l 690 288 q 667 176 681 210 q 640 120 653 143 q 595 67 626 97 q 440 -1 564 36 l 232 0 q 97 74 135 22 q 47 217 58 125 l 47 308 q 86 347 43 350 z "},"4":{"ha":756,"x_min":46,"x_max":656,"o":"m 408 1058 l 533 1058 q 551 1036 574 1058 l 232 442 q 250 386 200 381 l 382 386 q 410 428 406 396 l 410 564 q 436 588 413 588 l 542 588 q 569 561 567 588 l 569 419 q 592 386 567 392 l 633 386 q 651 349 656 386 l 651 213 q 626 190 651 188 l 590 190 q 569 146 558 192 l 569 32 q 536 1 567 11 l 428 1 q 410 42 408 8 l 410 154 q 378 194 403 197 l 93 194 q 46 225 61 194 l 46 417 q 61 481 46 457 l 363 1025 q 408 1058 378 1053 z "},"5":{"ha":754,"x_min":-89,"x_max":749,"o":"m 218 1058 l 618 1058 q 653 1025 642 1051 l 653 944 q 625 892 657 903 l 257 892 q 215 860 215 889 l 215 696 q 236 655 214 626 q 278 697 258 683 q 328 719 299 711 q 411 728 357 726 q 512 704 465 729 q 578 660 558 679 q 619 607 597 640 q 647 529 642 574 q 655 393 653 485 q 640 216 657 301 q 599 97 622 131 q 553 47 575 64 q 510 19 531 31 q 388 0 489 7 l 201 0 q 86 64 119 25 q 51 206 53 103 l 51 288 q 72 311 49 314 l 186 311 q 214 268 215 303 q 261 156 213 171 q 358 146 310 140 q 442 186 407 151 q 487 284 478 221 q 494 399 496 347 q 483 489 492 450 q 449 553 474 528 q 386 590 425 579 q 313 586 347 601 q 256 540 279 571 q 194 503 233 510 l 64 503 q 51 574 40 519 l 51 1029 q 90 1058 60 1058 l 218 1058 m 218 1318 q 250 1285 247 1318 l 250 1281 q 200 1243 250 1243 l 193 1243 q 189 1246 189 1243 l 189 1314 q 193 1318 190 1318 l 218 1318 m 201 1306 l 201 1254 l 211 1254 q 238 1282 238 1254 q 203 1308 238 1308 l 201 1306 m 289 1299 q 307 1276 303 1299 l 307 1274 q 303 1269 307 1269 l 271 1269 q 288 1253 271 1253 q 301 1256 297 1253 l 304 1250 l 304 1249 q 290 1243 304 1243 l 282 1243 q 258 1272 258 1243 q 282 1299 261 1299 l 289 1299 m 331 1299 l 331 1289 l 332 1289 q 347 1299 332 1296 l 351 1299 q 365 1289 360 1299 q 376 1299 365 1294 l 385 1299 q 400 1275 400 1299 l 400 1246 q 397 1243 400 1243 l 390 1243 q 386 1246 386 1243 l 386 1279 q 378 1289 386 1289 q 365 1274 365 1285 l 365 1246 q 363 1243 365 1243 l 357 1243 q 353 1246 353 1243 l 353 1279 q 343 1289 353 1289 q 332 1269 332 1285 l 332 1246 q 329 1243 332 1243 l 322 1243 q 319 1246 319 1243 l 319 1296 q 322 1299 319 1299 l 331 1299 m 444 1299 q 464 1275 460 1299 l 464 1269 q 440 1243 464 1247 l 432 1243 q 411 1268 413 1243 l 411 1272 q 433 1299 415 1299 l 444 1299 m 272 1279 l 294 1279 q 283 1290 294 1288 q 272 1282 274 1288 l 272 1279 m 424 1268 q 432 1254 428 1254 l 439 1254 q 451 1272 451 1254 l 451 1275 q 439 1289 451 1286 q 424 1268 424 1289 m 339 1183 q 342 1181 342 1183 l 342 1136 l 360 1157 l 369 1157 q 372 1154 372 1157 q 354 1132 372 1154 q 365 1117 360 1124 q 374 1103 369 1110 l 371 1100 l 361 1100 q 344 1126 353 1108 l 342 1126 l 342 1104 q 339 1100 342 1100 l 333 1100 q 329 1104 329 1100 l 329 1181 q 333 1183 332 1183 l 339 1183 m 685 1183 q 689 1181 689 1183 l 689 1104 q 685 1100 689 1100 l 679 1100 q 675 1106 675 1100 l 676 1108 l 676 1111 l 675 1111 q 661 1100 675 1104 l 656 1100 q 639 1128 639 1100 q 663 1157 643 1157 l 675 1157 l 675 1181 q 679 1183 678 1183 l 685 1183 m 588 1176 q 590 1174 590 1176 l 590 1157 l 601 1157 q 604 1154 604 1157 l 604 1150 q 601 1147 604 1147 l 590 1147 l 590 1115 q 604 1111 590 1111 l 604 1104 q 601 1100 604 1100 l 590 1100 q 578 1114 578 1100 l 578 1147 l 569 1147 q 567 1150 567 1147 l 567 1154 q 569 1157 567 1157 l 578 1157 l 578 1171 q 588 1176 578 1176 m -78 1157 q -65 1119 -76 1157 l -64 1119 q -50 1157 -56 1157 l -43 1157 q -29 1119 -37 1157 q -17 1156 -28 1119 l -14 1157 l -7 1157 l -3 1156 q -25 1100 -21 1100 l -32 1100 q -47 1139 -36 1100 l -49 1139 q -60 1100 -50 1124 l -69 1100 q -89 1156 -72 1100 l -85 1157 l -78 1157 m 10 1157 q 22 1118 14 1157 l 24 1118 q 38 1157 32 1157 l 44 1157 q 58 1118 50 1157 l 61 1118 q 74 1157 67 1157 l 81 1157 l 83 1156 q 64 1100 69 1100 l 56 1100 q 42 1139 50 1100 l 39 1139 q 25 1100 31 1100 l 19 1100 q 0 1156 13 1100 l 3 1157 l 10 1157 m 99 1157 q 111 1119 100 1157 l 113 1119 q 125 1157 121 1157 l 133 1157 q 146 1119 138 1157 l 150 1119 q 163 1157 156 1157 l 168 1157 l 172 1156 q 151 1100 156 1100 l 143 1100 q 128 1138 142 1100 l 126 1138 q 114 1100 118 1100 l 106 1100 q 86 1156 103 1101 l 89 1157 l 99 1157 m 233 1157 q 250 1140 250 1154 l 250 1104 q 246 1100 250 1100 l 240 1100 q 238 1108 238 1100 q 222 1100 226 1100 l 218 1100 q 204 1115 204 1104 q 235 1135 204 1135 l 236 1135 l 236 1138 q 226 1147 236 1147 l 224 1147 q 210 1144 218 1147 q 207 1154 207 1150 q 225 1157 215 1157 l 233 1157 m 275 1157 q 278 1149 278 1157 q 292 1157 286 1157 l 299 1157 q 311 1144 311 1157 l 311 1104 q 308 1100 311 1100 l 304 1100 q 301 1104 301 1100 l 301 1136 q 294 1147 301 1144 q 278 1121 278 1147 l 278 1104 q 275 1100 278 1100 l 268 1100 q 265 1104 265 1100 l 265 1154 q 268 1157 265 1157 l 275 1157 m 410 1157 q 429 1131 429 1157 l 426 1128 l 393 1128 l 393 1125 q 408 1111 393 1111 l 410 1111 q 416 1111 413 1111 q 424 1114 419 1111 l 426 1111 l 426 1106 q 408 1100 426 1100 l 406 1100 q 381 1125 381 1104 l 381 1132 q 401 1157 385 1157 l 410 1157 m 503 1157 q 519 1138 519 1157 l 519 1104 q 517 1100 519 1100 l 508 1100 l 508 1111 l 507 1111 q 492 1100 507 1104 l 485 1100 q 474 1114 474 1107 l 474 1115 q 504 1135 474 1135 l 507 1135 l 507 1138 q 497 1147 507 1147 l 493 1147 q 488 1147 490 1147 q 479 1144 485 1146 l 478 1147 l 478 1151 q 490 1157 478 1157 l 503 1157 m 544 1157 q 549 1151 549 1157 l 547 1149 l 547 1147 l 549 1147 q 556 1157 549 1153 l 561 1157 q 565 1154 565 1157 l 565 1149 l 551 1140 q 549 1124 549 1132 l 549 1104 q 544 1100 549 1100 l 539 1100 q 536 1104 536 1100 l 536 1154 q 539 1157 536 1157 l 544 1157 m 731 1157 q 749 1138 744 1157 l 749 1132 q 744 1128 749 1128 l 713 1128 l 713 1126 q 731 1111 713 1111 q 735 1111 732 1111 q 744 1114 738 1111 l 746 1111 l 746 1107 q 732 1100 746 1100 l 724 1100 q 700 1125 700 1104 l 700 1126 q 724 1157 700 1157 l 731 1157 m 417 1138 l 417 1139 q 407 1149 417 1144 q 393 1138 393 1144 l 417 1138 m 714 1138 l 735 1138 q 725 1149 735 1149 q 714 1140 717 1147 l 714 1138 m 651 1128 q 663 1111 651 1111 q 675 1131 675 1115 l 675 1147 l 667 1147 q 651 1128 651 1147 m 461 1135 q 465 1132 465 1135 l 465 1128 q 461 1125 465 1125 l 440 1125 q 438 1128 438 1125 l 438 1132 q 440 1135 438 1135 l 461 1135 m 217 1113 l 225 1111 q 236 1125 236 1111 l 236 1126 l 235 1126 q 217 1121 228 1126 l 217 1113 m 488 1113 l 496 1111 q 507 1125 507 1115 l 507 1126 l 504 1126 q 488 1119 488 1124 l 488 1113 m 188 1117 q 194 1111 190 1117 l 194 1107 q 188 1100 194 1107 l 185 1100 q 178 1107 182 1100 l 178 1111 q 185 1117 178 1113 l 188 1117 m 629 1111 l 629 1106 q 624 1100 629 1106 l 619 1100 q 613 1108 613 1104 q 624 1117 614 1117 l 629 1111 z "},"6":{"ha":756,"x_min":54,"x_max":663,"o":"m 321 1031 q 356 1058 332 1058 l 475 1056 q 494 1001 506 1038 l 321 714 q 353 686 278 649 q 447 695 408 699 q 517 681 485 692 q 579 640 549 669 q 627 578 610 611 q 651 506 644 546 q 660 414 658 467 q 653 292 663 361 q 635 194 644 224 q 602 134 625 165 q 565 84 579 103 q 519 44 551 65 q 441 12 488 24 q 340 0 394 0 q 253 6 286 0 q 203 18 219 11 q 168 36 186 25 q 133 61 150 47 q 99 111 115 75 q 74 188 82 147 q 60 297 65 229 q 59 437 54 365 q 67 533 64 508 q 85 603 71 558 q 113 678 100 649 q 146 747 125 708 q 321 1031 167 786 m 239 432 q 229 318 224 382 q 258 222 235 254 q 315 181 282 189 q 381 183 349 174 q 431 206 414 193 q 461 242 449 219 q 483 300 474 264 q 488 378 492 336 q 467 456 485 421 q 417 511 449 492 q 345 519 385 531 q 284 490 306 508 q 239 432 263 471 z "},"7":{"ha":758,"x_min":42,"x_max":658,"o":"m 118 1058 l 628 1058 q 658 1003 653 1040 l 658 789 q 625 715 653 753 l 386 303 q 375 224 372 278 l 375 40 q 342 -1 375 6 l 197 -1 q 168 33 168 3 l 168 281 q 188 357 169 318 l 457 819 q 426 878 475 885 l 268 878 q 233 838 226 881 l 233 763 q 186 718 229 722 l 72 718 q 49 771 42 729 l 49 1022 q 118 1058 60 1056 z "},"8":{"ha":756,"x_min":33,"x_max":628,"o":"m 332 1061 q 462 1040 419 1057 q 535 984 504 1024 q 579 875 567 944 q 582 741 592 806 q 513 617 572 676 q 531 569 481 601 q 615 396 603 499 q 611 223 628 293 q 573 119 594 153 q 529 67 551 86 q 483 32 507 47 q 431 8 458 17 q 328 -1 403 -1 q 224 8 254 -1 q 173 29 193 17 q 138 57 153 42 q 90 114 122 72 q 46 235 58 156 q 49 401 33 314 q 129 571 64 488 q 133 621 172 592 q 70 741 83 679 q 72 872 57 803 q 120 982 88 940 q 194 1040 153 1024 q 332 1061 236 1057 m 222 792 q 236 745 225 765 q 262 713 247 725 q 301 700 276 701 q 351 700 326 699 q 390 713 376 701 q 416 744 404 725 q 429 789 428 764 q 427 833 431 814 q 413 870 424 853 q 383 898 403 888 q 330 908 364 908 q 275 898 296 908 q 244 871 254 888 q 228 839 233 854 q 222 792 224 824 m 215 319 q 231 252 219 281 q 261 205 242 224 q 304 179 281 186 q 351 176 328 172 q 394 201 375 181 q 423 249 414 221 q 435 319 432 276 q 435 383 439 361 q 420 438 432 406 q 387 490 408 469 q 331 510 365 510 q 274 485 297 510 q 240 433 250 461 q 224 385 229 406 q 215 319 218 364 m 190 113 q 186 108 188 113 l 186 40 q 190 38 186 38 l 197 38 q 247 75 247 38 l 247 79 q 215 113 244 113 l 190 113 m 200 103 q 235 76 235 103 q 208 49 235 49 l 199 49 l 199 100 l 200 103 m 279 93 q 256 67 258 93 q 279 38 256 38 l 288 38 q 301 43 301 38 l 301 44 l 299 50 q 285 47 294 47 q 268 64 268 47 l 300 64 q 304 68 304 64 l 304 71 q 286 93 300 93 l 279 93 m 319 93 q 317 90 317 93 l 317 40 q 319 38 317 38 l 326 38 q 329 40 329 38 l 329 64 q 340 83 329 79 q 350 74 350 83 l 350 40 q 354 38 350 38 l 360 38 q 363 40 363 38 l 363 68 q 375 83 363 79 q 383 74 383 83 l 383 40 q 388 38 383 38 l 394 38 q 397 40 397 38 l 397 69 q 382 93 397 93 l 374 93 q 363 83 363 89 q 349 93 357 93 l 344 93 q 329 83 329 90 l 328 83 l 328 93 l 319 93 m 431 93 q 408 67 413 93 l 408 63 q 429 38 410 38 l 438 38 q 461 64 461 42 l 461 69 q 442 93 457 93 l 431 93 m 269 76 q 281 85 271 82 q 292 74 292 82 l 269 74 l 269 76 m 421 63 q 436 83 421 83 q 449 69 449 81 l 449 67 q 436 49 449 49 l 429 49 q 421 63 425 49 z "},"9":{"ha":756,"x_min":39,"x_max":656,"o":"m 351 1057 q 456 1047 408 1058 q 539 1019 503 1036 q 602 956 575 1001 q 638 868 629 910 q 650 788 647 826 q 654 698 653 749 q 651 590 656 647 q 578 393 647 532 l 364 22 q 296 -1 349 -1 l 189 -1 q 153 46 139 8 l 442 556 q 468 690 469 596 q 459 806 467 785 q 438 842 451 826 q 402 864 424 858 q 349 869 381 869 q 292 858 317 868 q 247 828 267 849 q 220 758 228 808 q 217 656 213 708 q 238 586 221 603 q 282 565 256 569 q 374 567 308 560 q 399 558 410 575 l 310 399 q 269 382 296 375 q 172 413 204 393 q 105 472 139 432 q 58 553 71 511 q 43 621 44 594 q 40 675 42 647 q 42 728 39 703 q 49 778 46 753 q 62 840 53 803 q 93 910 71 878 q 148 978 115 942 q 236 1037 181 1015 q 351 1057 292 1058 z "},"\"":{"ha":618,"x_min":69,"x_max":579,"o":"m 69 942 l 69 1033 q 122 1064 90 1064 l 265 1064 q 303 1019 292 1047 q 235 775 308 822 q 167 758 203 736 l 136 775 q 142 818 114 797 q 181 879 181 856 q 153 899 182 903 l 96 899 q 69 942 69 914 m 340 942 l 340 1033 q 393 1064 361 1064 l 536 1064 q 575 1019 564 1047 q 506 775 579 822 q 439 758 474 736 l 408 775 q 413 818 385 797 q 452 879 451 856 q 424 899 453 903 l 367 899 q 340 942 342 914 z "},"#":{"ha":1013,"x_min":26,"x_max":1007,"o":"m 572 1253 q 594 1235 601 1257 l 528 963 q 549 935 521 932 l 632 933 q 661 953 656 931 l 729 1232 q 768 1253 735 1251 l 882 1253 q 899 1221 904 1249 l 831 939 l 986 939 q 1001 906 1007 942 l 972 788 q 935 765 963 765 l 808 765 q 782 742 790 758 l 738 557 q 757 533 736 538 l 872 533 q 908 519 903 539 l 879 403 q 839 376 874 376 l 694 376 l 610 32 q 574 -1 601 -1 l 449 -1 q 444 36 432 8 l 521 353 q 499 376 522 376 l 419 376 q 381 357 396 376 l 301 31 q 268 -1 294 4 l 146 -1 q 115 21 110 1 l 201 376 l 61 376 q 32 403 26 376 l 61 519 q 103 533 75 539 l 215 533 q 244 557 239 538 l 289 740 q 276 765 290 757 l 156 765 q 125 788 126 765 l 154 906 q 185 939 165 942 l 338 939 l 407 1228 q 447 1253 417 1253 l 572 1253 m 514 765 q 475 744 489 764 l 432 567 q 453 539 424 536 l 536 538 q 565 557 560 535 l 613 751 q 592 764 608 764 l 514 765 z "},"$":{"ha":719,"x_min":38,"x_max":686,"o":"m 253 7 q 250 8 251 8 q 200 30 225 18 q 153 58 175 42 q 90 121 131 75 q 44 225 49 186 q 39 281 40 264 q 45 311 38 297 q 76 331 53 325 l 203 331 q 239 269 233 325 l 247 235 q 272 208 254 219 l 297 486 q 231 525 267 503 q 111 647 168 564 q 72 767 75 725 q 78 849 69 808 q 103 919 86 890 q 168 1000 119 949 q 350 1056 229 1047 l 360 1160 q 397 1186 369 1185 l 469 1186 q 486 1147 488 1179 l 475 1046 q 592 1006 535 1032 q 660 878 661 943 l 658 796 q 632 757 665 758 l 526 757 q 486 800 492 767 l 481 853 q 458 869 471 863 l 435 614 l 611 490 q 669 425 653 458 q 686 325 685 392 q 664 169 685 238 l 643 132 q 579 60 619 97 q 381 0 504 11 l 376 0 l 369 -74 q 338 -106 361 -103 l 281 -106 q 247 -51 251 -97 l 253 7 m 335 889 q 251 840 286 883 q 296 711 236 761 l 317 696 l 335 889 m 394 192 q 464 206 436 192 q 514 261 500 219 q 464 381 526 335 q 415 413 447 392 l 394 192 z "},"%":{"ha":756,"x_min":36,"x_max":713,"o":"m 514 1031 q 561 1057 526 1054 l 654 1057 q 674 1017 678 1047 l 194 31 q 153 -1 183 1 l 79 -1 q 38 53 42 8 l 514 1031 m 478 72 l 478 164 q 532 194 500 194 l 675 194 q 713 151 701 179 l 713 75 q 681 31 708 44 l 514 31 q 478 72 481 44 m 36 896 l 36 986 q 92 1018 58 1018 l 233 1018 q 271 974 260 1003 l 271 897 q 238 854 267 868 l 74 854 q 36 896 39 868 z "},"&":{"ha":788,"x_min":33,"x_max":742,"o":"m 665 369 l 665 217 q 616 73 654 125 q 497 0 578 21 l 289 -1 q 133 66 164 36 q 89 119 103 96 q 61 175 75 142 q 39 286 47 208 l 39 514 q 85 650 33 572 q 214 726 136 704 q 158 975 74 843 q 499 1047 242 1107 q 531 1019 533 1047 l 531 935 q 494 890 521 897 l 388 904 q 301 814 256 910 l 449 776 q 492 647 524 747 q 394 625 474 614 q 260 587 293 607 q 214 535 228 567 q 200 402 200 503 q 217 250 200 301 q 313 158 235 199 q 508 242 481 119 l 508 369 l 479 369 q 426 411 438 374 l 426 503 q 503 532 443 539 l 689 532 q 742 489 736 525 l 742 414 q 696 369 736 369 l 665 369 z "},"'":{"ha":382,"x_min":69,"x_max":308,"o":"m 69 942 l 69 1033 q 122 1064 90 1064 l 265 1064 q 303 1019 292 1047 q 235 775 308 822 q 167 758 203 736 l 136 775 q 142 818 114 797 q 181 879 181 856 q 153 899 182 903 l 96 899 q 69 942 69 914 z "},"(":{"ha":428,"x_min":0,"x_max":432,"o":"m 432 1197 l 185 1197 q 140 1013 139 1182 l 140 22 q 178 -157 133 -137 l 432 -157 l 432 -289 l 178 -289 q 13 22 0 -293 l 13 1011 q 186 1328 4 1328 l 432 1328 l 432 1197 z "},")":{"ha":425,"x_min":0,"x_max":431,"o":"m 0 1328 l 244 1328 q 418 1011 425 1338 l 418 22 q 253 -289 431 -286 l 0 -289 l 0 -157 l 253 -157 q 290 22 297 -137 l 290 1013 q 246 1197 292 1182 l 0 1197 l 0 1328 z "},"*":{"ha":590,"x_min":51,"x_max":507,"o":"m 71 1156 l 149 1235 q 196 1225 174 1249 l 267 1156 q 310 1158 289 1128 l 368 1219 q 415 1225 389 1246 l 485 1156 q 481 1110 507 1135 l 418 1047 q 418 1006 392 1028 l 482 943 q 486 894 504 917 l 419 826 q 371 822 396 801 l 304 888 q 264 889 282 914 l 193 815 q 147 808 172 799 l 74 881 q 83 921 61 907 l 151 989 q 154 1033 182 1010 l 76 1111 q 71 1156 51 1135 z "},"+":{"ha":590,"x_min":57,"x_max":538,"o":"m 57 375 l 57 486 q 97 513 65 513 l 196 513 q 225 544 232 508 l 224 629 q 253 667 219 663 l 351 667 q 381 631 382 667 l 381 542 q 410 513 375 510 l 499 513 q 536 482 533 510 l 536 386 q 506 349 538 351 l 413 349 q 382 321 378 351 l 383 219 q 356 182 381 192 l 253 182 q 232 217 225 192 l 232 313 q 203 347 239 349 l 93 347 q 57 375 58 346 z "},",":{"ha":447,"x_min":63,"x_max":301,"o":"m 63 38 l 63 129 q 115 160 83 160 l 258 160 q 296 115 285 143 q 228 -129 301 -82 q 160 -146 196 -168 l 129 -129 q 135 -86 107 -107 q 174 -25 174 -49 q 146 -6 175 -1 l 89 -6 q 63 38 63 10 z "},"-":{"ha":413,"x_min":19,"x_max":397,"o":"m 19 439 l 19 531 q 107 560 36 567 l 338 560 q 397 517 393 553 l 397 440 q 346 397 393 397 l 78 397 q 19 439 31 401 z "},".":{"ha":335,"x_min":29,"x_max":264,"o":"m 29 42 l 29 132 q 83 163 51 163 l 226 163 q 264 119 253 147 l 264 43 q 231 0 258 14 l 67 0 q 29 42 31 14 z "},"/":{"ha":756,"x_min":38,"x_max":678,"o":"m 514 1031 q 561 1057 526 1054 l 654 1057 q 674 1017 678 1047 l 194 31 q 153 -1 183 1 l 79 -1 q 38 53 42 8 l 514 1031 z "},":":{"ha":697,"x_min":233,"x_max":469,"o":"m 233 42 l 233 132 q 288 163 254 163 l 431 163 q 468 119 457 147 l 468 43 q 436 0 464 14 l 269 0 q 233 42 236 14 m 236 364 l 236 456 q 290 486 257 486 l 433 486 q 469 442 458 471 l 469 367 q 438 324 465 336 l 272 324 q 236 364 238 336 z "},";":{"ha":436,"x_min":107,"x_max":346,"o":"m 111 364 l 111 456 q 164 486 132 486 l 308 486 q 346 442 335 471 l 346 367 q 313 324 342 336 l 147 324 q 111 364 114 336 m 107 36 l 107 128 q 160 158 128 158 l 303 158 q 340 114 329 142 q 272 -131 346 -83 q 204 -147 240 -169 l 174 -131 q 179 -87 151 -108 q 219 -26 218 -50 q 190 -7 219 -3 l 133 -7 q 107 36 107 8 z "},"@":{"ha":658,"x_min":36,"x_max":619,"o":"m 344 726 l 406 726 l 453 726 q 483 742 519 714 l 433 768 l 435 861 q 388 892 425 886 l 244 892 q 188 843 201 889 l 188 293 q 315 178 201 204 q 597 243 429 153 q 589 157 619 210 q 519 77 558 104 q 438 38 481 50 q 325 28 396 25 q 147 69 254 31 q 59 167 81 119 q 38 397 38 214 l 38 838 q 261 1038 36 1025 l 489 1036 q 582 979 579 1042 l 581 757 l 588 694 l 588 403 q 561 348 581 360 q 504 332 542 336 l 390 332 l 336 332 q 283 351 303 336 q 258 429 263 365 l 258 671 q 344 726 307 724 m 474 597 q 450 636 476 640 l 393 636 q 374 617 372 636 l 374 503 q 424 481 374 481 q 474 503 474 481 l 474 597 z "},"A":{"ha":756,"x_min":-39,"x_max":799,"o":"m 282 408 q 325 381 279 381 l 431 382 q 460 410 476 375 q 425 611 442 508 q 388 788 408 714 q 360 788 376 819 q 313 575 325 642 q 282 408 301 508 m 314 1054 l 463 1054 q 514 1022 506 1058 l 586 676 q 729 36 692 201 l 715 3 l 626 0 l 549 4 l 540 42 q 505 197 508 182 q 475 214 501 213 l 271 214 q 241 194 244 214 q 214 14 238 174 l 181 0 l 68 0 q 31 32 31 6 l 69 197 l 185 742 l 242 1021 q 314 1054 253 1058 m 243 92 q 239 88 240 92 l 239 19 q 243 17 239 17 l 250 17 q 300 54 300 17 l 300 58 q 268 92 297 92 l 243 92 m 253 82 q 288 56 288 82 q 261 28 288 28 l 251 28 l 251 79 l 253 82 m 332 72 q 308 46 311 72 q 332 17 308 17 l 340 17 q 354 22 354 17 l 354 24 l 351 29 q 338 26 347 26 q 321 43 321 26 l 353 43 q 357 47 357 43 l 357 50 q 339 72 353 72 l 332 72 m 372 72 q 369 69 369 72 l 369 19 q 372 17 369 17 l 379 17 q 382 19 382 17 l 382 43 q 393 63 382 58 q 403 53 403 63 l 403 19 q 407 17 403 17 l 413 17 q 415 19 415 17 l 415 47 q 428 63 415 58 q 436 53 436 63 l 436 19 q 440 17 436 17 l 447 17 q 450 19 450 17 l 450 49 q 435 72 450 72 l 426 72 q 415 63 415 68 q 401 72 410 72 l 397 72 q 382 63 382 69 l 381 63 l 381 72 l 372 72 m 483 72 q 461 46 465 72 l 461 42 q 482 17 463 17 l 490 17 q 514 43 514 21 l 514 49 q 494 72 510 72 l 483 72 m 322 56 q 333 64 324 61 q 344 53 344 61 l 322 53 l 322 56 m 474 42 q 489 63 474 63 q 501 49 501 60 l 501 46 q 489 28 501 28 l 482 28 q 474 42 478 28 m 383 -43 q 379 -46 382 -43 l 379 -122 q 383 -126 379 -126 l 389 -126 q 392 -122 392 -126 l 392 -100 l 394 -100 q 411 -126 403 -118 l 421 -126 l 424 -124 q 415 -110 419 -117 q 404 -94 410 -103 q 422 -72 422 -72 q 419 -69 422 -69 l 410 -69 l 392 -90 l 392 -46 q 389 -43 392 -43 l 383 -43 m 729 -43 q 725 -46 728 -43 l 725 -69 l 713 -69 q 689 -99 693 -69 q 706 -126 689 -126 l 711 -126 q 725 -115 725 -122 l 726 -115 l 726 -118 l 725 -121 q 729 -126 725 -126 l 735 -126 q 739 -122 739 -126 l 739 -46 q 735 -43 739 -43 l 729 -43 m 638 -50 q 628 -56 628 -50 l 628 -69 l 619 -69 q 617 -72 617 -69 l 617 -76 q 619 -79 617 -79 l 628 -79 l 628 -112 q 640 -126 628 -126 l 651 -126 q 654 -122 654 -126 l 654 -115 q 640 -111 640 -115 l 640 -79 l 651 -79 q 654 -76 654 -79 l 654 -72 q 651 -69 654 -69 l 640 -69 l 640 -53 q 638 -50 640 -50 m -35 -69 l -39 -71 q -19 -126 -22 -126 l -10 -126 q 1 -87 0 -103 l 3 -87 q 18 -126 14 -126 l 25 -126 q 47 -71 29 -126 l 43 -69 l 36 -69 l 33 -71 q 21 -107 22 -107 q 7 -69 13 -69 l 0 -69 q -14 -107 -6 -69 l -15 -107 q -28 -69 -26 -69 l -35 -69 m 53 -69 l 50 -71 q 69 -126 63 -126 l 75 -126 q 89 -87 81 -126 l 92 -87 q 106 -126 100 -126 l 114 -126 q 133 -71 119 -126 l 131 -69 l 124 -69 q 111 -108 117 -69 l 108 -108 q 94 -69 100 -69 l 88 -69 q 74 -108 82 -69 l 72 -108 q 60 -69 64 -69 l 53 -69 m 139 -69 l 136 -71 q 156 -126 153 -125 l 164 -126 q 176 -89 168 -126 l 178 -89 q 193 -126 192 -126 l 201 -126 q 222 -71 206 -126 l 218 -69 l 213 -69 q 200 -107 206 -69 l 196 -107 q 183 -69 188 -69 l 175 -69 q 163 -107 171 -69 l 161 -107 q 149 -69 150 -69 l 139 -69 m 275 -69 q 257 -72 265 -69 q 260 -82 257 -76 q 274 -79 268 -79 l 276 -79 q 286 -89 286 -79 l 286 -92 l 285 -92 q 254 -111 254 -92 q 268 -126 254 -122 l 272 -126 q 288 -118 276 -126 q 290 -126 288 -126 l 296 -126 q 300 -122 300 -126 l 300 -86 q 283 -69 300 -72 l 275 -69 m 318 -69 q 315 -72 315 -69 l 315 -122 q 318 -126 315 -126 l 325 -126 q 328 -122 328 -126 l 328 -106 q 344 -79 328 -79 q 351 -90 351 -82 l 351 -122 q 354 -126 351 -126 l 358 -126 q 361 -122 361 -126 l 361 -82 q 349 -69 361 -69 l 342 -69 q 328 -78 336 -69 q 325 -69 328 -69 l 318 -69 m 451 -69 q 431 -94 435 -69 l 431 -101 q 456 -126 431 -122 l 458 -126 q 476 -121 476 -126 l 476 -115 l 474 -112 q 466 -115 469 -115 q 460 -115 463 -115 l 458 -115 q 443 -101 443 -115 l 443 -99 l 476 -99 l 479 -96 q 460 -69 479 -69 l 451 -69 m 540 -69 q 528 -75 528 -69 l 528 -79 l 529 -82 q 538 -80 535 -81 q 543 -79 540 -79 l 547 -79 q 557 -89 557 -79 l 557 -92 l 554 -92 q 524 -111 524 -92 l 524 -112 q 535 -126 524 -119 l 542 -126 q 557 -115 557 -122 l 558 -115 l 558 -126 l 567 -126 q 569 -122 569 -126 l 569 -89 q 553 -69 569 -69 l 540 -69 m 589 -69 q 586 -72 586 -69 l 586 -122 q 589 -126 586 -126 l 594 -126 q 599 -122 599 -126 l 599 -103 q 601 -86 599 -94 l 615 -78 l 615 -72 q 611 -69 615 -69 l 606 -69 q 599 -79 599 -74 l 597 -79 l 597 -78 l 599 -75 q 594 -69 599 -69 l 589 -69 m 774 -69 q 750 -100 750 -69 l 750 -101 q 774 -126 750 -122 l 782 -126 q 796 -119 796 -126 l 796 -115 l 794 -112 q 785 -115 788 -115 q 781 -115 782 -115 q 763 -100 763 -115 l 763 -99 l 794 -99 q 799 -94 799 -99 l 799 -89 q 781 -69 794 -69 l 774 -69 m 443 -89 q 457 -78 443 -82 q 467 -87 467 -82 l 467 -89 l 443 -89 m 764 -86 q 775 -78 767 -79 q 785 -89 785 -78 l 764 -89 l 764 -86 m 701 -99 q 717 -79 701 -79 l 725 -79 l 725 -96 q 713 -115 725 -111 q 701 -99 701 -115 m 490 -92 q 488 -94 488 -92 l 488 -99 q 490 -101 488 -101 l 511 -101 q 515 -99 515 -101 l 515 -94 q 511 -92 515 -92 l 490 -92 m 267 -106 q 285 -100 278 -100 l 286 -100 l 286 -101 q 275 -115 286 -115 l 267 -114 l 267 -106 m 538 -107 q 554 -100 538 -103 l 557 -100 l 557 -101 q 546 -115 557 -111 l 538 -114 l 538 -107 m 235 -110 q 228 -115 228 -114 l 228 -119 q 235 -126 232 -126 l 238 -126 q 244 -119 244 -119 l 244 -115 q 238 -110 240 -110 l 235 -110 m 674 -110 q 663 -118 664 -110 q 669 -126 663 -122 l 674 -126 q 679 -121 679 -121 l 679 -115 l 674 -110 z "},"B":{"ha":756,"x_min":31,"x_max":724,"o":"m 108 1056 l 458 1056 q 603 1019 558 1056 q 672 931 647 982 q 701 840 697 881 q 702 771 706 800 q 686 704 699 742 q 654 640 674 667 q 596 592 635 613 q 603 564 553 578 q 690 466 656 539 q 724 338 724 393 q 719 226 724 282 q 686 119 714 169 q 640 52 658 69 q 587 19 621 35 q 396 1 553 3 q 65 1 214 -1 q 32 39 31 6 l 33 1028 q 108 1056 36 1060 m 229 875 l 229 690 q 307 660 236 653 l 419 660 q 501 701 481 671 q 528 765 521 731 q 516 833 535 799 q 472 885 497 868 q 404 901 446 901 l 289 901 q 229 875 222 901 m 225 475 l 225 232 q 278 197 232 200 l 436 197 q 536 233 517 204 q 556 304 556 263 q 554 367 556 346 q 544 414 553 389 q 512 463 535 439 q 435 508 489 486 l 285 508 q 225 475 246 519 z "},"C":{"ha":781,"x_min":40,"x_max":735,"o":"m 204 1060 l 576 1061 q 657 958 667 1032 l 657 890 l 657 753 q 589 703 636 706 l 508 700 q 457 758 461 719 l 457 850 q 436 883 461 883 l 304 883 q 226 826 222 879 l 226 317 q 230 266 226 283 q 251 223 233 249 q 364 188 269 197 q 475 201 426 186 q 524 356 528 238 q 578 390 531 392 l 714 390 q 735 342 735 381 q 703 158 735 251 q 634 58 675 101 q 542 0 593 15 l 393 0 l 268 0 q 108 61 161 8 q 47 172 40 119 l 47 890 q 51 989 42 968 q 81 1023 61 1010 q 127 1047 101 1036 q 204 1060 153 1058 z "},"D":{"ha":781,"x_min":60,"x_max":732,"o":"m 133 1051 l 536 1051 q 625 1028 589 1050 q 693 968 661 1006 q 732 839 725 931 l 732 192 q 676 65 711 92 q 608 23 642 39 q 522 0 575 7 l 119 0 q 67 50 71 4 l 67 182 q 90 204 69 206 l 117 204 q 133 258 138 208 l 133 839 q 117 878 131 863 l 86 878 q 67 908 60 881 l 67 1031 q 133 1051 78 1054 m 319 232 q 336 196 315 208 l 483 196 q 542 285 536 213 l 542 810 q 497 892 550 865 l 361 892 q 319 858 319 904 l 319 232 z "},"E":{"ha":781,"x_min":-42,"x_max":796,"o":"m 75 1058 l 597 1058 q 672 1029 665 1061 l 672 897 q 636 876 668 872 l 272 876 q 231 847 222 879 l 229 711 q 269 692 226 688 l 515 692 q 558 656 561 694 l 558 558 q 514 524 553 524 l 240 524 q 214 496 214 521 l 214 239 q 267 199 217 199 l 665 199 q 693 158 696 194 l 693 44 q 636 3 693 -7 l 110 3 q 24 25 36 -3 l 24 1018 q 75 1058 38 1047 m 240 107 q 236 103 238 107 l 236 35 q 240 32 236 32 l 247 32 q 297 69 297 32 l 297 74 q 265 107 294 107 l 240 107 m 250 97 q 285 71 285 97 q 258 43 285 43 l 249 43 l 249 94 l 250 97 m 329 88 q 306 61 308 88 q 329 32 306 32 l 338 32 q 351 38 351 32 l 351 39 l 349 44 q 335 42 344 42 q 318 58 318 42 l 350 58 q 354 63 354 58 l 354 65 q 336 88 350 88 l 329 88 m 369 88 q 367 85 367 88 l 367 35 q 369 32 367 32 l 376 32 q 379 35 379 32 l 379 58 q 390 78 379 74 q 400 68 400 78 l 400 35 q 404 32 400 32 l 410 32 q 413 35 413 32 l 413 63 q 425 78 413 74 q 433 68 433 78 l 433 35 q 438 32 433 32 l 444 32 q 447 35 447 32 l 447 64 q 432 88 447 88 l 424 88 q 413 78 413 83 q 399 88 407 88 l 394 88 q 379 78 379 85 l 378 78 l 378 88 l 369 88 m 481 88 q 458 61 463 88 l 458 57 q 479 32 460 32 l 488 32 q 511 58 511 36 l 511 64 q 492 88 507 88 l 481 88 m 319 71 q 331 79 321 76 q 342 68 342 76 l 319 68 l 319 71 m 471 57 q 486 78 471 78 q 499 64 499 75 l 499 61 q 486 43 499 43 l 479 43 q 471 57 475 43 m 381 -28 q 376 -31 379 -28 l 376 -107 q 381 -111 376 -111 l 386 -111 q 389 -107 389 -111 l 389 -85 l 392 -85 q 408 -111 400 -103 l 418 -111 l 421 -108 q 412 -94 417 -101 q 401 -79 407 -87 q 419 -57 419 -57 q 417 -54 419 -54 l 407 -54 l 389 -75 l 389 -31 q 386 -28 389 -28 l 381 -28 m 726 -28 q 722 -31 725 -28 l 722 -54 l 710 -54 q 686 -83 690 -54 q 703 -111 686 -111 l 708 -111 q 722 -100 722 -107 l 724 -100 l 724 -103 l 722 -106 q 726 -111 722 -111 l 732 -111 q 736 -107 736 -111 l 736 -31 q 732 -28 736 -28 l 726 -28 m 635 -35 q 625 -40 625 -35 l 625 -54 l 617 -54 q 614 -57 614 -54 l 614 -61 q 617 -64 614 -64 l 625 -64 l 625 -97 q 638 -111 625 -111 l 649 -111 q 651 -107 651 -111 l 651 -100 q 638 -96 638 -100 l 638 -64 l 649 -64 q 651 -61 651 -64 l 651 -57 q 649 -54 651 -54 l 638 -54 l 638 -37 q 635 -35 638 -35 m -37 -54 l -42 -56 q -22 -111 -25 -111 l -12 -111 q -1 -72 -3 -87 l 0 -72 q 15 -111 11 -111 l 22 -111 q 44 -56 26 -111 l 40 -54 l 33 -54 l 31 -56 q 18 -92 19 -92 q 4 -54 10 -54 l -3 -54 q -17 -92 -8 -54 l -18 -92 q -31 -54 -29 -54 l -37 -54 m 50 -54 l 47 -56 q 67 -111 60 -111 l 72 -111 q 86 -72 78 -111 l 89 -72 q 103 -111 97 -111 l 111 -111 q 131 -56 117 -111 l 128 -54 l 121 -54 q 108 -93 114 -54 l 106 -93 q 92 -54 97 -54 l 85 -54 q 71 -93 79 -54 l 69 -93 q 57 -54 61 -54 l 50 -54 m 136 -54 l 133 -56 q 153 -111 150 -110 l 161 -111 q 174 -74 165 -111 l 175 -74 q 190 -111 189 -111 l 199 -111 q 219 -56 203 -111 l 215 -54 l 210 -54 q 197 -92 203 -54 l 193 -92 q 181 -54 185 -54 l 172 -54 q 160 -92 168 -54 l 158 -92 q 146 -54 147 -54 l 136 -54 m 272 -54 q 254 -57 263 -54 q 257 -67 254 -61 q 271 -64 265 -64 l 274 -64 q 283 -74 283 -64 l 283 -76 l 282 -76 q 251 -96 251 -76 q 265 -111 251 -107 l 269 -111 q 285 -103 274 -111 q 288 -111 285 -111 l 293 -111 q 297 -107 297 -111 l 297 -71 q 281 -54 297 -57 l 272 -54 m 315 -54 q 313 -57 313 -54 l 313 -107 q 315 -111 313 -111 l 322 -111 q 325 -107 325 -111 l 325 -90 q 342 -64 325 -64 q 349 -75 349 -67 l 349 -107 q 351 -111 349 -111 l 356 -111 q 358 -107 358 -111 l 358 -67 q 346 -54 358 -54 l 339 -54 q 325 -62 333 -54 q 322 -54 325 -54 l 315 -54 m 449 -54 q 428 -79 432 -54 l 428 -86 q 453 -111 428 -107 l 456 -111 q 474 -106 474 -111 l 474 -100 l 471 -97 q 463 -100 467 -100 q 457 -100 460 -100 l 456 -100 q 440 -86 440 -100 l 440 -83 l 474 -83 l 476 -81 q 457 -54 476 -54 l 449 -54 m 538 -54 q 525 -60 525 -54 l 525 -64 l 526 -67 q 535 -65 532 -65 q 540 -64 538 -64 l 544 -64 q 554 -74 554 -64 l 554 -76 l 551 -76 q 521 -96 521 -76 l 521 -97 q 532 -111 521 -104 l 539 -111 q 554 -100 554 -107 l 556 -100 l 556 -111 l 564 -111 q 567 -107 567 -111 l 567 -74 q 550 -54 567 -54 l 538 -54 m 586 -54 q 583 -57 583 -54 l 583 -107 q 586 -111 583 -111 l 592 -111 q 596 -107 596 -111 l 596 -87 q 599 -71 596 -79 l 613 -62 l 613 -57 q 608 -54 613 -54 l 603 -54 q 596 -64 596 -58 l 594 -64 l 594 -62 l 596 -60 q 592 -54 596 -54 l 586 -54 m 771 -54 q 747 -85 747 -54 l 747 -86 q 771 -111 747 -107 l 779 -111 q 793 -104 793 -111 l 793 -100 l 792 -97 q 782 -100 785 -100 q 778 -100 779 -100 q 760 -85 760 -100 l 760 -83 l 792 -83 q 796 -79 796 -83 l 796 -74 q 778 -54 792 -54 l 771 -54 m 440 -74 q 454 -62 440 -67 q 464 -72 464 -67 l 464 -74 l 440 -74 m 761 -71 q 772 -62 764 -64 q 782 -74 782 -62 l 761 -74 l 761 -71 m 699 -83 q 714 -64 699 -64 l 722 -64 l 722 -81 q 710 -100 722 -96 q 699 -83 699 -100 m 488 -76 q 485 -79 485 -76 l 485 -83 q 488 -86 485 -86 l 508 -86 q 513 -83 513 -86 l 513 -79 q 508 -76 513 -76 l 488 -76 m 264 -90 q 282 -85 275 -85 l 283 -85 l 283 -86 q 272 -100 283 -100 l 264 -99 l 264 -90 m 535 -92 q 551 -85 535 -87 l 554 -85 l 554 -86 q 543 -100 554 -96 l 535 -99 l 535 -92 m 232 -94 q 225 -100 225 -99 l 225 -104 q 232 -111 229 -111 l 235 -111 q 242 -104 242 -104 l 242 -100 q 235 -94 238 -94 l 232 -94 m 671 -94 q 660 -103 661 -94 q 667 -111 660 -107 l 671 -111 q 676 -106 676 -106 l 676 -100 l 671 -94 z "},"F":{"ha":781,"x_min":36,"x_max":715,"o":"m 244 1058 l 679 1058 q 715 1022 711 1053 l 715 906 q 689 871 714 874 l 253 871 q 233 836 226 864 l 233 564 q 279 532 242 532 l 592 532 q 631 507 622 533 l 631 376 q 590 350 626 350 l 263 350 q 242 294 238 343 l 242 38 q 217 0 242 0 l 71 0 q 42 46 36 11 l 42 935 q 72 1001 49 972 q 111 1039 94 1029 q 165 1053 128 1049 q 244 1058 201 1058 z "},"G":{"ha":781,"x_min":42,"x_max":718,"o":"m 242 1060 l 411 1060 l 569 1060 q 660 1023 618 1054 q 696 906 703 992 l 696 800 q 664 760 690 764 l 547 761 q 519 781 524 760 q 486 899 525 883 q 272 892 376 910 q 242 818 247 876 l 242 246 q 358 185 258 182 l 451 186 q 508 279 497 211 q 488 407 522 394 l 454 408 l 356 408 q 310 438 314 403 l 310 547 q 353 586 313 581 l 660 586 q 718 549 704 582 l 718 31 q 683 0 714 3 l 564 0 q 547 43 544 17 l 549 92 q 526 63 536 75 q 484 26 515 50 q 375 0 453 3 l 219 0 q 110 31 144 6 q 58 85 75 56 q 47 185 42 114 l 47 928 q 118 1023 81 992 q 242 1060 156 1054 z "},"H":{"ha":781,"x_min":35,"x_max":715,"o":"m 75 1058 l 217 1058 q 247 1036 249 1064 l 247 710 q 279 675 247 672 l 490 674 q 519 697 519 671 l 519 1033 q 557 1058 519 1057 l 686 1058 q 715 1021 714 1054 l 715 40 q 683 0 715 0 l 542 0 q 525 44 519 11 l 525 442 q 492 469 519 469 l 286 471 q 247 447 258 469 l 247 39 q 219 0 247 7 l 78 0 q 38 26 35 3 l 38 1029 q 75 1058 40 1058 z "},"I":{"ha":640,"x_min":-100,"x_max":738,"o":"m 47 169 q 128 194 71 200 l 210 194 q 231 218 229 194 l 231 847 q 199 865 229 864 q 156 886 160 856 l 156 1032 q 190 1058 164 1058 l 457 1058 q 481 1026 486 1053 l 481 903 q 464 865 479 876 l 422 865 q 414 846 411 857 l 414 214 q 433 197 414 199 l 564 197 q 592 163 592 194 l 592 36 q 554 0 586 3 l 81 0 q 47 42 53 8 l 47 169 m 182 119 q 178 115 179 119 l 178 47 q 182 44 178 44 l 189 44 q 239 82 239 44 l 239 86 q 207 119 236 119 l 182 119 m 192 110 q 226 83 226 110 q 200 56 226 56 l 190 56 l 190 107 l 192 110 m 271 100 q 247 74 250 100 q 271 44 247 44 l 279 44 q 293 50 293 44 l 293 51 l 290 57 q 276 54 286 54 q 260 71 260 54 l 292 71 q 296 75 296 71 l 296 78 q 278 100 292 100 l 271 100 m 311 100 q 308 97 308 100 l 308 47 q 311 44 308 44 l 318 44 q 321 47 321 44 l 321 71 q 332 90 321 86 q 342 81 342 90 l 342 47 q 346 44 342 44 l 351 44 q 354 47 354 44 l 354 75 q 367 90 354 86 q 375 81 375 90 l 375 47 q 379 44 375 44 l 386 44 q 389 47 389 44 l 389 76 q 374 100 389 100 l 365 100 q 354 90 354 96 q 340 100 349 100 l 336 100 q 321 90 321 97 l 319 90 l 319 100 l 311 100 m 422 100 q 400 74 404 100 l 400 69 q 421 44 401 44 l 429 44 q 453 71 453 49 l 453 76 q 433 100 449 100 l 422 100 m 261 83 q 272 92 263 89 q 283 81 283 89 l 261 81 l 261 83 m 413 69 q 428 90 413 90 q 440 76 440 88 l 440 74 q 428 56 440 56 l 421 56 q 413 69 417 56 m 322 -15 q 318 -18 321 -15 l 318 -94 q 322 -99 318 -99 l 328 -99 q 331 -94 331 -99 l 331 -72 l 333 -72 q 350 -99 342 -90 l 360 -99 l 363 -96 q 353 -82 358 -89 q 343 -67 349 -75 q 361 -44 361 -44 q 358 -42 361 -42 l 349 -42 l 331 -62 l 331 -18 q 328 -15 331 -15 l 322 -15 m 668 -15 q 664 -18 667 -15 l 664 -42 l 651 -42 q 628 -71 632 -42 q 644 -99 628 -99 l 650 -99 q 664 -87 664 -94 l 665 -87 l 665 -90 l 664 -93 q 668 -99 664 -99 l 674 -99 q 678 -94 678 -99 l 678 -18 q 674 -15 678 -15 l 668 -15 m 576 -22 q 567 -28 567 -22 l 567 -42 l 558 -42 q 556 -44 556 -42 l 556 -49 q 558 -51 556 -51 l 567 -51 l 567 -85 q 579 -99 567 -99 l 590 -99 q 593 -94 593 -99 l 593 -87 q 579 -83 579 -87 l 579 -51 l 590 -51 q 593 -49 593 -51 l 593 -44 q 590 -42 593 -42 l 579 -42 l 579 -25 q 576 -22 579 -22 m -96 -42 l -100 -43 q -81 -99 -83 -99 l -71 -99 q -60 -60 -61 -75 l -58 -60 q -43 -99 -47 -99 l -36 -99 q -14 -43 -32 -99 l -18 -42 l -25 -42 l -28 -43 q -40 -79 -39 -79 q -54 -42 -49 -42 l -61 -42 q -75 -79 -67 -42 l -76 -79 q -89 -42 -87 -42 l -96 -42 m -8 -42 l -11 -43 q 8 -99 1 -99 l 14 -99 q 28 -60 19 -99 l 31 -60 q 44 -99 39 -99 l 53 -99 q 72 -43 58 -99 l 69 -42 l 63 -42 q 50 -81 56 -42 l 47 -81 q 33 -42 39 -42 l 26 -42 q 13 -81 21 -42 l 11 -81 q -1 -42 3 -42 l -8 -42 m 78 -42 l 75 -43 q 94 -99 92 -97 l 103 -99 q 115 -61 107 -99 l 117 -61 q 132 -99 131 -99 l 140 -99 q 161 -43 144 -99 l 157 -42 l 151 -42 q 139 -79 144 -42 l 135 -79 q 122 -42 126 -42 l 114 -42 q 101 -79 110 -42 l 100 -79 q 88 -42 89 -42 l 78 -42 m 214 -42 q 196 -44 204 -42 q 199 -54 196 -49 q 213 -51 207 -51 l 215 -51 q 225 -61 225 -51 l 225 -64 l 224 -64 q 193 -83 193 -64 q 207 -99 193 -94 l 211 -99 q 226 -90 215 -99 q 229 -99 226 -99 l 235 -99 q 239 -94 239 -99 l 239 -58 q 222 -42 239 -44 l 214 -42 m 257 -42 q 254 -44 254 -42 l 254 -94 q 257 -99 254 -99 l 264 -99 q 267 -94 267 -99 l 267 -78 q 283 -51 267 -51 q 290 -62 290 -54 l 290 -94 q 293 -99 290 -99 l 297 -99 q 300 -94 300 -99 l 300 -54 q 288 -42 300 -42 l 281 -42 q 267 -50 275 -42 q 264 -42 267 -42 l 257 -42 m 390 -42 q 369 -67 374 -42 l 369 -74 q 394 -99 369 -94 l 397 -99 q 415 -93 415 -99 l 415 -87 l 413 -85 q 405 -87 408 -87 q 399 -87 401 -87 l 397 -87 q 382 -74 382 -87 l 382 -71 l 415 -71 l 418 -68 q 399 -42 418 -42 l 390 -42 m 479 -42 q 467 -47 467 -42 l 467 -51 l 468 -54 q 476 -52 474 -53 q 482 -51 479 -51 l 486 -51 q 496 -61 496 -51 l 496 -64 l 493 -64 q 463 -83 463 -64 l 463 -85 q 474 -99 463 -92 l 481 -99 q 496 -87 496 -94 l 497 -87 l 497 -99 l 506 -99 q 508 -94 508 -99 l 508 -61 q 492 -42 508 -42 l 479 -42 m 528 -42 q 525 -44 525 -42 l 525 -94 q 528 -99 525 -99 l 533 -99 q 538 -94 538 -99 l 538 -75 q 540 -58 538 -67 l 554 -50 l 554 -44 q 550 -42 554 -42 l 544 -42 q 538 -51 538 -46 l 536 -51 l 536 -50 l 538 -47 q 533 -42 538 -42 l 528 -42 m 713 -42 q 689 -72 689 -42 l 689 -74 q 713 -99 689 -94 l 721 -99 q 735 -92 735 -99 l 735 -87 l 733 -85 q 724 -87 726 -87 q 719 -87 721 -87 q 701 -72 701 -87 l 701 -71 l 733 -71 q 738 -67 738 -71 l 738 -61 q 719 -42 733 -42 l 713 -42 m 382 -61 q 396 -50 382 -54 q 406 -60 406 -54 l 406 -61 l 382 -61 m 703 -58 q 714 -50 706 -51 q 724 -61 724 -50 l 703 -61 l 703 -58 m 640 -71 q 656 -51 640 -51 l 664 -51 l 664 -68 q 651 -87 664 -83 q 640 -71 640 -87 m 429 -64 q 426 -67 426 -64 l 426 -71 q 429 -74 426 -74 l 450 -74 q 454 -71 454 -74 l 454 -67 q 450 -64 454 -64 l 429 -64 m 206 -78 q 224 -72 217 -72 l 225 -72 l 225 -74 q 214 -87 225 -87 l 206 -86 l 206 -78 m 476 -79 q 493 -72 476 -75 l 496 -72 l 496 -74 q 485 -87 496 -83 l 476 -86 l 476 -79 m 174 -82 q 167 -87 167 -86 l 167 -92 q 174 -99 171 -99 l 176 -99 q 183 -92 183 -92 l 183 -87 q 176 -82 179 -82 l 174 -82 m 613 -82 q 601 -90 603 -82 q 608 -99 601 -94 l 613 -99 q 618 -93 618 -93 l 618 -87 l 613 -82 z "},"J":{"ha":781,"x_min":40,"x_max":689,"o":"m 64 413 l 206 411 q 226 367 229 393 l 226 231 q 241 192 229 203 q 283 182 253 182 l 401 181 q 470 185 453 182 q 494 201 488 189 q 497 256 500 213 l 497 879 q 465 890 503 899 l 256 890 q 225 931 225 897 l 222 1029 q 260 1060 226 1060 l 608 1060 q 681 953 689 1053 l 681 224 q 649 71 676 103 q 603 23 622 39 q 515 0 583 7 l 208 -1 q 103 29 138 11 q 40 117 68 47 l 40 379 q 64 413 44 407 z "},"K":{"ha":781,"x_min":47,"x_max":746,"o":"m 74 1054 l 213 1053 q 219 1026 225 1050 l 219 669 q 247 675 225 640 l 528 1043 q 561 1054 538 1058 l 718 1054 q 714 1015 742 1046 l 375 578 l 711 36 q 693 0 746 -11 l 579 0 q 511 32 531 -7 l 281 413 q 253 406 269 438 l 213 344 l 213 42 q 179 0 210 10 l 83 0 q 47 42 49 6 l 47 1025 q 74 1054 51 1050 z "},"L":{"ha":781,"x_min":49,"x_max":725,"o":"m 86 1053 l 176 1053 q 251 1033 247 1057 l 251 264 q 268 224 247 228 l 500 224 q 522 249 531 221 l 522 361 q 569 386 518 392 l 679 386 q 725 365 719 392 l 725 50 q 647 0 708 0 l 75 0 q 49 42 49 6 l 49 1036 q 86 1053 49 1061 z "},"M":{"ha":781,"x_min":42,"x_max":747,"o":"m 94 1054 l 222 1053 q 249 1022 240 1042 l 383 644 q 411 644 399 608 l 553 1029 q 588 1049 564 1053 l 689 1049 q 743 1031 732 1053 l 743 49 q 711 -1 747 -11 l 596 -1 q 558 25 564 -1 l 558 644 q 547 656 558 683 l 440 353 q 365 353 401 299 l 247 651 q 231 640 229 686 l 231 25 q 183 -1 219 -1 l 75 -1 q 47 53 42 13 l 47 1038 q 94 1054 56 1058 z "},"N":{"ha":781,"x_min":51,"x_max":719,"o":"m 83 1049 l 164 1049 q 203 1032 192 1047 l 507 508 q 525 532 525 499 l 525 1031 q 557 1053 536 1053 l 686 1053 q 718 1008 715 1060 l 718 39 q 683 0 719 0 l 553 0 q 525 31 522 -3 l 525 85 q 519 142 526 121 l 238 628 q 219 628 219 651 l 219 36 q 201 0 225 4 l 78 0 q 51 25 58 6 l 51 1017 q 83 1049 56 1049 z "},"O":{"ha":781,"x_min":-39,"x_max":799,"o":"m 383 1061 q 472 1036 442 1053 q 541 987 503 1019 q 604 917 579 954 q 647 831 629 879 q 675 735 665 783 q 685 628 685 686 q 689 465 686 571 q 682 303 692 358 q 663 210 672 247 q 638 142 653 174 q 596 81 622 110 q 546 34 569 53 q 490 8 522 15 q 420 -2 457 0 q 338 -2 383 -4 q 260 15 292 0 q 197 53 229 29 q 133 129 164 76 q 80 245 101 182 q 58 347 58 308 q 56 455 58 385 q 54 599 53 525 q 69 726 56 672 q 98 817 83 781 q 150 901 113 853 q 210 974 188 950 q 282 1027 233 997 q 383 1061 331 1057 m 236 708 q 226 633 229 671 q 221 517 222 594 q 223 391 219 440 q 240 303 226 342 q 283 234 253 264 q 383 203 313 204 q 478 233 454 203 q 515 305 503 263 q 530 401 526 347 q 530 556 533 456 q 519 697 526 656 q 495 770 511 738 q 449 839 479 803 q 379 879 418 875 q 287 813 329 876 q 236 708 244 749 m 243 114 q 239 110 240 114 l 239 42 q 243 39 239 39 l 250 39 q 300 76 300 39 l 300 81 q 268 114 297 114 l 243 114 m 253 104 q 288 78 288 104 q 261 50 288 50 l 251 50 l 251 101 l 253 104 m 332 94 q 308 68 311 94 q 332 39 308 39 l 340 39 q 354 44 354 39 l 354 46 l 351 51 q 338 49 347 49 q 321 65 321 49 l 353 65 q 357 69 357 65 l 357 72 q 339 94 353 94 l 332 94 m 372 94 q 369 92 369 94 l 369 42 q 372 39 369 39 l 379 39 q 382 42 382 39 l 382 65 q 393 85 382 81 q 403 75 403 85 l 403 42 q 407 39 403 39 l 413 39 q 415 42 415 39 l 415 69 q 428 85 415 81 q 436 75 436 85 l 436 42 q 440 39 436 39 l 447 39 q 450 42 450 39 l 450 71 q 435 94 450 94 l 426 94 q 415 85 415 90 q 401 94 410 94 l 397 94 q 382 85 382 92 l 381 85 l 381 94 l 372 94 m 483 94 q 461 68 465 94 l 461 64 q 482 39 463 39 l 490 39 q 514 65 514 43 l 514 71 q 494 94 510 94 l 483 94 m 322 78 q 333 86 324 83 q 344 75 344 83 l 322 75 l 322 78 m 474 64 q 489 85 474 85 q 501 71 501 82 l 501 68 q 489 50 501 50 l 482 50 q 474 64 478 50 m 383 -21 q 379 -24 382 -21 l 379 -100 q 383 -104 379 -104 l 389 -104 q 392 -100 392 -104 l 392 -78 l 394 -78 q 411 -104 403 -96 l 421 -104 l 424 -101 q 415 -87 419 -94 q 404 -72 410 -81 q 422 -50 422 -50 q 419 -47 422 -47 l 410 -47 l 392 -68 l 392 -24 q 389 -21 392 -21 l 383 -21 m 729 -21 q 725 -24 728 -21 l 725 -47 l 713 -47 q 689 -76 693 -47 q 706 -104 689 -104 l 711 -104 q 725 -93 725 -100 l 726 -93 l 726 -96 l 725 -99 q 729 -104 725 -104 l 735 -104 q 739 -100 739 -104 l 739 -24 q 735 -21 739 -21 l 729 -21 m 638 -28 q 628 -33 628 -28 l 628 -47 l 619 -47 q 617 -50 617 -47 l 617 -54 q 619 -57 617 -57 l 628 -57 l 628 -90 q 640 -104 628 -104 l 651 -104 q 654 -100 654 -104 l 654 -93 q 640 -89 640 -93 l 640 -57 l 651 -57 q 654 -54 654 -57 l 654 -50 q 651 -47 654 -47 l 640 -47 l 640 -31 q 638 -28 640 -28 m -35 -47 l -39 -49 q -19 -104 -22 -104 l -10 -104 q 1 -65 0 -81 l 3 -65 q 18 -104 14 -104 l 25 -104 q 47 -49 29 -104 l 43 -47 l 36 -47 l 33 -49 q 21 -85 22 -85 q 7 -47 13 -47 l 0 -47 q -14 -85 -6 -47 l -15 -85 q -28 -47 -26 -47 l -35 -47 m 53 -47 l 50 -49 q 69 -104 63 -104 l 75 -104 q 89 -65 81 -104 l 92 -65 q 106 -104 100 -104 l 114 -104 q 133 -49 119 -104 l 131 -47 l 124 -47 q 111 -86 117 -47 l 108 -86 q 94 -47 100 -47 l 88 -47 q 74 -86 82 -47 l 72 -86 q 60 -47 64 -47 l 53 -47 m 139 -47 l 136 -49 q 156 -104 153 -103 l 164 -104 q 176 -67 168 -104 l 178 -67 q 193 -104 192 -104 l 201 -104 q 222 -49 206 -104 l 218 -47 l 213 -47 q 200 -85 206 -47 l 196 -85 q 183 -47 188 -47 l 175 -47 q 163 -85 171 -47 l 161 -85 q 149 -47 150 -47 l 139 -47 m 275 -47 q 257 -50 265 -47 q 260 -60 257 -54 q 274 -57 268 -57 l 276 -57 q 286 -67 286 -57 l 286 -69 l 285 -69 q 254 -89 254 -69 q 268 -104 254 -100 l 272 -104 q 288 -96 276 -104 q 290 -104 288 -104 l 296 -104 q 300 -100 300 -104 l 300 -64 q 283 -47 300 -50 l 275 -47 m 318 -47 q 315 -50 315 -47 l 315 -100 q 318 -104 315 -104 l 325 -104 q 328 -100 328 -104 l 328 -83 q 344 -57 328 -57 q 351 -68 351 -60 l 351 -100 q 354 -104 351 -104 l 358 -104 q 361 -100 361 -104 l 361 -60 q 349 -47 361 -47 l 342 -47 q 328 -56 336 -47 q 325 -47 328 -47 l 318 -47 m 451 -47 q 431 -72 435 -47 l 431 -79 q 456 -104 431 -100 l 458 -104 q 476 -99 476 -104 l 476 -93 l 474 -90 q 466 -93 469 -93 q 460 -93 463 -93 l 458 -93 q 443 -79 443 -93 l 443 -76 l 476 -76 l 479 -74 q 460 -47 479 -47 l 451 -47 m 540 -47 q 528 -53 528 -47 l 528 -57 l 529 -60 q 538 -58 535 -58 q 543 -57 540 -57 l 547 -57 q 557 -67 557 -57 l 557 -69 l 554 -69 q 524 -89 524 -69 l 524 -90 q 535 -104 524 -97 l 542 -104 q 557 -93 557 -100 l 558 -93 l 558 -104 l 567 -104 q 569 -100 569 -104 l 569 -67 q 553 -47 569 -47 l 540 -47 m 589 -47 q 586 -50 586 -47 l 586 -100 q 589 -104 586 -104 l 594 -104 q 599 -100 599 -104 l 599 -81 q 601 -64 599 -72 l 615 -56 l 615 -50 q 611 -47 615 -47 l 606 -47 q 599 -57 599 -51 l 597 -57 l 597 -56 l 599 -53 q 594 -47 599 -47 l 589 -47 m 774 -47 q 750 -78 750 -47 l 750 -79 q 774 -104 750 -100 l 782 -104 q 796 -97 796 -104 l 796 -93 l 794 -90 q 785 -93 788 -93 q 781 -93 782 -93 q 763 -78 763 -93 l 763 -76 l 794 -76 q 799 -72 799 -76 l 799 -67 q 781 -47 794 -47 l 774 -47 m 443 -67 q 457 -56 443 -60 q 467 -65 467 -60 l 467 -67 l 443 -67 m 764 -64 q 775 -56 767 -57 q 785 -67 785 -56 l 764 -67 l 764 -64 m 701 -76 q 717 -57 701 -57 l 725 -57 l 725 -74 q 713 -93 725 -89 q 701 -76 701 -93 m 490 -69 q 488 -72 488 -69 l 488 -76 q 490 -79 488 -79 l 511 -79 q 515 -76 515 -79 l 515 -72 q 511 -69 515 -69 l 490 -69 m 267 -83 q 285 -78 278 -78 l 286 -78 l 286 -79 q 275 -93 286 -93 l 267 -92 l 267 -83 m 538 -85 q 554 -78 538 -81 l 557 -78 l 557 -79 q 546 -93 557 -89 l 538 -92 l 538 -85 m 235 -87 q 228 -93 228 -92 l 228 -97 q 235 -104 232 -104 l 238 -104 q 244 -97 244 -97 l 244 -93 q 238 -87 240 -87 l 235 -87 m 674 -87 q 663 -96 664 -87 q 669 -104 663 -100 l 674 -104 q 679 -99 679 -99 l 679 -93 l 674 -87 z "},"P":{"ha":781,"x_min":56,"x_max":725,"o":"m 458 1053 q 597 1029 538 1058 q 718 747 700 951 q 715 593 725 640 q 688 510 704 546 q 653 451 672 475 q 595 406 633 426 q 507 371 557 385 q 397 358 457 357 l 353 358 q 322 325 319 368 l 322 49 q 288 0 319 8 l 164 0 q 121 49 124 11 l 121 858 q 93 886 128 903 l 69 886 q 60 925 56 901 l 60 1026 q 88 1053 63 1047 l 458 1053 m 314 831 l 314 553 q 344 519 306 517 l 451 519 q 522 563 500 532 q 549 626 544 594 q 551 684 553 658 q 540 763 550 710 q 500 836 525 803 q 436 857 475 853 l 342 857 q 314 831 313 858 z "},"Q":{"ha":781,"x_min":51,"x_max":714,"o":"m 203 1057 l 569 1057 q 657 1005 631 1042 q 693 903 683 968 l 693 374 q 665 306 681 332 q 596 217 650 281 q 584 188 572 197 q 674 107 596 179 q 665 1 714 26 q 322 15 353 -14 l 214 61 q 51 321 56 96 l 51 899 q 92 1008 56 972 q 203 1057 129 1043 m 231 331 q 244 247 231 275 q 298 203 258 218 q 379 189 338 189 q 371 226 401 199 q 310 319 340 254 l 289 371 q 303 464 264 453 l 408 464 q 449 425 442 467 l 488 338 q 511 364 518 281 l 511 836 q 479 899 507 886 l 275 899 q 231 842 243 876 l 231 331 z "},"R":{"ha":781,"x_min":54,"x_max":714,"o":"m 119 1056 l 388 1056 l 560 1056 q 636 1022 614 1047 q 663 929 658 997 l 663 704 q 654 647 664 668 q 626 613 644 625 q 575 579 608 600 q 458 519 542 558 q 464 483 442 511 l 692 75 q 714 23 714 47 q 664 -1 714 -1 l 569 -1 q 522 28 538 3 l 308 428 q 293 486 286 449 l 293 621 q 336 669 285 669 l 431 669 q 486 719 488 664 l 486 863 q 421 903 476 908 l 275 903 q 247 868 243 910 l 247 44 q 219 -1 247 10 l 89 -1 q 57 44 54 4 l 57 992 q 68 1045 54 1032 q 119 1056 82 1058 z "},"S":{"ha":781,"x_min":-29,"x_max":808,"o":"m 89 331 l 215 331 q 251 269 246 325 l 260 235 q 298 203 269 214 q 383 190 326 192 q 476 204 440 189 q 525 261 513 219 q 475 381 539 335 q 243 525 425 417 q 124 647 181 564 q 83 767 86 725 q 89 849 81 808 q 115 919 97 890 q 181 1000 132 949 q 424 1057 254 1060 q 603 1006 517 1046 q 672 878 674 943 l 671 796 q 644 757 678 758 l 539 757 q 497 800 503 767 l 493 853 q 358 890 453 892 q 264 840 303 888 q 308 711 247 761 l 624 490 q 681 425 664 458 q 699 325 697 392 q 675 169 697 238 l 656 132 q 592 60 632 97 q 393 0 517 11 q 261 8 286 -1 q 211 30 236 18 q 165 58 186 42 q 103 121 143 75 q 57 225 61 186 q 51 281 53 264 q 58 311 50 297 q 89 331 65 325 m 253 -6 q 249 -10 250 -6 l 249 -78 q 253 -81 249 -81 l 260 -81 q 310 -43 310 -81 l 310 -39 q 278 -6 307 -6 l 253 -6 m 263 -15 q 297 -42 297 -15 q 271 -69 297 -69 l 261 -69 l 261 -18 l 263 -15 m 342 -25 q 318 -51 321 -25 q 342 -81 318 -81 l 350 -81 q 364 -75 364 -81 l 364 -74 l 361 -68 q 347 -71 357 -71 q 331 -54 331 -71 l 363 -54 q 367 -50 367 -54 l 367 -47 q 349 -25 363 -25 l 342 -25 m 382 -25 q 379 -28 379 -25 l 379 -78 q 382 -81 379 -81 l 389 -81 q 392 -78 392 -81 l 392 -54 q 403 -35 392 -39 q 413 -44 413 -35 l 413 -78 q 417 -81 413 -81 l 422 -81 q 425 -78 425 -81 l 425 -50 q 438 -35 425 -39 q 446 -44 446 -35 l 446 -78 q 450 -81 446 -81 l 457 -81 q 460 -78 460 -81 l 460 -49 q 444 -25 460 -25 l 436 -25 q 425 -35 425 -29 q 411 -25 419 -25 l 407 -25 q 392 -35 392 -28 l 390 -35 l 390 -25 l 382 -25 m 493 -25 q 471 -51 475 -25 l 471 -56 q 492 -81 472 -81 l 500 -81 q 524 -54 524 -76 l 524 -49 q 504 -25 519 -25 l 493 -25 m 332 -42 q 343 -33 333 -36 q 354 -44 354 -36 l 332 -44 l 332 -42 m 483 -56 q 499 -35 483 -35 q 511 -49 511 -37 l 511 -51 q 499 -69 511 -69 l 492 -69 q 483 -56 488 -69 m 393 -140 q 389 -143 392 -140 l 389 -219 q 393 -224 389 -224 l 399 -224 q 401 -219 401 -224 l 401 -197 l 404 -197 q 421 -224 413 -215 l 431 -224 l 433 -221 q 424 -207 429 -214 q 414 -192 419 -200 q 432 -169 432 -169 q 429 -167 432 -167 l 419 -167 l 401 -187 l 401 -143 q 399 -140 401 -140 l 393 -140 m 739 -140 q 735 -143 738 -140 l 735 -167 l 722 -167 q 699 -196 703 -167 q 715 -224 699 -224 l 721 -224 q 735 -212 735 -219 l 736 -212 l 736 -215 l 735 -218 q 739 -224 735 -224 l 744 -224 q 749 -219 749 -224 l 749 -143 q 744 -140 749 -140 l 739 -140 m 647 -147 q 638 -153 638 -147 l 638 -167 l 629 -167 q 626 -169 626 -167 l 626 -174 q 629 -176 626 -176 l 638 -176 l 638 -210 q 650 -224 638 -224 l 661 -224 q 664 -219 664 -224 l 664 -212 q 650 -208 650 -212 l 650 -176 l 661 -176 q 664 -174 664 -176 l 664 -169 q 661 -167 664 -167 l 650 -167 l 650 -150 q 647 -147 650 -147 m -25 -167 l -29 -168 q -10 -224 -12 -224 l 0 -224 q 11 -185 10 -200 l 13 -185 q 28 -224 24 -224 l 35 -224 q 57 -168 39 -224 l 53 -167 l 46 -167 l 43 -168 q 31 -204 32 -204 q 17 -167 22 -167 l 10 -167 q -4 -204 4 -167 l -6 -204 q -18 -167 -17 -167 l -25 -167 m 63 -167 l 60 -168 q 79 -224 72 -224 l 85 -224 q 99 -185 90 -224 l 101 -185 q 115 -224 110 -224 l 124 -224 q 143 -168 129 -224 l 140 -167 l 133 -167 q 121 -206 126 -167 l 118 -206 q 104 -167 110 -167 l 97 -167 q 83 -206 92 -167 l 82 -206 q 69 -167 74 -167 l 63 -167 m 149 -167 l 146 -168 q 165 -224 163 -222 l 174 -224 q 186 -186 178 -224 l 188 -186 q 203 -224 201 -224 l 211 -224 q 232 -168 215 -224 l 228 -167 l 222 -167 q 210 -204 215 -167 l 206 -204 q 193 -167 197 -167 l 185 -167 q 172 -204 181 -167 l 171 -204 q 158 -167 160 -167 l 149 -167 m 285 -167 q 267 -169 275 -167 q 269 -179 267 -174 q 283 -176 278 -176 l 286 -176 q 296 -186 296 -176 l 296 -189 l 294 -189 q 264 -208 264 -189 q 278 -224 264 -219 l 282 -224 q 297 -215 286 -224 q 300 -224 297 -224 l 306 -224 q 310 -219 310 -224 l 310 -183 q 293 -167 310 -169 l 285 -167 m 328 -167 q 325 -169 325 -167 l 325 -219 q 328 -224 325 -224 l 335 -224 q 338 -219 338 -224 l 338 -203 q 354 -176 338 -176 q 361 -187 361 -179 l 361 -219 q 364 -224 361 -224 l 368 -224 q 371 -219 371 -224 l 371 -179 q 358 -167 371 -167 l 351 -167 q 338 -175 346 -167 q 335 -167 338 -167 l 328 -167 m 461 -167 q 440 -192 444 -167 l 440 -199 q 465 -224 440 -219 l 468 -224 q 486 -218 486 -224 l 486 -212 l 483 -210 q 476 -212 479 -212 q 469 -212 472 -212 l 468 -212 q 453 -199 453 -212 l 453 -196 l 486 -196 l 489 -193 q 469 -167 489 -167 l 461 -167 m 550 -167 q 538 -172 538 -167 l 538 -176 l 539 -179 q 547 -177 544 -178 q 553 -176 550 -176 l 557 -176 q 567 -186 567 -176 l 567 -189 l 564 -189 q 533 -208 533 -189 l 533 -210 q 544 -224 533 -217 l 551 -224 q 567 -212 567 -219 l 568 -212 l 568 -224 l 576 -224 q 579 -219 579 -224 l 579 -186 q 563 -167 579 -167 l 550 -167 m 599 -167 q 596 -169 596 -167 l 596 -219 q 599 -224 596 -224 l 604 -224 q 608 -219 608 -224 l 608 -200 q 611 -183 608 -192 l 625 -175 l 625 -169 q 621 -167 625 -167 l 615 -167 q 608 -176 608 -171 l 607 -176 l 607 -175 l 608 -172 q 604 -167 608 -167 l 599 -167 m 783 -167 q 760 -197 760 -167 l 760 -199 q 783 -224 760 -219 l 792 -224 q 806 -217 806 -224 l 806 -212 l 804 -210 q 794 -212 797 -212 q 790 -212 792 -212 q 772 -197 772 -212 l 772 -196 l 804 -196 q 808 -192 808 -196 l 808 -186 q 790 -167 804 -167 l 783 -167 m 453 -186 q 467 -175 453 -179 q 476 -185 476 -179 l 476 -186 l 453 -186 m 774 -183 q 785 -175 776 -176 q 794 -186 794 -175 l 774 -186 l 774 -183 m 711 -196 q 726 -176 711 -176 l 735 -176 l 735 -193 q 722 -212 735 -208 q 711 -196 711 -212 m 500 -189 q 497 -192 497 -189 l 497 -196 q 500 -199 497 -199 l 521 -199 q 525 -196 525 -199 l 525 -192 q 521 -189 525 -189 l 500 -189 m 276 -203 q 294 -197 288 -197 l 296 -197 l 296 -199 q 285 -212 296 -212 l 276 -211 l 276 -203 m 547 -204 q 564 -197 547 -200 l 567 -197 l 567 -199 q 556 -212 567 -208 l 547 -211 l 547 -204 m 244 -207 q 238 -212 238 -211 l 238 -217 q 244 -224 242 -224 l 247 -224 q 254 -217 254 -217 l 254 -212 q 247 -207 250 -207 l 244 -207 m 683 -207 q 672 -215 674 -207 q 679 -224 672 -219 l 683 -224 q 689 -218 689 -218 l 689 -212 l 683 -207 z "},"T":{"ha":781,"x_min":51,"x_max":685,"o":"m 86 1058 l 650 1058 q 685 1028 679 1058 l 685 896 q 653 858 678 865 l 488 858 q 453 831 453 858 l 451 36 q 421 -1 450 0 l 310 -1 q 276 36 275 4 l 276 828 q 247 858 276 857 l 86 858 q 51 892 56 858 l 51 1028 q 86 1058 60 1058 z "},"U":{"ha":781,"x_min":-35,"x_max":803,"o":"m 222 1054 q 243 1008 250 1043 l 243 338 l 254 246 l 283 203 q 374 188 331 186 q 452 213 418 190 q 499 273 486 236 q 515 383 511 310 l 515 1019 q 546 1054 508 1057 l 667 1054 q 693 1008 692 1043 l 696 31 q 667 1 692 8 l 557 1 q 525 29 524 8 l 525 58 q 519 81 531 81 q 446 20 485 35 q 311 -1 407 6 l 231 -1 l 190 13 q 135 47 154 31 q 99 82 115 64 q 71 131 83 100 q 56 219 58 163 l 56 1011 q 83 1054 53 1050 l 222 1054 m 388 -32 q 383 -35 386 -32 l 383 -111 q 388 -115 383 -115 l 393 -115 q 396 -111 396 -115 l 396 -89 l 399 -89 q 415 -115 407 -107 l 425 -115 l 428 -112 q 419 -99 424 -106 q 408 -83 414 -92 q 426 -61 426 -61 q 424 -58 426 -58 l 414 -58 l 396 -79 l 396 -35 q 393 -32 396 -32 l 388 -32 m 733 -32 q 729 -35 732 -32 l 729 -58 l 717 -58 q 693 -87 697 -58 q 710 -115 693 -115 l 715 -115 q 729 -104 729 -111 l 731 -104 l 731 -107 l 729 -110 q 733 -115 729 -115 l 739 -115 q 743 -111 743 -115 l 743 -35 q 739 -32 743 -32 l 733 -32 m 642 -39 q 632 -44 632 -39 l 632 -58 l 624 -58 q 621 -61 621 -58 l 621 -65 q 624 -68 621 -68 l 632 -68 l 632 -101 q 644 -115 632 -115 l 656 -115 q 658 -111 658 -115 l 658 -104 q 644 -100 644 -104 l 644 -68 l 656 -68 q 658 -65 658 -68 l 658 -61 q 656 -58 658 -58 l 644 -58 l 644 -42 q 642 -39 644 -39 m -31 -58 l -35 -60 q -15 -115 -18 -115 l -6 -115 q 6 -76 4 -92 l 7 -76 q 22 -115 18 -115 l 29 -115 q 51 -60 33 -115 l 47 -58 l 40 -58 l 38 -60 q 25 -96 26 -96 q 11 -58 17 -58 l 4 -58 q -10 -96 -1 -58 l -11 -96 q -24 -58 -22 -58 l -31 -58 m 57 -58 l 54 -60 q 74 -115 67 -115 l 79 -115 q 93 -76 85 -115 l 96 -76 q 110 -115 104 -115 l 118 -115 q 138 -60 124 -115 l 135 -58 l 128 -58 q 115 -97 121 -58 l 113 -97 q 99 -58 104 -58 l 92 -58 q 78 -97 86 -58 l 76 -97 q 64 -58 68 -58 l 57 -58 m 143 -58 l 140 -60 q 160 -115 157 -114 l 168 -115 q 181 -78 172 -115 l 182 -78 q 197 -115 196 -115 l 206 -115 q 226 -60 210 -115 l 222 -58 l 217 -58 q 204 -96 210 -58 l 200 -96 q 188 -58 192 -58 l 179 -58 q 167 -96 175 -58 l 165 -96 q 153 -58 154 -58 l 143 -58 m 279 -58 q 261 -61 269 -58 q 264 -71 261 -65 q 278 -68 272 -68 l 281 -68 q 290 -78 290 -68 l 290 -81 l 289 -81 q 258 -100 258 -81 q 272 -115 258 -111 l 276 -115 q 292 -107 281 -115 q 294 -115 292 -115 l 300 -115 q 304 -111 304 -115 l 304 -75 q 288 -58 304 -61 l 279 -58 m 322 -58 q 319 -61 319 -58 l 319 -111 q 322 -115 319 -115 l 329 -115 q 332 -111 332 -115 l 332 -94 q 349 -68 332 -68 q 356 -79 356 -71 l 356 -111 q 358 -115 356 -115 l 363 -115 q 365 -111 365 -115 l 365 -71 q 353 -58 365 -58 l 346 -58 q 332 -67 340 -58 q 329 -58 332 -58 l 322 -58 m 456 -58 q 435 -83 439 -58 l 435 -90 q 460 -115 435 -111 l 463 -115 q 481 -110 481 -115 l 481 -104 l 478 -101 q 470 -104 474 -104 q 464 -104 467 -104 l 463 -104 q 447 -90 447 -104 l 447 -87 l 481 -87 l 483 -85 q 464 -58 483 -58 l 456 -58 m 544 -58 q 532 -64 532 -58 l 532 -68 l 533 -71 q 542 -69 539 -69 q 547 -68 544 -68 l 551 -68 q 561 -78 561 -68 l 561 -81 l 558 -81 q 528 -100 528 -81 l 528 -101 q 539 -115 528 -108 l 546 -115 q 561 -104 561 -111 l 563 -104 l 563 -115 l 571 -115 q 574 -111 574 -115 l 574 -78 q 557 -58 574 -58 l 544 -58 m 593 -58 q 590 -61 590 -58 l 590 -111 q 593 -115 590 -115 l 599 -115 q 603 -111 603 -115 l 603 -92 q 606 -75 603 -83 l 619 -67 l 619 -61 q 615 -58 619 -58 l 610 -58 q 603 -68 603 -62 l 601 -68 l 601 -67 l 603 -64 q 599 -58 603 -58 l 593 -58 m 778 -58 q 754 -89 754 -58 l 754 -90 q 778 -115 754 -111 l 786 -115 q 800 -108 800 -115 l 800 -104 l 799 -101 q 789 -104 792 -104 q 785 -104 786 -104 q 767 -89 767 -104 l 767 -87 l 799 -87 q 803 -83 803 -87 l 803 -78 q 785 -58 799 -58 l 778 -58 m 447 -78 q 461 -67 447 -71 q 471 -76 471 -71 l 471 -78 l 447 -78 m 768 -75 q 779 -67 771 -68 q 789 -78 789 -67 l 768 -78 l 768 -75 m 706 -87 q 721 -68 706 -68 l 729 -68 l 729 -85 q 717 -104 729 -100 q 706 -87 706 -104 m 494 -81 q 492 -83 492 -81 l 492 -87 q 494 -90 492 -90 l 515 -90 q 519 -87 519 -90 l 519 -83 q 515 -81 519 -81 l 494 -81 m 271 -94 q 289 -89 282 -89 l 290 -89 l 290 -90 q 279 -104 290 -104 l 271 -103 l 271 -94 m 542 -96 q 558 -89 542 -92 l 561 -89 l 561 -90 q 550 -104 561 -100 l 542 -103 l 542 -96 m 239 -99 q 232 -104 232 -103 l 232 -108 q 239 -115 236 -115 l 242 -115 q 249 -108 249 -108 l 249 -104 q 242 -99 244 -99 l 239 -99 m 678 -99 q 667 -107 668 -99 q 674 -115 667 -111 l 678 -115 q 683 -110 683 -110 l 683 -104 l 678 -99 z "},"V":{"ha":781,"x_min":50,"x_max":717,"o":"m 76 1058 l 189 1058 q 232 1028 218 1054 l 358 311 q 411 311 386 210 l 540 1024 q 575 1058 544 1054 l 690 1058 q 717 1019 710 1053 l 507 47 q 449 -3 490 10 l 325 -3 q 263 44 283 8 l 53 1019 q 76 1058 50 1046 z "},"W":{"ha":781,"x_min":50,"x_max":683,"o":"m 175 1054 q 204 1025 204 1057 l 250 468 q 281 464 258 364 l 317 619 q 408 619 360 657 l 435 468 q 475 465 447 360 l 539 1013 q 560 1054 536 1047 l 663 1054 q 683 1010 682 1047 l 575 40 q 543 -3 571 6 l 456 -3 q 421 38 425 3 l 375 264 q 346 264 358 371 l 300 36 q 261 -3 289 6 l 175 -3 q 146 38 147 8 l 53 1014 q 81 1054 50 1047 l 175 1054 z "},"X":{"ha":781,"x_min":50,"x_max":713,"o":"m 186 1057 q 228 1035 224 1061 l 363 776 q 414 776 389 694 l 525 1031 q 574 1057 539 1054 l 667 1057 q 686 1017 690 1047 l 478 592 q 482 536 467 560 l 710 42 q 664 -1 713 6 l 594 -1 q 553 32 558 -1 l 403 385 q 364 385 385 435 l 207 31 q 165 -1 196 1 l 92 -1 q 50 53 54 8 l 282 532 q 285 592 297 558 l 72 1019 q 89 1057 54 1047 l 186 1057 z "},"Y":{"ha":781,"x_min":42,"x_max":692,"o":"m 149 1054 q 203 1032 181 1057 l 333 553 q 388 554 358 440 l 525 1035 q 569 1057 544 1058 l 654 1057 q 675 1019 692 1053 q 503 445 526 497 q 436 336 479 393 l 436 47 q 401 -3 429 10 l 315 -3 q 276 47 276 13 l 276 336 q 211 442 231 393 q 56 1014 192 492 q 67 1054 42 1053 l 149 1054 z "},"Z":{"ha":781,"x_min":47,"x_max":692,"o":"m 153 1058 l 614 1058 q 643 1021 632 1053 l 643 851 q 619 782 646 814 l 279 231 q 279 167 242 186 l 658 167 q 686 132 692 174 l 686 36 q 617 0 685 -6 l 78 0 q 53 53 53 19 l 53 146 q 78 242 49 208 l 443 849 q 397 886 432 888 l 88 886 q 47 922 58 890 l 47 1025 q 86 1058 53 1058 l 153 1058 z "},"a":{"ha":756,"x_min":-39,"x_max":799,"o":"m 282 408 q 325 381 279 381 l 431 382 q 460 410 476 375 q 425 611 442 508 q 388 788 408 714 q 360 788 376 819 q 313 575 325 642 q 282 408 301 508 m 314 1054 l 463 1054 q 514 1022 506 1058 l 586 676 q 729 36 692 201 l 715 3 l 626 0 l 549 4 l 540 42 q 505 197 508 182 q 475 214 501 213 l 271 214 q 241 194 244 214 q 214 14 238 174 l 181 0 l 68 0 q 31 32 31 6 l 69 197 l 185 742 l 242 1021 q 314 1054 253 1058 m 243 92 q 239 88 240 92 l 239 19 q 243 17 239 17 l 250 17 q 300 54 300 17 l 300 58 q 268 92 297 92 l 243 92 m 253 82 q 288 56 288 82 q 261 28 288 28 l 251 28 l 251 79 l 253 82 m 332 72 q 308 46 311 72 q 332 17 308 17 l 340 17 q 354 22 354 17 l 354 24 l 351 29 q 338 26 347 26 q 321 43 321 26 l 353 43 q 357 47 357 43 l 357 50 q 339 72 353 72 l 332 72 m 372 72 q 369 69 369 72 l 369 19 q 372 17 369 17 l 379 17 q 382 19 382 17 l 382 43 q 393 63 382 58 q 403 53 403 63 l 403 19 q 407 17 403 17 l 413 17 q 415 19 415 17 l 415 47 q 428 63 415 58 q 436 53 436 63 l 436 19 q 440 17 436 17 l 447 17 q 450 19 450 17 l 450 49 q 435 72 450 72 l 426 72 q 415 63 415 68 q 401 72 410 72 l 397 72 q 382 63 382 69 l 381 63 l 381 72 l 372 72 m 483 72 q 461 46 465 72 l 461 42 q 482 17 463 17 l 490 17 q 514 43 514 21 l 514 49 q 494 72 510 72 l 483 72 m 322 56 q 333 64 324 61 q 344 53 344 61 l 322 53 l 322 56 m 474 42 q 489 63 474 63 q 501 49 501 60 l 501 46 q 489 28 501 28 l 482 28 q 474 42 478 28 m 383 -43 q 379 -46 382 -43 l 379 -122 q 383 -126 379 -126 l 389 -126 q 392 -122 392 -126 l 392 -100 l 394 -100 q 411 -126 403 -118 l 421 -126 l 424 -124 q 415 -110 419 -117 q 404 -94 410 -103 q 422 -72 422 -72 q 419 -69 422 -69 l 410 -69 l 392 -90 l 392 -46 q 389 -43 392 -43 l 383 -43 m 729 -43 q 725 -46 728 -43 l 725 -69 l 713 -69 q 689 -99 693 -69 q 706 -126 689 -126 l 711 -126 q 725 -115 725 -122 l 726 -115 l 726 -118 l 725 -121 q 729 -126 725 -126 l 735 -126 q 739 -122 739 -126 l 739 -46 q 735 -43 739 -43 l 729 -43 m 638 -50 q 628 -56 628 -50 l 628 -69 l 619 -69 q 617 -72 617 -69 l 617 -76 q 619 -79 617 -79 l 628 -79 l 628 -112 q 640 -126 628 -126 l 651 -126 q 654 -122 654 -126 l 654 -115 q 640 -111 640 -115 l 640 -79 l 651 -79 q 654 -76 654 -79 l 654 -72 q 651 -69 654 -69 l 640 -69 l 640 -53 q 638 -50 640 -50 m -35 -69 l -39 -71 q -19 -126 -22 -126 l -10 -126 q 1 -87 0 -103 l 3 -87 q 18 -126 14 -126 l 25 -126 q 47 -71 29 -126 l 43 -69 l 36 -69 l 33 -71 q 21 -107 22 -107 q 7 -69 13 -69 l 0 -69 q -14 -107 -6 -69 l -15 -107 q -28 -69 -26 -69 l -35 -69 m 53 -69 l 50 -71 q 69 -126 63 -126 l 75 -126 q 89 -87 81 -126 l 92 -87 q 106 -126 100 -126 l 114 -126 q 133 -71 119 -126 l 131 -69 l 124 -69 q 111 -108 117 -69 l 108 -108 q 94 -69 100 -69 l 88 -69 q 74 -108 82 -69 l 72 -108 q 60 -69 64 -69 l 53 -69 m 139 -69 l 136 -71 q 156 -126 153 -125 l 164 -126 q 176 -89 168 -126 l 178 -89 q 193 -126 192 -126 l 201 -126 q 222 -71 206 -126 l 218 -69 l 213 -69 q 200 -107 206 -69 l 196 -107 q 183 -69 188 -69 l 175 -69 q 163 -107 171 -69 l 161 -107 q 149 -69 150 -69 l 139 -69 m 275 -69 q 257 -72 265 -69 q 260 -82 257 -76 q 274 -79 268 -79 l 276 -79 q 286 -89 286 -79 l 286 -92 l 285 -92 q 254 -111 254 -92 q 268 -126 254 -122 l 272 -126 q 288 -118 276 -126 q 290 -126 288 -126 l 296 -126 q 300 -122 300 -126 l 300 -86 q 283 -69 300 -72 l 275 -69 m 318 -69 q 315 -72 315 -69 l 315 -122 q 318 -126 315 -126 l 325 -126 q 328 -122 328 -126 l 328 -106 q 344 -79 328 -79 q 351 -90 351 -82 l 351 -122 q 354 -126 351 -126 l 358 -126 q 361 -122 361 -126 l 361 -82 q 349 -69 361 -69 l 342 -69 q 328 -78 336 -69 q 325 -69 328 -69 l 318 -69 m 451 -69 q 431 -94 435 -69 l 431 -101 q 456 -126 431 -122 l 458 -126 q 476 -121 476 -126 l 476 -115 l 474 -112 q 466 -115 469 -115 q 460 -115 463 -115 l 458 -115 q 443 -101 443 -115 l 443 -99 l 476 -99 l 479 -96 q 460 -69 479 -69 l 451 -69 m 540 -69 q 528 -75 528 -69 l 528 -79 l 529 -82 q 538 -80 535 -81 q 543 -79 540 -79 l 547 -79 q 557 -89 557 -79 l 557 -92 l 554 -92 q 524 -111 524 -92 l 524 -112 q 535 -126 524 -119 l 542 -126 q 557 -115 557 -122 l 558 -115 l 558 -126 l 567 -126 q 569 -122 569 -126 l 569 -89 q 553 -69 569 -69 l 540 -69 m 589 -69 q 586 -72 586 -69 l 586 -122 q 589 -126 586 -126 l 594 -126 q 599 -122 599 -126 l 599 -103 q 601 -86 599 -94 l 615 -78 l 615 -72 q 611 -69 615 -69 l 606 -69 q 599 -79 599 -74 l 597 -79 l 597 -78 l 599 -75 q 594 -69 599 -69 l 589 -69 m 774 -69 q 750 -100 750 -69 l 750 -101 q 774 -126 750 -122 l 782 -126 q 796 -119 796 -126 l 796 -115 l 794 -112 q 785 -115 788 -115 q 781 -115 782 -115 q 763 -100 763 -115 l 763 -99 l 794 -99 q 799 -94 799 -99 l 799 -89 q 781 -69 794 -69 l 774 -69 m 443 -89 q 457 -78 443 -82 q 467 -87 467 -82 l 467 -89 l 443 -89 m 764 -86 q 775 -78 767 -79 q 785 -89 785 -78 l 764 -89 l 764 -86 m 701 -99 q 717 -79 701 -79 l 725 -79 l 725 -96 q 713 -115 725 -111 q 701 -99 701 -115 m 490 -92 q 488 -94 488 -92 l 488 -99 q 490 -101 488 -101 l 511 -101 q 515 -99 515 -101 l 515 -94 q 511 -92 515 -92 l 490 -92 m 267 -106 q 285 -100 278 -100 l 286 -100 l 286 -101 q 275 -115 286 -115 l 267 -114 l 267 -106 m 538 -107 q 554 -100 538 -103 l 557 -100 l 557 -101 q 546 -115 557 -111 l 538 -114 l 538 -107 m 235 -110 q 228 -115 228 -114 l 228 -119 q 235 -126 232 -126 l 238 -126 q 244 -119 244 -119 l 244 -115 q 238 -110 240 -110 l 235 -110 m 674 -110 q 663 -118 664 -110 q 669 -126 663 -122 l 674 -126 q 679 -121 679 -121 l 679 -115 l 674 -110 z "},"b":{"ha":756,"x_min":31,"x_max":724,"o":"m 108 1056 l 458 1056 q 603 1019 558 1056 q 672 931 647 982 q 701 840 697 881 q 702 771 706 800 q 686 704 699 742 q 654 640 674 667 q 596 592 635 613 q 603 564 553 578 q 690 466 656 539 q 724 338 724 393 q 719 226 724 282 q 686 119 714 169 q 640 52 658 69 q 587 19 621 35 q 396 1 553 3 q 65 1 214 -1 q 32 39 31 6 l 33 1028 q 108 1056 36 1060 m 229 875 l 229 690 q 307 660 236 653 l 419 660 q 501 701 481 671 q 528 765 521 731 q 516 833 535 799 q 472 885 497 868 q 404 901 446 901 l 289 901 q 229 875 222 901 m 225 475 l 225 232 q 278 197 232 200 l 436 197 q 536 233 517 204 q 556 304 556 263 q 554 367 556 346 q 544 414 553 389 q 512 463 535 439 q 435 508 489 486 l 285 508 q 225 475 246 519 z "},"c":{"ha":781,"x_min":40,"x_max":735,"o":"m 204 1060 l 576 1061 q 657 958 667 1032 l 657 890 l 657 753 q 589 703 636 706 l 508 700 q 457 758 461 719 l 457 850 q 436 883 461 883 l 304 883 q 226 826 222 879 l 226 317 q 230 266 226 283 q 251 223 233 249 q 364 188 269 197 q 475 201 426 186 q 524 356 528 238 q 578 390 531 392 l 714 390 q 735 342 735 381 q 703 158 735 251 q 634 58 675 101 q 542 0 593 15 l 393 0 l 268 0 q 108 61 161 8 q 47 172 40 119 l 47 890 q 51 989 42 968 q 81 1023 61 1010 q 127 1047 101 1036 q 204 1060 153 1058 z "},"d":{"ha":781,"x_min":60,"x_max":732,"o":"m 133 1051 l 536 1051 q 625 1028 589 1050 q 693 968 661 1006 q 732 839 725 931 l 732 192 q 676 65 711 92 q 608 23 642 39 q 522 0 575 7 l 119 0 q 67 50 71 4 l 67 182 q 90 204 69 206 l 117 204 q 133 258 138 208 l 133 839 q 117 878 131 863 l 86 878 q 67 908 60 881 l 67 1031 q 133 1051 78 1054 m 319 232 q 336 196 315 208 l 483 196 q 542 285 536 213 l 542 810 q 497 892 550 865 l 361 892 q 319 858 319 904 l 319 232 z "},"e":{"ha":781,"x_min":24,"x_max":696,"o":"m 75 1058 l 597 1058 q 672 1029 665 1061 l 672 897 q 636 876 668 872 l 272 876 q 231 847 222 879 l 229 711 q 269 692 226 688 l 515 692 q 558 656 561 694 l 558 558 q 514 524 553 524 l 240 524 q 214 496 214 521 l 214 239 q 267 199 217 199 l 665 199 q 693 158 696 194 l 693 44 q 636 3 693 -7 l 110 3 q 24 25 36 -3 l 24 1018 q 75 1058 38 1047 m 243 113 q 239 108 240 113 l 239 40 q 243 38 239 38 l 250 38 q 300 75 300 38 l 300 79 q 268 113 297 113 l 243 113 m 253 103 q 288 76 288 103 q 261 49 288 49 l 251 49 l 251 100 l 253 103 m 332 93 q 308 67 311 93 q 332 38 308 38 l 340 38 q 354 43 354 38 l 354 44 l 351 50 q 338 47 347 47 q 321 64 321 47 l 353 64 q 357 68 357 64 l 357 71 q 339 93 353 93 l 332 93 m 372 93 q 369 90 369 93 l 369 40 q 372 38 369 38 l 379 38 q 382 40 382 38 l 382 64 q 393 83 382 79 q 403 74 403 83 l 403 40 q 407 38 403 38 l 413 38 q 415 40 415 38 l 415 68 q 428 83 415 79 q 436 74 436 83 l 436 40 q 440 38 436 38 l 447 38 q 450 40 450 38 l 450 69 q 435 93 450 93 l 426 93 q 415 83 415 89 q 401 93 410 93 l 397 93 q 382 83 382 90 l 381 83 l 381 93 l 372 93 m 483 93 q 461 67 465 93 l 461 63 q 482 38 463 38 l 490 38 q 514 64 514 42 l 514 69 q 494 93 510 93 l 483 93 m 322 76 q 333 85 324 82 q 344 74 344 82 l 322 74 l 322 76 m 474 63 q 489 83 474 83 q 501 69 501 81 l 501 67 q 489 49 501 49 l 482 49 q 474 63 478 49 z "},"f":{"ha":781,"x_min":36,"x_max":715,"o":"m 244 1058 l 679 1058 q 715 1022 711 1053 l 715 906 q 689 871 714 874 l 253 871 q 233 836 226 864 l 233 564 q 279 532 242 532 l 592 532 q 631 507 622 533 l 631 376 q 590 350 626 350 l 263 350 q 242 294 238 343 l 242 38 q 217 0 242 0 l 71 0 q 42 46 36 11 l 42 935 q 72 1001 49 972 q 111 1039 94 1029 q 165 1053 128 1049 q 244 1058 201 1058 z "},"g":{"ha":781,"x_min":42,"x_max":718,"o":"m 242 1060 l 411 1060 l 569 1060 q 660 1023 618 1054 q 696 906 703 992 l 696 800 q 664 760 690 764 l 547 761 q 519 781 524 760 q 486 899 525 883 q 272 892 376 910 q 242 818 247 876 l 242 246 q 358 185 258 182 l 451 186 q 508 279 497 211 q 488 407 522 394 l 454 408 l 356 408 q 310 438 314 403 l 310 547 q 353 586 313 581 l 660 586 q 718 549 704 582 l 718 31 q 683 0 714 3 l 564 0 q 547 43 544 17 l 549 92 q 526 63 536 75 q 484 26 515 50 q 375 0 453 3 l 219 0 q 110 31 144 6 q 58 85 75 56 q 47 185 42 114 l 47 928 q 118 1023 81 992 q 242 1060 156 1054 z "},"h":{"ha":781,"x_min":35,"x_max":715,"o":"m 75 1058 l 217 1058 q 247 1036 249 1064 l 247 710 q 279 675 247 672 l 490 674 q 519 697 519 671 l 519 1033 q 557 1058 519 1057 l 686 1058 q 715 1021 714 1054 l 715 40 q 683 0 715 0 l 542 0 q 525 44 519 11 l 525 442 q 492 469 519 469 l 286 471 q 247 447 258 469 l 247 39 q 219 0 247 7 l 78 0 q 38 26 35 3 l 38 1029 q 75 1058 40 1058 z "},"i":{"ha":640,"x_min":47,"x_max":592,"o":"m 47 169 q 128 194 71 200 l 210 194 q 231 218 229 194 l 231 847 q 199 865 229 864 q 156 886 160 856 l 156 1032 q 190 1058 164 1058 l 457 1058 q 481 1026 486 1053 l 481 903 q 464 865 479 876 l 422 865 q 414 846 411 857 l 414 214 q 433 197 414 199 l 564 197 q 592 163 592 194 l 592 36 q 554 0 586 3 l 81 0 q 47 42 53 8 l 47 169 m 206 110 q 201 106 203 110 l 201 38 q 206 35 201 35 l 213 35 q 263 72 263 35 l 263 76 q 231 110 260 110 l 206 110 m 215 100 q 250 74 250 100 q 224 46 250 46 l 214 46 l 214 97 l 215 100 m 294 90 q 271 64 274 90 q 294 35 271 35 l 303 35 q 317 40 317 35 l 317 42 l 314 47 q 300 44 310 44 q 283 61 283 44 l 315 61 q 319 65 319 61 l 319 68 q 301 90 315 90 l 294 90 m 335 90 q 332 88 332 90 l 332 38 q 335 35 332 35 l 342 35 q 344 38 344 35 l 344 61 q 356 81 344 76 q 365 71 365 81 l 365 38 q 369 35 365 35 l 375 35 q 378 38 378 35 l 378 65 q 390 81 378 76 q 399 71 399 81 l 399 38 q 403 35 399 35 l 410 35 q 413 38 413 35 l 413 67 q 397 90 413 90 l 389 90 q 378 81 378 86 q 364 90 372 90 l 360 90 q 344 81 344 88 l 343 81 l 343 90 l 335 90 m 446 90 q 424 64 428 90 l 424 60 q 444 35 425 35 l 453 35 q 476 61 476 39 l 476 67 q 457 90 472 90 l 446 90 m 285 74 q 296 82 286 79 q 307 71 307 79 l 285 71 l 285 74 m 436 60 q 451 81 436 81 q 464 67 464 78 l 464 64 q 451 46 464 46 l 444 46 q 436 60 440 46 z "},"j":{"ha":781,"x_min":40,"x_max":689,"o":"m 64 413 l 206 411 q 226 367 229 393 l 226 231 q 241 192 229 203 q 283 182 253 182 l 401 181 q 470 185 453 182 q 494 201 488 189 q 497 256 500 213 l 497 879 q 465 890 503 899 l 256 890 q 225 931 225 897 l 222 1029 q 260 1060 226 1060 l 608 1060 q 681 953 689 1053 l 681 224 q 649 71 676 103 q 603 23 622 39 q 515 0 583 7 l 208 -1 q 103 29 138 11 q 40 117 68 47 l 40 379 q 64 413 44 407 z "},"k":{"ha":781,"x_min":47,"x_max":746,"o":"m 74 1054 l 213 1053 q 219 1026 225 1050 l 219 669 q 247 675 225 640 l 528 1043 q 561 1054 538 1058 l 718 1054 q 714 1015 742 1046 l 375 578 l 711 36 q 693 0 746 -11 l 579 0 q 511 32 531 -7 l 281 413 q 253 406 269 438 l 213 344 l 213 42 q 179 0 210 10 l 83 0 q 47 42 49 6 l 47 1025 q 74 1054 51 1050 z "},"l":{"ha":781,"x_min":49,"x_max":725,"o":"m 86 1053 l 176 1053 q 251 1033 247 1057 l 251 264 q 268 224 247 228 l 500 224 q 522 249 531 221 l 522 361 q 569 386 518 392 l 679 386 q 725 365 719 392 l 725 50 q 647 0 708 0 l 75 0 q 49 42 49 6 l 49 1036 q 86 1053 49 1061 m 243 107 q 239 103 240 107 l 239 35 q 243 32 239 32 l 250 32 q 300 69 300 32 l 300 74 q 268 107 297 107 l 243 107 m 253 97 q 288 71 288 97 q 261 43 288 43 l 251 43 l 251 94 l 253 97 m 332 88 q 308 61 311 88 q 332 32 308 32 l 340 32 q 354 38 354 32 l 354 39 l 351 44 q 338 42 347 42 q 321 58 321 42 l 353 58 q 357 63 357 58 l 357 65 q 339 88 353 88 l 332 88 m 372 88 q 369 85 369 88 l 369 35 q 372 32 369 32 l 379 32 q 382 35 382 32 l 382 58 q 393 78 382 74 q 403 68 403 78 l 403 35 q 407 32 403 32 l 413 32 q 415 35 415 32 l 415 63 q 428 78 415 74 q 436 68 436 78 l 436 35 q 440 32 436 32 l 447 32 q 450 35 450 32 l 450 64 q 435 88 450 88 l 426 88 q 415 78 415 83 q 401 88 410 88 l 397 88 q 382 78 382 85 l 381 78 l 381 88 l 372 88 m 483 88 q 461 61 465 88 l 461 57 q 482 32 463 32 l 490 32 q 514 58 514 36 l 514 64 q 494 88 510 88 l 483 88 m 322 71 q 333 79 324 76 q 344 68 344 76 l 322 68 l 322 71 m 474 57 q 489 78 474 78 q 501 64 501 75 l 501 61 q 489 43 501 43 l 482 43 q 474 57 478 43 z "},"m":{"ha":781,"x_min":42,"x_max":747,"o":"m 94 1054 l 222 1053 q 249 1022 240 1042 l 383 644 q 411 644 399 608 l 553 1029 q 588 1049 564 1053 l 689 1049 q 743 1031 732 1053 l 743 49 q 711 -1 747 -11 l 596 -1 q 558 25 564 -1 l 558 644 q 547 656 558 683 l 440 353 q 365 353 401 299 l 247 651 q 231 640 229 686 l 231 25 q 183 -1 219 -1 l 75 -1 q 47 53 42 13 l 47 1038 q 94 1054 56 1058 z "},"n":{"ha":781,"x_min":51,"x_max":719,"o":"m 83 1049 l 164 1049 q 203 1032 192 1047 l 507 508 q 525 532 525 499 l 525 1031 q 557 1053 536 1053 l 686 1053 q 718 1008 715 1060 l 718 39 q 683 0 719 0 l 553 0 q 525 31 522 -3 l 525 85 q 519 142 526 121 l 238 628 q 219 628 219 651 l 219 36 q 201 0 225 4 l 78 0 q 51 25 58 6 l 51 1017 q 83 1049 56 1049 z "},"o":{"ha":781,"x_min":53,"x_max":692,"o":"m 383 1061 q 472 1036 442 1053 q 541 987 503 1019 q 604 917 579 954 q 647 831 629 879 q 675 735 665 783 q 685 628 685 686 q 689 465 686 571 q 682 303 692 358 q 663 210 672 247 q 638 142 653 174 q 596 81 622 110 q 546 34 569 53 q 490 8 522 15 q 420 -2 457 0 q 338 -2 383 -4 q 260 15 292 0 q 197 53 229 29 q 133 129 164 76 q 80 245 101 182 q 58 347 58 308 q 56 455 58 385 q 54 599 53 525 q 69 726 56 672 q 98 817 83 781 q 150 901 113 853 q 210 974 188 950 q 282 1027 233 997 q 383 1061 331 1057 m 236 708 q 226 633 229 671 q 221 517 222 594 q 223 391 219 440 q 240 303 226 342 q 283 234 253 264 q 383 203 313 204 q 478 233 454 203 q 515 305 503 263 q 530 401 526 347 q 530 556 533 456 q 519 697 526 656 q 495 770 511 738 q 449 839 479 803 q 379 879 418 875 q 287 813 329 876 q 236 708 244 749 m 243 100 q 239 96 240 100 l 239 28 q 243 25 239 25 l 250 25 q 300 63 300 25 l 300 67 q 268 100 297 100 l 243 100 m 253 90 q 288 64 288 90 q 261 36 288 36 l 251 36 l 251 88 l 253 90 m 332 81 q 308 54 311 81 q 332 25 308 25 l 340 25 q 354 31 354 25 l 354 32 l 351 38 q 338 35 347 35 q 321 51 321 35 l 353 51 q 357 56 357 51 l 357 58 q 339 81 353 81 l 332 81 m 372 81 q 369 78 369 81 l 369 28 q 372 25 369 25 l 379 25 q 382 28 382 25 l 382 51 q 393 71 382 67 q 403 61 403 71 l 403 28 q 407 25 403 25 l 413 25 q 415 28 415 25 l 415 56 q 428 71 415 67 q 436 61 436 71 l 436 28 q 440 25 436 25 l 447 25 q 450 28 450 25 l 450 57 q 435 81 450 81 l 426 81 q 415 71 415 76 q 401 81 410 81 l 397 81 q 382 71 382 78 l 381 71 l 381 81 l 372 81 m 483 81 q 461 54 465 81 l 461 50 q 482 25 463 25 l 490 25 q 514 51 514 29 l 514 57 q 494 81 510 81 l 483 81 m 322 64 q 333 72 324 69 q 344 61 344 69 l 322 61 l 322 64 m 474 50 q 489 71 474 71 q 501 57 501 68 l 501 54 q 489 36 501 36 l 482 36 q 474 50 478 36 z "},"p":{"ha":781,"x_min":56,"x_max":725,"o":"m 458 1053 q 597 1029 538 1058 q 718 747 700 951 q 715 593 725 640 q 688 510 704 546 q 653 451 672 475 q 595 406 633 426 q 507 371 557 385 q 397 358 457 357 l 353 358 q 322 325 319 368 l 322 49 q 288 0 319 8 l 164 0 q 121 49 124 11 l 121 858 q 93 886 128 903 l 69 886 q 60 925 56 901 l 60 1026 q 88 1053 63 1047 l 458 1053 m 314 831 l 314 553 q 344 519 306 517 l 451 519 q 522 563 500 532 q 549 626 544 594 q 551 684 553 658 q 540 763 550 710 q 500 836 525 803 q 436 857 475 853 l 342 857 q 314 831 313 858 z "},"q":{"ha":781,"x_min":51,"x_max":714,"o":"m 203 1057 l 569 1057 q 657 1005 631 1042 q 693 903 683 968 l 693 374 q 665 306 681 332 q 596 217 650 281 q 584 188 572 197 q 674 107 596 179 q 665 1 714 26 q 322 15 353 -14 l 214 61 q 51 321 56 96 l 51 899 q 92 1008 56 972 q 203 1057 129 1043 m 231 331 q 244 247 231 275 q 298 203 258 218 q 379 189 338 189 q 371 226 401 199 q 310 319 340 254 l 289 371 q 303 464 264 453 l 408 464 q 449 425 442 467 l 488 338 q 511 364 518 281 l 511 836 q 479 899 507 886 l 275 899 q 231 842 243 876 l 231 331 z "},"r":{"ha":781,"x_min":54,"x_max":714,"o":"m 119 1056 l 388 1056 l 560 1056 q 636 1022 614 1047 q 663 929 658 997 l 663 704 q 654 647 664 668 q 626 613 644 625 q 575 579 608 600 q 458 519 542 558 q 464 483 442 511 l 692 75 q 714 23 714 47 q 664 -1 714 -1 l 569 -1 q 522 28 538 3 l 308 428 q 293 486 286 449 l 293 621 q 336 669 285 669 l 431 669 q 486 719 488 664 l 486 863 q 421 903 476 908 l 275 903 q 247 868 243 910 l 247 44 q 219 -1 247 10 l 89 -1 q 57 44 54 4 l 57 992 q 68 1045 54 1032 q 119 1056 82 1058 z "},"s":{"ha":781,"x_min":50,"x_max":699,"o":"m 89 331 l 215 331 q 251 269 246 325 l 260 235 q 298 203 269 214 q 383 190 326 192 q 476 204 440 189 q 525 261 513 219 q 475 381 539 335 q 243 525 425 417 q 124 647 181 564 q 83 767 86 725 q 89 849 81 808 q 115 919 97 890 q 181 1000 132 949 q 424 1057 254 1060 q 603 1006 517 1046 q 672 878 674 943 l 671 796 q 644 757 678 758 l 539 757 q 497 800 503 767 l 493 853 q 358 890 453 892 q 264 840 303 888 q 308 711 247 761 l 624 490 q 681 425 664 458 q 699 325 697 392 q 675 169 697 238 l 656 132 q 592 60 632 97 q 393 0 517 11 q 261 8 286 -1 q 211 30 236 18 q 165 58 186 42 q 103 121 143 75 q 57 225 61 186 q 51 281 53 264 q 58 311 50 297 q 89 331 65 325 m 243 111 q 239 107 240 111 l 239 39 q 243 36 239 36 l 250 36 q 300 74 300 36 l 300 78 q 268 111 297 111 l 243 111 m 253 101 q 288 75 288 101 q 261 47 288 47 l 251 47 l 251 99 l 253 101 m 332 92 q 308 65 311 92 q 332 36 308 36 l 340 36 q 354 42 354 36 l 354 43 l 351 49 q 338 46 347 46 q 321 63 321 46 l 353 63 q 357 67 357 63 l 357 69 q 339 92 353 92 l 332 92 m 372 92 q 369 89 369 92 l 369 39 q 372 36 369 36 l 379 36 q 382 39 382 36 l 382 63 q 393 82 382 78 q 403 72 403 82 l 403 39 q 407 36 403 36 l 413 36 q 415 39 415 36 l 415 67 q 428 82 415 78 q 436 72 436 82 l 436 39 q 440 36 436 36 l 447 36 q 450 39 450 36 l 450 68 q 435 92 450 92 l 426 92 q 415 82 415 88 q 401 92 410 92 l 397 92 q 382 82 382 89 l 381 82 l 381 92 l 372 92 m 483 92 q 461 65 465 92 l 461 61 q 482 36 463 36 l 490 36 q 514 63 514 40 l 514 68 q 494 92 510 92 l 483 92 m 322 75 q 333 83 324 81 q 344 72 344 81 l 322 72 l 322 75 m 474 61 q 489 82 474 82 q 501 68 501 79 l 501 65 q 489 47 501 47 l 482 47 q 474 61 478 47 z "},"t":{"ha":781,"x_min":51,"x_max":685,"o":"m 86 1058 l 650 1058 q 685 1028 679 1058 l 685 896 q 653 858 678 865 l 488 858 q 453 831 453 858 l 451 36 q 421 -1 450 0 l 310 -1 q 276 36 275 4 l 276 828 q 247 858 276 857 l 86 858 q 51 892 56 858 l 51 1028 q 86 1058 60 1058 z "},"u":{"ha":781,"x_min":53,"x_max":696,"o":"m 222 1054 q 243 1008 250 1043 l 243 338 l 254 246 l 283 203 q 374 188 331 186 q 452 213 418 190 q 499 273 486 236 q 515 383 511 310 l 515 1019 q 546 1054 508 1057 l 667 1054 q 693 1008 692 1043 l 696 31 q 667 1 692 8 l 557 1 q 525 29 524 8 l 525 58 q 519 81 531 81 q 446 20 485 35 q 311 -1 407 6 l 231 -1 l 190 13 q 135 47 154 31 q 99 82 115 64 q 71 131 83 100 q 56 219 58 163 l 56 1011 q 83 1054 53 1050 l 222 1054 m 175 110 q 171 106 172 110 l 171 38 q 175 35 171 35 l 182 35 q 232 72 232 35 l 232 76 q 200 110 229 110 l 175 110 m 185 100 q 219 74 219 100 q 193 46 219 46 l 183 46 l 183 97 l 185 100 m 264 90 q 240 64 243 90 q 264 35 240 35 l 272 35 q 286 40 286 35 l 286 42 l 283 47 q 269 44 279 44 q 253 61 253 44 l 285 61 q 289 65 289 61 l 289 68 q 271 90 285 90 l 264 90 m 304 90 q 301 88 301 90 l 301 38 q 304 35 301 35 l 311 35 q 314 38 314 35 l 314 61 q 325 81 314 76 q 335 71 335 81 l 335 38 q 339 35 335 35 l 344 35 q 347 38 347 35 l 347 65 q 360 81 347 76 q 368 71 368 81 l 368 38 q 372 35 368 35 l 379 35 q 382 38 382 35 l 382 67 q 367 90 382 90 l 358 90 q 347 81 347 86 q 333 90 342 90 l 329 90 q 314 81 314 88 l 313 81 l 313 90 l 304 90 m 415 90 q 393 64 397 90 l 393 60 q 414 35 394 35 l 422 35 q 446 61 446 39 l 446 67 q 426 90 442 90 l 415 90 m 254 74 q 265 82 256 79 q 276 71 276 79 l 254 71 l 254 74 m 406 60 q 421 81 406 81 q 433 67 433 78 l 433 64 q 421 46 433 46 l 414 46 q 406 60 410 46 z "},"v":{"ha":781,"x_min":50,"x_max":717,"o":"m 76 1058 l 189 1058 q 232 1028 218 1054 l 358 311 q 411 311 386 210 l 540 1024 q 575 1058 544 1054 l 690 1058 q 717 1019 710 1053 l 507 47 q 449 -3 490 10 l 325 -3 q 263 44 283 8 l 53 1019 q 76 1058 50 1046 z "},"w":{"ha":781,"x_min":50,"x_max":683,"o":"m 175 1054 q 204 1025 204 1057 l 250 468 q 281 464 258 364 l 317 619 q 408 619 360 657 l 435 468 q 475 465 447 360 l 539 1013 q 560 1054 536 1047 l 663 1054 q 683 1010 682 1047 l 575 40 q 543 -3 571 6 l 456 -3 q 421 38 425 3 l 375 264 q 346 264 358 371 l 300 36 q 261 -3 289 6 l 175 -3 q 146 38 147 8 l 53 1014 q 81 1054 50 1047 l 175 1054 z "},"x":{"ha":781,"x_min":50,"x_max":713,"o":"m 186 1057 q 228 1035 224 1061 l 363 776 q 414 776 389 694 l 525 1031 q 574 1057 539 1054 l 667 1057 q 686 1017 690 1047 l 478 592 q 482 536 467 560 l 710 42 q 664 -1 713 6 l 594 -1 q 553 32 558 -1 l 403 385 q 364 385 385 435 l 207 31 q 165 -1 196 1 l 92 -1 q 50 53 54 8 l 282 532 q 285 592 297 558 l 72 1019 q 89 1057 54 1047 l 186 1057 z "},"y":{"ha":781,"x_min":42,"x_max":692,"o":"m 149 1054 q 203 1032 181 1057 l 333 553 q 388 554 358 440 l 525 1035 q 569 1057 544 1058 l 654 1057 q 675 1019 692 1053 q 503 445 526 497 q 436 336 479 393 l 436 47 q 401 -3 429 10 l 315 -3 q 276 47 276 13 l 276 336 q 211 442 231 393 q 56 1014 192 492 q 67 1054 42 1053 l 149 1054 z "},"z":{"ha":781,"x_min":47,"x_max":692,"o":"m 153 1058 l 614 1058 q 643 1021 632 1053 l 643 851 q 619 782 646 814 l 279 231 q 279 167 242 186 l 658 167 q 686 132 692 174 l 686 36 q 617 0 685 -6 l 78 0 q 53 53 53 19 l 53 146 q 78 242 49 208 l 443 849 q 397 886 432 888 l 88 886 q 47 922 58 890 l 47 1025 q 86 1058 53 1058 l 153 1058 z "},"=":{"ha":478,"x_min":51,"x_max":431,"o":"m 51 482 l 51 574 q 139 603 69 610 l 369 603 q 431 560 425 597 l 431 485 q 378 440 425 440 l 111 440 q 51 482 64 444 m 51 275 l 51 367 q 139 397 69 403 l 369 397 q 431 353 425 392 l 431 278 q 378 235 425 235 l 111 235 q 51 275 64 239 z "},"?":{"ha":649,"x_min":25,"x_max":625,"o":"m 28 792 l 25 960 q 138 1058 47 1039 l 239 1058 l 453 1058 q 621 810 597 1053 q 508 543 625 675 l 404 435 q 374 371 368 410 l 374 269 q 343 225 375 232 l 197 225 q 161 269 157 235 l 161 381 q 196 463 158 418 l 389 679 q 428 783 432 742 q 417 842 425 824 q 392 877 408 860 q 303 893 375 894 q 215 881 231 892 q 197 831 200 869 l 197 767 q 164 733 203 738 l 61 733 q 28 792 28 747 m 150 39 l 150 131 q 204 161 172 161 l 347 161 q 385 117 374 146 l 385 42 q 353 -3 381 11 l 186 -3 q 150 39 153 11 z "},"_":{"ha":551,"x_min":24,"x_max":531,"o":"m 29 42 l 29 132 q 96 163 31 167 l 475 163 q 531 119 531 169 l 531 43 q 461 0 521 -3 l 82 0 q 29 42 24 0 z "},"\\":{"ha":753,"x_min":42,"x_max":700,"o":"m 175 1057 q 215 1035 211 1061 l 697 42 q 653 -1 700 6 l 582 -1 q 542 32 546 -1 l 60 1019 q 76 1057 42 1047 l 175 1057 z "},"~":{"ha":532,"x_min":0,"x_max":379,"o":"m 0 431 l 0 531 q 88 560 18 567 l 269 560 l 319 597 q 379 553 375 590 l 379 465 q 326 422 375 422 l 117 422 l 58 388 q 0 431 11 392 z "},"":{"ha":1496,"x_min":39,"x_max":1446,"o":"m 78 331 l 204 331 q 240 269 235 325 l 249 235 q 287 203 258 214 q 372 190 315 192 q 465 204 429 189 q 514 261 501 219 q 464 381 528 335 q 232 525 414 417 q 113 647 169 564 q 72 767 75 725 q 78 849 69 808 q 103 919 86 890 q 169 1000 121 949 q 413 1057 243 1060 q 592 1006 506 1046 q 661 878 663 943 l 660 796 q 633 757 667 758 l 528 757 q 486 800 492 767 l 482 853 q 347 890 442 892 q 253 840 292 888 q 297 711 236 761 l 613 490 q 669 425 653 458 q 688 325 686 392 q 664 169 686 238 l 644 132 q 581 60 621 97 q 382 0 506 11 q 250 8 275 -1 q 200 30 225 18 q 153 58 175 42 q 92 121 132 75 q 46 225 50 186 q 40 281 42 264 q 47 311 39 297 q 78 331 54 325 m 836 331 l 963 331 q 997 269 992 325 l 1007 235 q 1044 203 1015 214 q 1130 190 1074 192 q 1222 204 1186 189 q 1272 261 1258 219 q 1222 381 1286 335 q 990 525 1171 417 q 869 647 926 564 q 831 767 835 725 q 836 849 828 808 q 863 919 844 890 q 926 1000 881 949 q 1169 1057 1001 1060 q 1350 1006 1264 1046 q 1419 878 1419 943 l 1418 796 q 1392 757 1425 758 l 1286 757 q 1244 800 1251 767 l 1240 853 q 1106 890 1199 892 q 1010 840 1049 888 q 1054 711 994 761 l 1369 490 q 1427 425 1411 458 q 1446 325 1443 392 q 1422 169 1443 238 l 1403 132 q 1338 60 1379 97 q 1140 0 1264 11 q 1008 8 1033 -1 q 958 30 983 18 q 912 58 933 42 q 849 121 890 75 q 803 225 808 186 q 798 281 799 264 q 805 311 797 297 q 836 331 813 325 z "},"":{"ha":781,"x_min":53,"x_max":721,"o":"m 89 1058 l 267 1058 q 303 1036 290 1057 l 303 926 q 267 888 292 899 l 89 888 q 53 925 60 894 l 53 1036 q 89 1058 58 1061 m 503 1057 l 681 1057 q 718 1033 706 1054 l 718 925 q 681 886 707 897 l 503 886 q 467 922 475 892 l 467 1033 q 503 1057 474 1058 m 97 833 l 193 836 q 232 803 224 831 l 232 306 q 264 206 224 251 q 392 181 317 172 q 471 208 438 188 q 536 400 544 253 l 536 794 q 576 833 536 831 l 688 833 q 718 790 721 819 l 718 46 q 679 0 718 4 l 575 0 q 536 25 533 -1 l 536 76 q 519 82 533 96 q 397 6 469 15 q 224 11 336 -4 q 54 240 71 82 l 54 814 q 97 833 67 839 z "},"":{"ha":781,"x_min":53,"x_max":721,"o":"m 89 1058 l 267 1058 q 303 1036 290 1057 l 303 926 q 267 888 292 899 l 89 888 q 53 925 60 894 l 53 1036 q 89 1058 58 1061 m 503 1057 l 681 1057 q 718 1033 706 1054 l 718 925 q 681 886 707 897 l 503 886 q 467 922 475 892 l 467 1033 q 503 1057 474 1058 m 97 833 l 193 836 q 232 803 224 831 l 232 306 q 264 206 224 251 q 392 181 317 172 q 471 208 438 188 q 536 400 544 253 l 536 794 q 576 833 536 831 l 688 833 q 718 790 721 819 l 718 46 q 679 0 718 4 l 575 0 q 536 25 533 -1 l 536 76 q 519 82 533 96 q 397 6 469 15 q 224 11 336 -4 q 54 240 71 82 l 54 814 q 97 833 67 839 z "},"":{"ha":515,"x_min":21,"x_max":481,"o":"m 167 349 q 149 357 158 353 q 117 376 132 365 q 75 419 103 388 q 44 490 47 464 q 40 528 42 517 q 43 547 40 538 q 47 579 44 564 q 65 627 53 607 q 110 681 76 647 q 156 706 129 696 q 89 778 121 732 q 62 859 64 831 q 65 915 60 888 q 83 963 71 943 q 128 1019 94 983 q 293 1057 179 1058 q 417 1021 358 1049 q 464 936 464 979 l 463 879 q 444 853 467 854 l 372 853 q 343 882 347 858 l 342 918 q 249 943 314 944 q 185 908 210 942 q 214 821 174 856 l 431 671 q 469 625 458 647 q 481 558 481 603 q 464 453 481 499 l 453 426 q 408 378 436 403 q 374 360 392 368 l 411 333 q 451 290 440 313 q 464 222 461 267 q 447 115 461 163 l 433 92 q 389 42 417 67 q 254 0 339 8 q 165 6 182 -1 q 131 20 147 13 q 99 40 114 28 q 57 82 85 51 q 26 154 29 128 q 22 192 22 181 q 26 213 21 203 q 47 225 31 222 l 133 225 q 158 185 154 222 l 164 160 q 189 138 169 146 q 247 130 208 131 q 311 140 286 129 q 346 178 336 150 q 311 258 353 228 q 167 349 278 282 m 181 500 q 197 485 186 492 l 213 474 q 265 467 231 467 q 328 476 304 465 q 364 525 353 486 q 347 581 369 557 q 231 607 279 625 q 165 556 192 606 q 181 500 164 547 z "},"":{"ha":781,"x_min":-39,"x_max":799,"o":"m 131 1054 l 294 1054 q 342 1003 347 1058 l 342 936 q 294 892 347 897 l 125 892 q 69 931 67 890 l 69 1014 q 131 1054 63 1057 m 315 324 l 342 324 l 436 324 q 475 343 479 317 l 408 633 q 375 633 394 679 l 299 349 q 315 324 290 325 m 332 853 l 479 853 q 543 778 526 840 l 711 36 q 676 0 714 -4 l 576 0 q 538 28 544 -3 l 515 146 q 479 169 507 169 l 288 169 q 244 143 253 169 l 210 22 q 164 0 197 3 l 69 0 q 44 43 36 8 l 242 783 q 332 853 264 847 m 664 1058 q 717 997 715 1053 l 715 929 q 664 897 718 897 l 486 897 q 431 938 436 901 l 431 1004 q 483 1058 426 1058 l 664 1058 m 243 92 q 239 88 240 92 l 239 19 q 243 17 239 17 l 250 17 q 300 54 300 17 l 300 58 q 268 92 297 92 l 243 92 m 253 82 q 288 56 288 82 q 261 28 288 28 l 251 28 l 251 79 l 253 82 m 332 72 q 308 46 311 72 q 332 17 308 17 l 340 17 q 354 22 354 17 l 354 24 l 351 29 q 338 26 347 26 q 321 43 321 26 l 353 43 q 357 47 357 43 l 357 50 q 339 72 353 72 l 332 72 m 372 72 q 369 69 369 72 l 369 19 q 372 17 369 17 l 379 17 q 382 19 382 17 l 382 43 q 393 63 382 58 q 403 53 403 63 l 403 19 q 407 17 403 17 l 413 17 q 415 19 415 17 l 415 47 q 428 63 415 58 q 436 53 436 63 l 436 19 q 440 17 436 17 l 447 17 q 450 19 450 17 l 450 49 q 435 72 450 72 l 426 72 q 415 63 415 68 q 401 72 410 72 l 397 72 q 382 63 382 69 l 381 63 l 381 72 l 372 72 m 483 72 q 461 46 465 72 l 461 42 q 482 17 463 17 l 490 17 q 514 43 514 21 l 514 49 q 494 72 510 72 l 483 72 m 322 56 q 333 64 324 61 q 344 53 344 61 l 322 53 l 322 56 m 474 42 q 489 63 474 63 q 501 49 501 60 l 501 46 q 489 28 501 28 l 482 28 q 474 42 478 28 m 383 -43 q 379 -46 382 -43 l 379 -122 q 383 -126 379 -126 l 389 -126 q 392 -122 392 -126 l 392 -100 l 394 -100 q 411 -126 403 -118 l 421 -126 l 424 -124 q 415 -110 419 -117 q 404 -94 410 -103 q 422 -72 422 -72 q 419 -69 422 -69 l 410 -69 l 392 -90 l 392 -46 q 389 -43 392 -43 l 383 -43 m 729 -43 q 725 -46 728 -43 l 725 -69 l 713 -69 q 689 -99 693 -69 q 706 -126 689 -126 l 711 -126 q 725 -115 725 -122 l 726 -115 l 726 -118 l 725 -121 q 729 -126 725 -126 l 735 -126 q 739 -122 739 -126 l 739 -46 q 735 -43 739 -43 l 729 -43 m 638 -50 q 628 -56 628 -50 l 628 -69 l 619 -69 q 617 -72 617 -69 l 617 -76 q 619 -79 617 -79 l 628 -79 l 628 -112 q 640 -126 628 -126 l 651 -126 q 654 -122 654 -126 l 654 -115 q 640 -111 640 -115 l 640 -79 l 651 -79 q 654 -76 654 -79 l 654 -72 q 651 -69 654 -69 l 640 -69 l 640 -53 q 638 -50 640 -50 m -35 -69 l -39 -71 q -19 -126 -22 -126 l -10 -126 q 1 -87 0 -103 l 3 -87 q 18 -126 14 -126 l 25 -126 q 47 -71 29 -126 l 43 -69 l 36 -69 l 33 -71 q 21 -107 22 -107 q 7 -69 13 -69 l 0 -69 q -14 -107 -6 -69 l -15 -107 q -28 -69 -26 -69 l -35 -69 m 53 -69 l 50 -71 q 69 -126 63 -126 l 75 -126 q 89 -87 81 -126 l 92 -87 q 106 -126 100 -126 l 114 -126 q 133 -71 119 -126 l 131 -69 l 124 -69 q 111 -108 117 -69 l 108 -108 q 94 -69 100 -69 l 88 -69 q 74 -108 82 -69 l 72 -108 q 60 -69 64 -69 l 53 -69 m 139 -69 l 136 -71 q 156 -126 153 -125 l 164 -126 q 176 -89 168 -126 l 178 -89 q 193 -126 192 -126 l 201 -126 q 222 -71 206 -126 l 218 -69 l 213 -69 q 200 -107 206 -69 l 196 -107 q 183 -69 188 -69 l 175 -69 q 163 -107 171 -69 l 161 -107 q 149 -69 150 -69 l 139 -69 m 275 -69 q 257 -72 265 -69 q 260 -82 257 -76 q 274 -79 268 -79 l 276 -79 q 286 -89 286 -79 l 286 -92 l 285 -92 q 254 -111 254 -92 q 268 -126 254 -122 l 272 -126 q 288 -118 276 -126 q 290 -126 288 -126 l 296 -126 q 300 -122 300 -126 l 300 -86 q 283 -69 300 -72 l 275 -69 m 318 -69 q 315 -72 315 -69 l 315 -122 q 318 -126 315 -126 l 325 -126 q 328 -122 328 -126 l 328 -106 q 344 -79 328 -79 q 351 -90 351 -82 l 351 -122 q 354 -126 351 -126 l 358 -126 q 361 -122 361 -126 l 361 -82 q 349 -69 361 -69 l 342 -69 q 328 -78 336 -69 q 325 -69 328 -69 l 318 -69 m 451 -69 q 431 -94 435 -69 l 431 -101 q 456 -126 431 -122 l 458 -126 q 476 -121 476 -126 l 476 -115 l 474 -112 q 466 -115 469 -115 q 460 -115 463 -115 l 458 -115 q 443 -101 443 -115 l 443 -99 l 476 -99 l 479 -96 q 460 -69 479 -69 l 451 -69 m 540 -69 q 528 -75 528 -69 l 528 -79 l 529 -82 q 538 -80 535 -81 q 543 -79 540 -79 l 547 -79 q 557 -89 557 -79 l 557 -92 l 554 -92 q 524 -111 524 -92 l 524 -112 q 535 -126 524 -119 l 542 -126 q 557 -115 557 -122 l 558 -115 l 558 -126 l 567 -126 q 569 -122 569 -126 l 569 -89 q 553 -69 569 -69 l 540 -69 m 589 -69 q 586 -72 586 -69 l 586 -122 q 589 -126 586 -126 l 594 -126 q 599 -122 599 -126 l 599 -103 q 601 -86 599 -94 l 615 -78 l 615 -72 q 611 -69 615 -69 l 606 -69 q 599 -79 599 -74 l 597 -79 l 597 -78 l 599 -75 q 594 -69 599 -69 l 589 -69 m 774 -69 q 750 -100 750 -69 l 750 -101 q 774 -126 750 -122 l 782 -126 q 796 -119 796 -126 l 796 -115 l 794 -112 q 785 -115 788 -115 q 781 -115 782 -115 q 763 -100 763 -115 l 763 -99 l 794 -99 q 799 -94 799 -99 l 799 -89 q 781 -69 794 -69 l 774 -69 m 443 -89 q 457 -78 443 -82 q 467 -87 467 -82 l 467 -89 l 443 -89 m 764 -86 q 775 -78 767 -79 q 785 -89 785 -78 l 764 -89 l 764 -86 m 701 -99 q 717 -79 701 -79 l 725 -79 l 725 -96 q 713 -115 725 -111 q 701 -99 701 -115 m 490 -92 q 488 -94 488 -92 l 488 -99 q 490 -101 488 -101 l 511 -101 q 515 -99 515 -101 l 515 -94 q 511 -92 515 -92 l 490 -92 m 267 -106 q 285 -100 278 -100 l 286 -100 l 286 -101 q 275 -115 286 -115 l 267 -114 l 267 -106 m 538 -107 q 554 -100 538 -103 l 557 -100 l 557 -101 q 546 -115 557 -111 l 538 -114 l 538 -107 m 235 -110 q 228 -115 228 -114 l 228 -119 q 235 -126 232 -126 l 238 -126 q 244 -119 244 -119 l 244 -115 q 238 -110 240 -110 l 235 -110 m 674 -110 q 663 -118 664 -110 q 669 -126 663 -122 l 674 -126 q 679 -121 679 -121 l 679 -115 l 674 -110 z "},"":{"ha":781,"x_min":36,"x_max":718,"o":"m 131 1054 l 294 1054 q 342 1003 347 1058 l 342 936 q 294 892 347 897 l 125 892 q 69 931 67 890 l 69 1014 q 131 1054 63 1057 m 315 324 l 342 324 l 436 324 q 475 343 479 317 l 408 633 q 375 633 394 679 l 299 349 q 315 324 290 325 m 332 853 l 479 853 q 543 778 526 840 l 711 36 q 676 0 714 -4 l 576 0 q 538 28 544 -3 l 515 146 q 479 169 507 169 l 288 169 q 244 143 253 169 l 210 22 q 164 0 197 3 l 69 0 q 44 43 36 8 l 242 783 q 332 853 264 847 m 664 1058 q 717 997 715 1053 l 715 929 q 664 897 718 897 l 486 897 q 431 938 436 901 l 431 1004 q 483 1058 426 1058 l 664 1058 z "},"":{"ha":781,"x_min":-39,"x_max":799,"o":"m 97 1054 l 275 1054 q 313 1031 299 1053 l 313 922 q 275 883 301 894 l 97 883 q 60 919 69 890 l 60 1031 q 97 1054 67 1057 m 483 1057 l 661 1057 q 697 1033 685 1054 l 697 925 q 661 886 686 897 l 483 886 q 447 922 454 892 l 447 1033 q 483 1057 453 1058 m 267 578 q 240 491 249 538 q 228 377 231 444 q 240 273 226 310 q 283 215 253 236 q 351 191 313 193 q 427 192 390 189 q 486 216 464 196 q 522 268 508 236 q 539 367 536 300 q 533 488 542 435 q 519 560 525 540 q 502 600 514 581 q 474 634 490 619 q 427 658 457 649 q 364 659 397 667 q 308 630 331 651 q 267 578 286 608 m 381 829 q 436 824 415 826 q 470 818 457 822 q 499 808 483 814 q 542 785 515 801 q 597 744 569 768 q 638 692 624 719 q 665 642 653 664 q 684 596 676 621 q 697 517 692 571 q 705 401 703 464 q 703 294 707 339 q 685 193 700 250 q 642 95 669 136 q 565 31 614 54 q 449 0 515 7 q 322 -1 383 -7 q 210 27 260 4 q 131 79 160 50 q 88 140 103 108 q 63 231 74 171 q 53 361 51 292 q 60 469 56 431 q 75 549 64 508 q 106 635 86 590 q 158 720 125 681 q 226 783 190 760 q 298 817 263 806 q 381 829 333 829 m 243 113 q 239 108 240 113 l 239 40 q 243 38 239 38 l 250 38 q 300 75 300 38 l 300 79 q 268 113 297 113 l 243 113 m 253 103 q 288 76 288 103 q 261 49 288 49 l 251 49 l 251 100 l 253 103 m 332 93 q 308 67 311 93 q 332 38 308 38 l 340 38 q 354 43 354 38 l 354 44 l 351 50 q 338 47 347 47 q 321 64 321 47 l 353 64 q 357 68 357 64 l 357 71 q 339 93 353 93 l 332 93 m 372 93 q 369 90 369 93 l 369 40 q 372 38 369 38 l 379 38 q 382 40 382 38 l 382 64 q 393 83 382 79 q 403 74 403 83 l 403 40 q 407 38 403 38 l 413 38 q 415 40 415 38 l 415 68 q 428 83 415 79 q 436 74 436 83 l 436 40 q 440 38 436 38 l 447 38 q 450 40 450 38 l 450 69 q 435 93 450 93 l 426 93 q 415 83 415 89 q 401 93 410 93 l 397 93 q 382 83 382 90 l 381 83 l 381 93 l 372 93 m 483 93 q 461 67 465 93 l 461 63 q 482 38 463 38 l 490 38 q 514 64 514 42 l 514 69 q 494 93 510 93 l 483 93 m 322 76 q 333 85 324 82 q 344 74 344 82 l 322 74 l 322 76 m 474 63 q 489 83 474 83 q 501 69 501 81 l 501 67 q 489 49 501 49 l 482 49 q 474 63 478 49 m 383 -22 q 379 -25 382 -22 l 379 -101 q 383 -106 379 -106 l 389 -106 q 392 -101 392 -106 l 392 -79 l 394 -79 q 411 -106 403 -97 l 421 -106 l 424 -103 q 415 -89 419 -96 q 404 -74 410 -82 q 422 -51 422 -51 q 419 -49 422 -49 l 410 -49 l 392 -69 l 392 -25 q 389 -22 392 -22 l 383 -22 m 729 -22 q 725 -25 728 -22 l 725 -49 l 713 -49 q 689 -78 693 -49 q 706 -106 689 -106 l 711 -106 q 725 -94 725 -101 l 726 -94 l 726 -97 l 725 -100 q 729 -106 725 -106 l 735 -106 q 739 -101 739 -106 l 739 -25 q 735 -22 739 -22 l 729 -22 m 638 -29 q 628 -35 628 -29 l 628 -49 l 619 -49 q 617 -51 617 -49 l 617 -56 q 619 -58 617 -58 l 628 -58 l 628 -92 q 640 -106 628 -106 l 651 -106 q 654 -101 654 -106 l 654 -94 q 640 -90 640 -94 l 640 -58 l 651 -58 q 654 -56 654 -58 l 654 -51 q 651 -49 654 -49 l 640 -49 l 640 -32 q 638 -29 640 -29 m -35 -49 l -39 -50 q -19 -106 -22 -106 l -10 -106 q 1 -67 0 -82 l 3 -67 q 18 -106 14 -106 l 25 -106 q 47 -50 29 -106 l 43 -49 l 36 -49 l 33 -50 q 21 -86 22 -86 q 7 -49 13 -49 l 0 -49 q -14 -86 -6 -49 l -15 -86 q -28 -49 -26 -49 l -35 -49 m 53 -49 l 50 -50 q 69 -106 63 -106 l 75 -106 q 89 -67 81 -106 l 92 -67 q 106 -106 100 -106 l 114 -106 q 133 -50 119 -106 l 131 -49 l 124 -49 q 111 -87 117 -49 l 108 -87 q 94 -49 100 -49 l 88 -49 q 74 -87 82 -49 l 72 -87 q 60 -49 64 -49 l 53 -49 m 139 -49 l 136 -50 q 156 -106 153 -104 l 164 -106 q 176 -68 168 -106 l 178 -68 q 193 -106 192 -106 l 201 -106 q 222 -50 206 -106 l 218 -49 l 213 -49 q 200 -86 206 -49 l 196 -86 q 183 -49 188 -49 l 175 -49 q 163 -86 171 -49 l 161 -86 q 149 -49 150 -49 l 139 -49 m 275 -49 q 257 -51 265 -49 q 260 -61 257 -56 q 274 -58 268 -58 l 276 -58 q 286 -68 286 -58 l 286 -71 l 285 -71 q 254 -90 254 -71 q 268 -106 254 -101 l 272 -106 q 288 -97 276 -106 q 290 -106 288 -106 l 296 -106 q 300 -101 300 -106 l 300 -65 q 283 -49 300 -51 l 275 -49 m 318 -49 q 315 -51 315 -49 l 315 -101 q 318 -106 315 -106 l 325 -106 q 328 -101 328 -106 l 328 -85 q 344 -58 328 -58 q 351 -69 351 -61 l 351 -101 q 354 -106 351 -106 l 358 -106 q 361 -101 361 -106 l 361 -61 q 349 -49 361 -49 l 342 -49 q 328 -57 336 -49 q 325 -49 328 -49 l 318 -49 m 451 -49 q 431 -74 435 -49 l 431 -81 q 456 -106 431 -101 l 458 -106 q 476 -100 476 -106 l 476 -94 l 474 -92 q 466 -94 469 -94 q 460 -94 463 -94 l 458 -94 q 443 -81 443 -94 l 443 -78 l 476 -78 l 479 -75 q 460 -49 479 -49 l 451 -49 m 540 -49 q 528 -54 528 -49 l 528 -58 l 529 -61 q 538 -59 535 -60 q 543 -58 540 -58 l 547 -58 q 557 -68 557 -58 l 557 -71 l 554 -71 q 524 -90 524 -71 l 524 -92 q 535 -106 524 -99 l 542 -106 q 557 -94 557 -101 l 558 -94 l 558 -106 l 567 -106 q 569 -101 569 -106 l 569 -68 q 553 -49 569 -49 l 540 -49 m 589 -49 q 586 -51 586 -49 l 586 -101 q 589 -106 586 -106 l 594 -106 q 599 -101 599 -106 l 599 -82 q 601 -65 599 -74 l 615 -57 l 615 -51 q 611 -49 615 -49 l 606 -49 q 599 -58 599 -53 l 597 -58 l 597 -57 l 599 -54 q 594 -49 599 -49 l 589 -49 m 774 -49 q 750 -79 750 -49 l 750 -81 q 774 -106 750 -101 l 782 -106 q 796 -99 796 -106 l 796 -94 l 794 -92 q 785 -94 788 -94 q 781 -94 782 -94 q 763 -79 763 -94 l 763 -78 l 794 -78 q 799 -74 799 -78 l 799 -68 q 781 -49 794 -49 l 774 -49 m 443 -68 q 457 -57 443 -61 q 467 -67 467 -61 l 467 -68 l 443 -68 m 764 -65 q 775 -57 767 -58 q 785 -68 785 -57 l 764 -68 l 764 -65 m 701 -78 q 717 -58 701 -58 l 725 -58 l 725 -75 q 713 -94 725 -90 q 701 -78 701 -94 m 490 -71 q 488 -74 488 -71 l 488 -78 q 490 -81 488 -81 l 511 -81 q 515 -78 515 -81 l 515 -74 q 511 -71 515 -71 l 490 -71 m 267 -85 q 285 -79 278 -79 l 286 -79 l 286 -81 q 275 -94 286 -94 l 267 -93 l 267 -85 m 538 -86 q 554 -79 538 -82 l 557 -79 l 557 -81 q 546 -94 557 -90 l 538 -93 l 538 -86 m 235 -89 q 228 -94 228 -93 l 228 -99 q 235 -106 232 -106 l 238 -106 q 244 -99 244 -99 l 244 -94 q 238 -89 240 -89 l 235 -89 m 674 -89 q 663 -97 664 -89 q 669 -106 663 -101 l 674 -106 q 679 -100 679 -100 l 679 -94 l 674 -89 z "},"":{"ha":781,"x_min":51,"x_max":707,"o":"m 97 1054 l 275 1054 q 313 1031 299 1053 l 313 922 q 275 883 301 894 l 97 883 q 60 919 69 890 l 60 1031 q 97 1054 67 1057 m 483 1057 l 661 1057 q 697 1033 685 1054 l 697 925 q 661 886 686 897 l 483 886 q 447 922 454 892 l 447 1033 q 483 1057 453 1058 m 267 578 q 240 491 249 538 q 228 377 231 444 q 240 273 226 310 q 283 215 253 236 q 351 191 313 193 q 427 192 390 189 q 486 216 464 196 q 522 268 508 236 q 539 367 536 300 q 533 488 542 435 q 519 560 525 540 q 502 600 514 581 q 474 634 490 619 q 427 658 457 649 q 364 659 397 667 q 308 630 331 651 q 267 578 286 608 m 381 829 q 436 824 415 826 q 470 818 457 822 q 499 808 483 814 q 542 785 515 801 q 597 744 569 768 q 638 692 624 719 q 665 642 653 664 q 684 596 676 621 q 697 517 692 571 q 705 401 703 464 q 703 294 707 339 q 685 193 700 250 q 642 95 669 136 q 565 31 614 54 q 449 0 515 7 q 322 -1 383 -7 q 210 27 260 4 q 131 79 160 50 q 88 140 103 108 q 63 231 74 171 q 53 361 51 292 q 60 469 56 431 q 75 549 64 508 q 106 635 86 590 q 158 720 125 681 q 226 783 190 760 q 298 817 263 806 q 381 829 333 829 z "},"":{"ha":756,"x_min":38,"x_max":678,"o":"m 514 1031 q 561 1057 526 1054 l 654 1057 q 674 1017 678 1047 l 194 31 q 153 -1 183 1 l 79 -1 q 38 53 42 8 l 514 1031 z "},"":{"ha":882,"x_min":0,"x_max":842,"o":"m 6 404 l 6 472 q 72 496 7 499 l 149 496 l 149 556 l 58 556 q 6 586 0 556 l 6 654 q 72 678 7 681 l 149 678 l 149 715 q 228 972 144 885 q 475 1060 313 1058 l 621 1061 q 832 840 842 1032 l 832 753 q 764 703 811 706 l 685 700 q 632 758 636 719 l 632 850 q 613 883 636 883 l 468 883 q 329 714 325 879 l 329 678 l 458 678 q 514 644 514 682 l 514 589 q 444 556 504 554 l 329 556 l 329 496 l 456 496 q 510 463 510 500 l 510 407 q 442 374 501 372 l 329 374 l 329 317 q 333 266 329 283 q 354 223 336 249 q 465 188 372 197 q 578 201 529 186 q 625 356 631 238 q 681 390 632 392 l 815 390 q 836 342 836 381 q 806 158 836 251 q 737 58 778 101 q 643 0 696 15 l 369 0 q 211 61 264 8 q 149 172 142 119 l 149 374 l 58 374 q 6 404 0 374 z "},"":{"ha":447,"x_min":63,"x_max":301,"o":"m 63 38 l 63 129 q 115 160 83 160 l 258 160 q 296 115 285 143 q 228 -129 301 -82 q 160 -146 196 -168 l 129 -129 q 135 -86 107 -107 q 174 -25 174 -49 q 146 -6 175 -1 l 89 -6 q 63 38 63 10 z "},"":{"ha":383,"x_min":69,"x_max":308,"o":"m 69 942 l 69 1033 q 122 1064 90 1064 l 265 1064 q 303 1019 292 1047 q 235 775 308 822 q 167 758 203 736 l 136 775 q 142 818 114 797 q 181 879 181 856 q 153 899 182 903 l 96 899 q 69 942 69 914 z "},"":{"ha":618,"x_min":69,"x_max":579,"o":"m 69 942 l 69 1033 q 122 1064 90 1064 l 265 1064 q 303 1019 292 1047 q 235 775 308 822 q 167 758 203 736 l 136 775 q 142 818 114 797 q 181 879 181 856 q 153 899 182 903 l 96 899 q 69 942 69 914 m 340 942 l 340 1033 q 393 1064 361 1064 l 536 1064 q 575 1019 564 1047 q 506 775 579 822 q 439 758 474 736 l 408 775 q 413 818 385 797 q 452 879 451 856 q 424 899 453 903 l 367 899 q 340 942 342 914 z "},"":{"ha":618,"x_min":68,"x_max":578,"o":"m 578 856 l 578 764 q 525 735 557 735 l 381 735 q 344 778 354 750 q 413 1024 339 975 q 481 1040 444 1063 l 510 1024 q 506 981 533 1001 q 465 919 467 942 q 494 899 464 896 l 551 899 q 578 856 576 885 m 307 856 l 307 764 q 253 735 286 735 l 110 735 q 72 778 83 750 q 142 1024 68 975 q 208 1040 174 1063 l 239 1024 q 235 981 263 1001 q 194 919 196 942 q 224 899 193 896 l 281 899 q 307 856 304 885 z "},"":{"ha":383,"x_min":68,"x_max":307,"o":"m 307 856 l 307 764 q 253 735 286 735 l 110 735 q 74 778 83 750 q 142 1024 68 975 q 208 1040 174 1063 l 239 1024 q 235 981 263 1001 q 194 919 196 942 q 224 899 193 896 l 281 899 q 307 856 306 885 z "},"":{"ha":596,"x_min":0,"x_max":600,"o":"m 219 1 l 219 569 q 59 634 118 575 q 0 789 0 693 q 65 956 0 893 q 257 1018 131 1018 l 600 1018 l 600 925 l 522 925 l 522 1 l 431 1 l 431 925 l 308 925 l 308 1 l 219 1 z "},"":{"ha":222,"x_min":0,"x_max":226,"o":"m 67 1161 l 110 1186 l 203 1186 q 222 1147 226 1178 q 117 1076 147 1079 l 42 1076 q 0 1110 6 1086 l 67 1161 z "},"":{"ha":781,"x_min":42,"x_max":742,"o":"m 294 408 q 336 381 292 381 l 443 382 q 472 410 489 375 q 438 611 454 508 q 400 788 421 714 q 372 788 389 819 q 325 575 336 642 q 294 408 314 508 m 326 1054 l 475 1054 q 525 1022 518 1058 l 597 676 q 742 36 704 201 l 728 3 l 639 0 l 561 4 l 553 42 q 517 197 521 182 q 486 214 514 213 l 283 214 q 253 194 257 214 q 226 14 250 174 l 192 0 l 81 0 q 42 32 42 6 l 81 197 l 197 742 l 254 1021 q 326 1054 265 1058 m 371 1161 l 414 1186 l 508 1186 q 526 1147 531 1178 q 421 1076 451 1079 l 347 1076 q 304 1110 310 1086 l 371 1161 z "},"":{"ha":781,"x_min":42,"x_max":742,"o":"m 294 408 q 336 381 292 381 l 443 382 q 472 410 489 375 q 438 611 454 508 q 400 788 421 714 q 372 788 389 819 q 325 575 336 642 q 294 408 314 508 m 326 1054 l 475 1054 q 525 1022 518 1058 l 597 676 q 742 36 704 201 l 728 3 l 639 0 l 561 4 l 553 42 q 517 197 521 182 q 486 214 514 213 l 283 214 q 253 194 257 214 q 226 14 250 174 l 192 0 l 81 0 q 42 32 42 6 l 81 197 l 197 742 l 254 1021 q 326 1054 265 1058 m 371 1161 l 414 1186 l 508 1186 q 526 1147 531 1178 q 421 1076 451 1079 l 347 1076 q 304 1110 310 1086 l 371 1161 z "},"`":{"ha":222,"x_min":0,"x_max":226,"o":"m 226 1110 q 185 1076 221 1086 l 110 1076 q 4 1147 81 1079 q 24 1186 0 1178 l 117 1186 l 160 1161 l 226 1110 z "},"":{"ha":618,"x_min":71,"x_max":582,"o":"m 71 28 l 71 119 q 124 150 92 150 l 267 150 q 304 106 293 133 q 236 -139 310 -92 q 168 -156 204 -178 l 138 -139 q 143 -96 115 -117 q 183 -35 182 -58 q 154 -15 183 -11 l 97 -15 q 71 28 71 0 m 343 26 l 343 118 q 396 149 364 149 l 539 149 q 576 104 565 132 q 508 -140 582 -93 q 440 -157 476 -179 l 410 -140 q 415 -97 388 -118 q 455 -36 454 -60 q 426 -17 456 -12 l 369 -17 q 343 26 343 -1 z "},"":{"ha":1008,"x_min":29,"x_max":936,"o":"m 29 42 l 29 132 q 83 163 51 163 l 226 163 q 264 119 253 147 l 264 43 q 231 0 258 14 l 67 0 q 29 42 31 14 m 29 42 l 29 132 q 83 163 51 163 l 226 163 q 264 119 253 147 l 264 43 q 231 0 258 14 l 67 0 q 29 42 31 14 m 364 42 l 364 132 q 419 163 386 163 l 563 163 q 599 119 589 147 l 599 43 q 567 0 594 14 l 403 0 q 364 42 367 14 m 703 42 l 703 132 q 757 163 725 163 l 900 163 q 936 119 926 147 l 936 43 q 904 0 932 14 l 740 0 q 703 42 704 14 z "},"":{"ha":697,"x_min":236,"x_max":469,"o":"m 236 364 l 236 456 q 290 486 257 486 l 433 486 q 469 442 458 471 l 469 367 q 438 324 465 336 l 272 324 q 236 364 238 336 z "}," ":{"ha":536,"x_min":0,"x_max":0,"o":""},"":{"ha":411,"x_min":0,"x_max":415,"o":"m 19 439 l 19 531 q 107 560 36 567 l 338 560 q 397 517 393 553 l 397 440 q 346 397 393 397 l 78 397 q 19 439 31 401 m 0 1258 l 0 1328 l 415 1328 l 415 1197 l 0 1197 l 0 1258 m 0 -225 l 0 -157 l 415 -157 l 415 -286 l 0 -286 l 0 -225 z "},"":{"ha":697,"x_min":236,"x_max":469,"o":"m 236 364 l 236 456 q 290 486 257 486 l 433 486 q 469 442 458 471 l 469 367 q 438 324 465 336 l 272 324 q 236 364 238 336 z "},"":{"ha":372,"x_min":36,"x_max":342,"o":"m 74 801 q 114 860 78 853 l 253 860 q 286 799 285 864 l 324 82 q 274 0 342 8 l 115 1 q 57 90 36 4 l 74 801 m 64 1015 q 101 1057 67 1043 l 265 1057 q 299 1014 294 1043 l 297 933 q 256 894 288 908 l 118 894 q 64 925 86 894 l 64 1015 z "},"":{"ha":649,"x_min":25,"x_max":625,"o":"m 624 264 l 625 97 q 514 -3 603 18 l 413 -3 l 199 -3 q 31 247 54 4 q 142 514 25 382 l 247 622 q 278 686 283 647 l 278 788 q 308 831 275 825 l 453 831 q 490 788 494 822 l 490 676 q 456 594 492 639 l 263 378 q 222 274 219 314 q 233 215 225 233 q 258 180 242 197 q 348 163 275 163 q 436 176 421 164 q 453 225 451 188 l 453 290 q 488 324 449 319 l 590 324 q 624 264 624 310 m 501 1018 l 501 926 q 447 896 479 896 l 303 896 q 267 940 278 911 l 267 1015 q 299 1058 271 1046 l 464 1058 q 501 1018 499 1046 z "},"":{"ha":781,"x_min":53,"x_max":692,"o":"m 383 1061 q 472 1036 442 1053 q 541 987 503 1019 q 604 917 579 954 q 647 831 629 879 q 675 735 665 783 q 685 628 685 686 q 689 465 686 571 q 682 303 692 358 q 663 210 672 247 q 638 142 653 174 q 596 81 622 110 q 546 34 569 53 q 490 8 522 15 q 420 -2 457 0 q 338 -2 383 -4 q 260 15 292 0 q 197 53 229 29 q 133 129 164 76 q 80 245 101 182 q 58 347 58 308 q 56 455 58 385 q 54 599 53 525 q 69 726 56 672 q 98 817 83 781 q 150 901 113 853 q 210 974 188 950 q 282 1027 233 997 q 383 1061 331 1057 m 236 708 q 226 633 229 671 q 221 517 222 594 q 223 391 219 440 q 240 303 226 342 q 283 234 253 264 q 383 203 313 204 q 478 233 454 203 q 515 305 503 263 q 530 401 526 347 q 530 556 533 456 q 519 697 526 656 q 495 770 511 738 q 449 839 479 803 q 379 879 418 875 q 287 813 329 876 q 236 708 244 749 m 468 1110 q 425 1076 463 1086 l 351 1076 q 246 1147 321 1079 q 264 1186 242 1178 l 358 1186 l 401 1161 l 468 1110 z "},"":{"ha":781,"x_min":53,"x_max":692,"o":"m 383 1061 q 472 1036 442 1053 q 541 987 503 1019 q 604 917 579 954 q 647 831 629 879 q 675 735 665 783 q 685 628 685 686 q 689 465 686 571 q 682 303 692 358 q 663 210 672 247 q 638 142 653 174 q 596 81 622 110 q 546 34 569 53 q 490 8 522 15 q 420 -2 457 0 q 338 -2 383 -4 q 260 15 292 0 q 197 53 229 29 q 133 129 164 76 q 80 245 101 182 q 58 347 58 308 q 56 455 58 385 q 54 599 53 525 q 69 726 56 672 q 98 817 83 781 q 150 901 113 853 q 210 974 188 950 q 282 1027 233 997 q 383 1061 331 1057 m 236 708 q 226 633 229 671 q 221 517 222 594 q 223 391 219 440 q 240 303 226 342 q 283 234 253 264 q 383 203 313 204 q 478 233 454 203 q 515 305 503 263 q 530 401 526 347 q 530 556 533 456 q 519 697 526 656 q 495 770 511 738 q 449 839 479 803 q 379 879 418 875 q 287 813 329 876 q 236 708 244 749 m 360 1161 l 403 1186 l 497 1186 q 515 1147 519 1178 q 410 1076 440 1079 l 336 1076 q 293 1110 299 1086 l 360 1161 z "},"":{"ha":781,"x_min":53,"x_max":692,"o":"m 383 1061 q 472 1036 442 1053 q 541 987 503 1019 q 604 917 579 954 q 647 831 629 879 q 675 735 665 783 q 685 628 685 686 q 689 465 686 571 q 682 303 692 358 q 663 210 672 247 q 638 142 653 174 q 596 81 622 110 q 546 34 569 53 q 490 8 522 15 q 420 -2 457 0 q 338 -2 383 -4 q 260 15 292 0 q 197 53 229 29 q 133 129 164 76 q 80 245 101 182 q 58 347 58 308 q 56 455 58 385 q 54 599 53 525 q 69 726 56 672 q 98 817 83 781 q 150 901 113 853 q 210 974 188 950 q 282 1027 233 997 q 383 1061 331 1057 m 236 708 q 226 633 229 671 q 221 517 222 594 q 223 391 219 440 q 240 303 226 342 q 283 234 253 264 q 383 203 313 204 q 478 233 454 203 q 515 305 503 263 q 530 401 526 347 q 530 556 533 456 q 519 697 526 656 q 495 770 511 738 q 449 839 479 803 q 379 879 418 875 q 287 813 329 876 q 236 708 244 749 m 564 1101 q 522 1068 560 1076 l 447 1068 q 383 1103 426 1069 q 319 1068 342 1069 l 246 1068 q 203 1101 208 1076 l 269 1153 l 314 1178 l 454 1178 l 497 1153 l 564 1101 z "},"":{"ha":781,"x_min":53,"x_max":692,"o":"m 383 1061 q 472 1036 442 1053 q 541 987 503 1019 q 604 917 579 954 q 647 831 629 879 q 675 735 665 783 q 685 628 685 686 q 689 465 686 571 q 682 303 692 358 q 663 210 672 247 q 638 142 653 174 q 596 81 622 110 q 546 34 569 53 q 490 8 522 15 q 420 -2 457 0 q 338 -2 383 -4 q 260 15 292 0 q 197 53 229 29 q 133 129 164 76 q 80 245 101 182 q 58 347 58 308 q 56 455 58 385 q 54 599 53 525 q 69 726 56 672 q 98 817 83 781 q 150 901 113 853 q 210 974 188 950 q 282 1027 233 997 q 383 1061 331 1057 m 236 708 q 226 633 229 671 q 221 517 222 594 q 223 391 219 440 q 240 303 226 342 q 283 234 253 264 q 383 203 313 204 q 478 233 454 203 q 515 305 503 263 q 530 401 526 347 q 530 556 533 456 q 519 697 526 656 q 495 770 511 738 q 449 839 479 803 q 379 879 418 875 q 287 813 329 876 q 236 708 244 749 m 221 1075 l 221 1140 q 292 1160 236 1164 l 440 1160 l 481 1185 q 529 1156 525 1181 l 529 1097 q 486 1069 525 1069 l 315 1069 l 269 1047 q 221 1075 231 1049 z "},"":{"ha":781,"x_min":53,"x_max":692,"o":"m 383 1061 q 472 1036 442 1053 q 541 987 503 1019 q 604 917 579 954 q 647 831 629 879 q 675 735 665 783 q 685 628 685 686 q 689 465 686 571 q 682 303 692 358 q 663 210 672 247 q 638 142 653 174 q 596 81 622 110 q 546 34 569 53 q 490 8 522 15 q 420 -2 457 0 q 338 -2 383 -4 q 260 15 292 0 q 197 53 229 29 q 133 129 164 76 q 80 245 101 182 q 58 347 58 308 q 56 455 58 385 q 54 599 53 525 q 69 726 56 672 q 98 817 83 781 q 150 901 113 853 q 210 974 188 950 q 282 1027 233 997 q 383 1061 331 1057 m 236 708 q 226 633 229 671 q 221 517 222 594 q 223 391 219 440 q 240 303 226 342 q 283 234 253 264 q 383 203 313 204 q 478 233 454 203 q 515 305 503 263 q 530 401 526 347 q 530 556 533 456 q 519 697 526 656 q 495 770 511 738 q 449 839 479 803 q 379 879 418 875 q 287 813 329 876 q 236 708 244 749 m 360 1161 l 403 1186 l 497 1186 q 515 1147 519 1178 q 410 1076 440 1079 l 336 1076 q 293 1110 299 1086 l 360 1161 z "},"":{"ha":781,"x_min":53,"x_max":692,"o":"m 383 1061 q 472 1036 442 1053 q 541 987 503 1019 q 604 917 579 954 q 647 831 629 879 q 675 735 665 783 q 685 628 685 686 q 689 465 686 571 q 682 303 692 358 q 663 210 672 247 q 638 142 653 174 q 596 81 622 110 q 546 34 569 53 q 490 8 522 15 q 420 -2 457 0 q 338 -2 383 -4 q 260 15 292 0 q 197 53 229 29 q 133 129 164 76 q 80 245 101 182 q 58 347 58 308 q 56 455 58 385 q 54 599 53 525 q 69 726 56 672 q 98 817 83 781 q 150 901 113 853 q 210 974 188 950 q 282 1027 233 997 q 383 1061 331 1057 m 236 708 q 226 633 229 671 q 221 517 222 594 q 223 391 219 440 q 240 303 226 342 q 283 234 253 264 q 383 203 313 204 q 478 233 454 203 q 515 305 503 263 q 530 401 526 347 q 530 556 533 456 q 519 697 526 656 q 495 770 511 738 q 449 839 479 803 q 379 879 418 875 q 287 813 329 876 q 236 708 244 749 m 468 1110 q 425 1076 463 1086 l 351 1076 q 246 1147 321 1079 q 264 1186 242 1178 l 358 1186 l 401 1161 l 468 1110 z "},"":{"ha":781,"x_min":53,"x_max":692,"o":"m 383 1061 q 472 1036 442 1053 q 541 987 503 1019 q 604 917 579 954 q 647 831 629 879 q 675 735 665 783 q 685 628 685 686 q 689 465 686 571 q 682 303 692 358 q 663 210 672 247 q 638 142 653 174 q 596 81 622 110 q 546 34 569 53 q 490 8 522 15 q 420 -2 457 0 q 338 -2 383 -4 q 260 15 292 0 q 197 53 229 29 q 133 129 164 76 q 80 245 101 182 q 58 347 58 308 q 56 455 58 385 q 54 599 53 525 q 69 726 56 672 q 98 817 83 781 q 150 901 113 853 q 210 974 188 950 q 282 1027 233 997 q 383 1061 331 1057 m 236 708 q 226 633 229 671 q 221 517 222 594 q 223 391 219 440 q 240 303 226 342 q 283 234 253 264 q 383 203 313 204 q 478 233 454 203 q 515 305 503 263 q 530 401 526 347 q 530 556 533 456 q 519 697 526 656 q 495 770 511 738 q 449 839 479 803 q 379 879 418 875 q 287 813 329 876 q 236 708 244 749 m 564 1101 q 522 1068 560 1076 l 447 1068 q 383 1103 426 1069 q 319 1068 342 1069 l 246 1068 q 203 1101 208 1076 l 269 1153 l 314 1178 l 454 1178 l 497 1153 l 564 1101 z "},"":{"ha":756,"x_min":31,"x_max":729,"o":"m 282 408 q 325 381 279 381 l 431 382 q 460 410 476 375 q 425 611 442 508 q 388 788 408 714 q 360 788 376 819 q 313 575 325 642 q 282 408 301 508 m 314 1054 l 463 1054 q 514 1022 506 1058 l 586 676 q 729 36 692 201 l 715 3 l 626 0 l 549 4 l 540 42 q 505 197 508 182 q 475 214 501 213 l 271 214 q 241 194 244 214 q 214 14 238 174 l 181 0 l 68 0 q 31 32 31 6 l 69 197 l 185 742 l 242 1021 q 314 1054 253 1058 m 499 1110 q 457 1076 493 1086 l 382 1076 q 276 1147 353 1079 q 296 1186 272 1178 l 389 1186 l 432 1161 l 499 1110 z "},"":{"ha":756,"x_min":31,"x_max":729,"o":"m 282 408 q 325 381 279 381 l 431 382 q 460 410 476 375 q 425 611 442 508 q 388 788 408 714 q 360 788 376 819 q 313 575 325 642 q 282 408 301 508 m 314 1054 l 463 1054 q 514 1022 506 1058 l 586 676 q 729 36 692 201 l 715 3 l 626 0 l 549 4 l 540 42 q 505 197 508 182 q 475 214 501 213 l 271 214 q 241 194 244 214 q 214 14 238 174 l 181 0 l 68 0 q 31 32 31 6 l 69 197 l 185 742 l 242 1021 q 314 1054 253 1058 m 564 1101 q 522 1068 560 1076 l 447 1068 q 383 1103 426 1069 q 319 1068 342 1069 l 246 1068 q 203 1101 208 1076 l 269 1153 l 314 1178 l 454 1178 l 497 1153 l 564 1101 z "},"":{"ha":756,"x_min":31,"x_max":729,"o":"m 282 408 q 325 381 279 381 l 431 382 q 460 410 476 375 q 425 611 442 508 q 388 788 408 714 q 360 788 376 819 q 313 575 325 642 q 282 408 301 508 m 314 1054 l 463 1054 q 514 1022 506 1058 l 586 676 q 729 36 692 201 l 715 3 l 626 0 l 549 4 l 540 42 q 505 197 508 182 q 475 214 501 213 l 271 214 q 241 194 244 214 q 214 14 238 174 l 181 0 l 68 0 q 31 32 31 6 l 69 197 l 185 742 l 242 1021 q 314 1054 253 1058 m 221 1081 l 221 1147 q 292 1167 236 1171 l 440 1167 l 481 1192 q 529 1163 525 1186 l 529 1104 q 486 1075 525 1075 l 315 1075 l 269 1053 q 221 1081 231 1056 z "},"":{"ha":756,"x_min":31,"x_max":729,"o":"m 282 408 q 325 381 279 381 l 431 382 q 460 410 476 375 q 425 611 442 508 q 388 788 408 714 q 360 788 376 819 q 313 575 325 642 q 282 408 301 508 m 314 1054 l 463 1054 q 514 1022 506 1058 l 586 676 q 729 36 692 201 l 715 3 l 626 0 l 549 4 l 540 42 q 505 197 508 182 q 475 214 501 213 l 271 214 q 241 194 244 214 q 214 14 238 174 l 181 0 l 68 0 q 31 32 31 6 l 69 197 l 185 742 l 242 1021 q 314 1054 253 1058 m 307 1093 l 307 1168 q 342 1192 321 1192 l 431 1192 q 453 1158 447 1181 l 453 1096 q 433 1060 450 1071 l 331 1060 q 307 1093 308 1071 z "},"":{"ha":781,"x_min":53,"x_max":696,"o":"m 222 1054 q 243 1008 250 1043 l 243 338 l 254 246 l 283 203 q 374 188 331 186 q 452 213 418 190 q 499 273 486 236 q 515 383 511 310 l 515 1019 q 546 1054 508 1057 l 667 1054 q 693 1008 692 1043 l 696 31 q 667 1 692 8 l 557 1 q 525 29 524 8 l 525 58 q 519 81 531 81 q 446 20 485 35 q 311 -1 407 6 l 231 -1 l 190 13 q 135 47 154 31 q 99 82 115 64 q 71 131 83 100 q 56 219 58 163 l 56 1011 q 83 1054 53 1050 l 222 1054 m 499 1110 q 457 1076 493 1086 l 382 1076 q 276 1147 353 1079 q 296 1186 272 1178 l 389 1186 l 432 1161 l 499 1110 z "},"":{"ha":781,"x_min":53,"x_max":696,"o":"m 222 1054 q 243 1008 250 1043 l 243 338 l 254 246 l 283 203 q 374 188 331 186 q 452 213 418 190 q 499 273 486 236 q 515 383 511 310 l 515 1019 q 546 1054 508 1057 l 667 1054 q 693 1008 692 1043 l 696 31 q 667 1 692 8 l 557 1 q 525 29 524 8 l 525 58 q 519 81 531 81 q 446 20 485 35 q 311 -1 407 6 l 231 -1 l 190 13 q 135 47 154 31 q 99 82 115 64 q 71 131 83 100 q 56 219 58 163 l 56 1011 q 83 1054 53 1050 l 222 1054 m 353 1161 l 396 1186 l 489 1186 q 508 1147 513 1178 q 403 1076 432 1079 l 328 1076 q 286 1110 292 1086 l 353 1161 z "},"":{"ha":781,"x_min":53,"x_max":696,"o":"m 222 1054 q 243 1008 250 1043 l 243 338 l 254 246 l 283 203 q 374 188 331 186 q 452 213 418 190 q 499 273 486 236 q 515 383 511 310 l 515 1019 q 546 1054 508 1057 l 667 1054 q 693 1008 692 1043 l 696 31 q 667 1 692 8 l 557 1 q 525 29 524 8 l 525 58 q 519 81 531 81 q 446 20 485 35 q 311 -1 407 6 l 231 -1 l 190 13 q 135 47 154 31 q 99 82 115 64 q 71 131 83 100 q 56 219 58 163 l 56 1011 q 83 1054 53 1050 l 222 1054 m 561 1101 q 519 1068 557 1076 l 444 1068 q 381 1103 424 1069 q 317 1068 338 1069 l 242 1068 q 200 1101 206 1076 l 267 1153 l 310 1178 l 451 1178 l 494 1153 l 561 1101 z "},"":{"ha":781,"x_min":24,"x_max":696,"o":"m 75 1058 l 597 1058 q 672 1029 665 1061 l 672 897 q 636 876 668 872 l 272 876 q 231 847 222 879 l 229 711 q 269 692 226 688 l 515 692 q 558 656 561 694 l 558 558 q 514 524 553 524 l 240 524 q 214 496 214 521 l 214 239 q 267 199 217 199 l 665 199 q 693 158 696 194 l 693 44 q 636 3 693 -7 l 110 3 q 24 25 36 -3 l 24 1018 q 75 1058 38 1047 m 499 1110 q 457 1076 493 1086 l 382 1076 q 276 1147 353 1079 q 296 1186 272 1178 l 389 1186 l 432 1161 l 499 1110 z "},"":{"ha":781,"x_min":24,"x_max":696,"o":"m 75 1058 l 597 1058 q 672 1029 665 1061 l 672 897 q 636 876 668 872 l 272 876 q 231 847 222 879 l 229 711 q 269 692 226 688 l 515 692 q 558 656 561 694 l 558 558 q 514 524 553 524 l 240 524 q 214 496 214 521 l 214 239 q 267 199 217 199 l 665 199 q 693 158 696 194 l 693 44 q 636 3 693 -7 l 110 3 q 24 25 36 -3 l 24 1018 q 75 1058 38 1047 m 336 1161 l 381 1186 l 474 1186 q 492 1147 497 1178 q 386 1076 417 1079 l 313 1076 q 269 1110 275 1086 l 336 1161 z "},"":{"ha":781,"x_min":24,"x_max":696,"o":"m 75 1058 l 597 1058 q 672 1029 665 1061 l 672 897 q 636 876 668 872 l 272 876 q 231 847 222 879 l 229 711 q 269 692 226 688 l 515 692 q 558 656 561 694 l 558 558 q 514 524 553 524 l 240 524 q 214 496 214 521 l 214 239 q 267 199 217 199 l 665 199 q 693 158 696 194 l 693 44 q 636 3 693 -7 l 110 3 q 24 25 36 -3 l 24 1018 q 75 1058 38 1047 m 564 1101 q 522 1068 560 1076 l 447 1068 q 383 1103 426 1069 q 319 1068 342 1069 l 246 1068 q 203 1101 208 1076 l 269 1153 l 314 1178 l 454 1178 l 497 1153 l 564 1101 z "},"":{"ha":781,"x_min":24,"x_max":696,"o":"m 75 1058 l 597 1058 q 672 1029 665 1061 l 672 897 q 636 876 668 872 l 272 876 q 231 847 222 879 l 229 711 q 269 692 226 688 l 515 692 q 558 656 561 694 l 558 558 q 514 524 553 524 l 240 524 q 214 496 214 521 l 214 239 q 267 199 217 199 l 665 199 q 693 158 696 194 l 693 44 q 636 3 693 -7 l 110 3 q 24 25 36 -3 l 24 1018 q 75 1058 38 1047 m 158 1186 l 292 1186 q 319 1169 310 1183 l 319 1097 q 292 1071 311 1079 l 158 1071 q 132 1096 139 1075 l 132 1169 q 158 1186 138 1186 m 447 1186 l 579 1186 q 606 1171 596 1186 l 606 1099 q 579 1074 597 1081 l 447 1074 q 419 1097 425 1076 l 419 1171 q 447 1186 424 1188 z "},"":{"ha":640,"x_min":47,"x_max":592,"o":"m 47 169 q 128 194 71 200 l 210 194 q 231 218 229 194 l 231 847 q 199 865 229 864 q 156 886 160 856 l 156 1032 q 190 1058 164 1058 l 457 1058 q 481 1026 486 1053 l 481 903 q 464 865 479 876 l 422 865 q 414 846 411 857 l 414 214 q 433 197 414 199 l 564 197 q 592 163 592 194 l 592 36 q 554 0 586 3 l 81 0 q 47 42 53 8 l 47 169 m 428 1110 q 386 1076 422 1086 l 311 1076 q 206 1147 281 1079 q 225 1186 201 1178 l 318 1186 l 361 1161 l 428 1110 z "},"":{"ha":640,"x_min":47,"x_max":592,"o":"m 47 169 q 128 194 71 200 l 210 194 q 231 218 229 194 l 231 847 q 199 865 229 864 q 156 886 160 856 l 156 1032 q 190 1058 164 1058 l 457 1058 q 481 1026 486 1053 l 481 903 q 464 865 479 876 l 422 865 q 414 846 411 857 l 414 214 q 433 197 414 199 l 564 197 q 592 163 592 194 l 592 36 q 554 0 586 3 l 81 0 q 47 42 53 8 l 47 169 m 297 1161 l 342 1186 l 435 1186 q 453 1147 458 1178 q 347 1076 378 1079 l 274 1076 q 231 1110 236 1086 l 297 1161 z "},"":{"ha":640,"x_min":47,"x_max":592,"o":"m 47 169 q 128 194 71 200 l 210 194 q 231 218 229 194 l 231 847 q 199 865 229 864 q 156 886 160 856 l 156 1032 q 190 1058 164 1058 l 457 1058 q 481 1026 486 1053 l 481 903 q 464 865 479 876 l 422 865 q 414 846 411 857 l 414 214 q 433 197 414 199 l 564 197 q 592 163 592 194 l 592 36 q 554 0 586 3 l 81 0 q 47 42 53 8 l 47 169 m 503 1106 q 460 1072 496 1081 l 386 1072 q 321 1107 364 1074 q 258 1072 279 1074 l 183 1072 q 142 1106 147 1081 l 208 1157 l 251 1182 l 392 1182 l 436 1157 l 503 1106 z "},"":{"ha":640,"x_min":47,"x_max":592,"o":"m 47 169 q 128 194 71 200 l 210 194 q 231 218 229 194 l 231 847 q 199 865 229 864 q 156 886 160 856 l 156 1032 q 190 1058 164 1058 l 457 1058 q 481 1026 486 1053 l 481 903 q 464 865 479 876 l 422 865 q 414 846 411 857 l 414 214 q 433 197 414 199 l 564 197 q 592 163 592 194 l 592 36 q 554 0 586 3 l 81 0 q 47 42 53 8 l 47 169 m 113 1186 l 244 1186 q 274 1169 264 1183 l 274 1097 q 244 1071 264 1079 l 113 1071 q 86 1096 92 1075 l 86 1169 q 113 1186 92 1186 m 400 1186 l 532 1186 q 558 1171 549 1186 l 558 1099 q 532 1074 551 1081 l 400 1074 q 372 1097 379 1076 l 372 1171 q 400 1186 376 1188 z "},"":{"ha":781,"x_min":38,"x_max":692,"o":"m 514 1031 q 561 1057 526 1054 l 654 1057 q 674 1017 678 1047 l 615 897 q 647 831 633 868 q 675 735 665 783 q 685 628 685 686 q 689 465 686 571 q 682 303 692 358 q 663 210 672 247 q 638 142 653 174 q 596 81 622 110 q 546 34 569 53 q 490 8 522 15 q 420 -2 457 0 q 338 -2 383 -4 q 260 14 292 0 q 203 47 232 26 l 194 31 q 153 -1 183 1 l 79 -1 q 38 53 42 8 l 103 186 q 79 246 90 214 q 58 347 58 308 q 56 455 58 385 q 54 599 53 525 q 69 726 56 672 q 98 817 83 781 q 150 901 113 853 q 210 974 188 950 q 282 1027 233 997 q 383 1061 331 1057 q 472 1036 442 1053 q 506 1014 488 1028 l 514 1031 m 383 203 q 478 233 454 203 q 515 305 503 263 q 530 401 526 347 q 530 556 533 456 q 519 697 526 656 l 518 697 l 290 228 q 383 203 319 204 m 236 708 q 226 633 229 671 q 219 517 222 594 q 219 428 219 467 l 429 857 q 379 879 406 875 q 287 813 329 876 q 236 708 244 749 z "},"":{"ha":781,"x_min":42,"x_max":692,"o":"m 149 1054 q 203 1032 181 1057 l 333 553 q 388 554 358 440 l 525 1035 q 569 1057 544 1058 l 654 1057 q 675 1019 692 1053 q 503 445 526 497 q 436 336 479 393 l 436 47 q 401 -3 429 10 l 315 -3 q 276 47 276 13 l 276 336 q 211 442 231 393 q 56 1014 192 492 q 67 1054 42 1053 l 149 1054 m 158 1186 l 292 1186 q 319 1169 310 1183 l 319 1097 q 292 1071 311 1079 l 158 1071 q 132 1096 139 1075 l 132 1169 q 158 1186 138 1186 m 447 1186 l 579 1186 q 606 1171 596 1186 l 606 1099 q 579 1074 597 1081 l 447 1074 q 419 1097 425 1076 l 419 1171 q 447 1186 424 1188 z "},"":{"ha":781,"x_min":24,"x_max":696,"o":"m 75 1058 l 597 1058 q 672 1029 665 1061 l 672 897 q 636 876 668 872 l 272 876 q 231 847 222 879 l 229 711 q 269 692 226 688 l 515 692 q 558 656 561 694 l 558 558 q 514 524 553 524 l 240 524 q 214 496 214 521 l 214 239 q 267 199 217 199 l 665 199 q 693 158 696 194 l 693 44 q 636 3 693 -7 l 110 3 q 24 25 36 -3 l 24 1018 q 75 1058 38 1047 m 158 1186 l 292 1186 q 319 1169 310 1183 l 319 1097 q 292 1071 311 1079 l 158 1071 q 132 1096 139 1075 l 132 1169 q 158 1186 138 1186 m 447 1186 l 579 1186 q 606 1171 596 1186 l 606 1099 q 579 1074 597 1081 l 447 1074 q 419 1097 425 1076 l 419 1171 q 447 1186 424 1188 z "},"":{"ha":781,"x_min":42,"x_max":692,"o":"m 149 1054 q 203 1032 181 1057 l 333 553 q 388 554 358 440 l 525 1035 q 569 1057 544 1058 l 654 1057 q 675 1019 692 1053 q 503 445 526 497 q 436 336 479 393 l 436 47 q 401 -3 429 10 l 315 -3 q 276 47 276 13 l 276 336 q 211 442 231 393 q 56 1014 192 492 q 67 1054 42 1053 l 149 1054 m 158 1186 l 292 1186 q 319 1169 310 1183 l 319 1097 q 292 1071 311 1079 l 158 1071 q 132 1096 139 1075 l 132 1169 q 158 1186 138 1186 m 447 1186 l 579 1186 q 606 1171 596 1186 l 606 1099 q 579 1074 597 1081 l 447 1074 q 419 1097 425 1076 l 419 1171 q 447 1186 424 1188 z "},"":{"ha":781,"x_min":42,"x_max":692,"o":"m 149 1054 q 203 1032 181 1057 l 333 553 q 388 554 358 440 l 525 1035 q 569 1057 544 1058 l 654 1057 q 675 1019 692 1053 q 503 445 526 497 q 436 336 479 393 l 436 47 q 401 -3 429 10 l 315 -3 q 276 47 276 13 l 276 336 q 211 442 231 393 q 56 1014 192 492 q 67 1054 42 1053 l 149 1054 m 336 1161 l 381 1186 l 474 1186 q 492 1147 497 1178 q 386 1076 417 1079 l 313 1076 q 269 1110 275 1086 l 336 1161 z "},"":{"ha":781,"x_min":42,"x_max":692,"o":"m 149 1054 q 203 1032 181 1057 l 333 553 q 388 554 358 440 l 525 1035 q 569 1057 544 1058 l 654 1057 q 675 1019 692 1053 q 503 445 526 497 q 436 336 479 393 l 436 47 q 401 -3 429 10 l 315 -3 q 276 47 276 13 l 276 336 q 211 442 231 393 q 56 1014 192 492 q 67 1054 42 1053 l 149 1054 m 336 1161 l 381 1186 l 474 1186 q 492 1147 497 1178 q 386 1076 417 1079 l 313 1076 q 269 1110 275 1086 l 336 1161 z "},"":{"ha":756,"x_min":31,"x_max":729,"o":"m 282 408 q 325 381 279 381 l 431 382 q 460 410 476 375 q 425 611 442 508 q 388 788 408 714 q 360 788 376 819 q 313 575 325 642 q 282 408 301 508 m 314 1054 l 463 1054 q 514 1022 506 1058 l 586 676 q 729 36 692 201 l 715 3 l 626 0 l 549 4 l 540 42 q 505 197 508 182 q 475 214 501 213 l 271 214 q 241 194 244 214 q 214 14 238 174 l 181 0 l 68 0 q 31 32 31 6 l 69 197 l 185 742 l 242 1021 q 314 1054 253 1058 m 499 1110 q 457 1076 493 1086 l 382 1076 q 276 1147 353 1079 q 296 1186 272 1178 l 389 1186 l 432 1161 l 499 1110 z "},"":{"ha":781,"x_min":24,"x_max":696,"o":"m 75 1058 l 597 1058 q 672 1029 665 1061 l 672 897 q 636 876 668 872 l 272 876 q 231 847 222 879 l 229 711 q 269 692 226 688 l 515 692 q 558 656 561 694 l 558 558 q 514 524 553 524 l 240 524 q 214 496 214 521 l 214 239 q 267 199 217 199 l 665 199 q 693 158 696 194 l 693 44 q 636 3 693 -7 l 110 3 q 24 25 36 -3 l 24 1018 q 75 1058 38 1047 m 499 1110 q 457 1076 493 1086 l 382 1076 q 276 1147 353 1079 q 296 1186 272 1178 l 389 1186 l 432 1161 l 499 1110 z "},"":{"ha":781,"x_min":24,"x_max":696,"o":"m 75 1058 l 597 1058 q 672 1029 665 1061 l 672 897 q 636 876 668 872 l 272 876 q 231 847 222 879 l 229 711 q 269 692 226 688 l 515 692 q 558 656 561 694 l 558 558 q 514 524 553 524 l 240 524 q 214 496 214 521 l 214 239 q 267 199 217 199 l 665 199 q 693 158 696 194 l 693 44 q 636 3 693 -7 l 110 3 q 24 25 36 -3 l 24 1018 q 75 1058 38 1047 m 336 1161 l 381 1186 l 474 1186 q 492 1147 497 1178 q 386 1076 417 1079 l 313 1076 q 269 1110 275 1086 l 336 1161 z "},"":{"ha":781,"x_min":53,"x_max":696,"o":"m 222 1054 q 243 1008 250 1043 l 243 338 l 254 246 l 283 203 q 374 188 331 186 q 452 213 418 190 q 499 273 486 236 q 515 383 511 310 l 515 1019 q 546 1054 508 1057 l 667 1054 q 693 1008 692 1043 l 696 31 q 667 1 692 8 l 557 1 q 525 29 524 8 l 525 58 q 519 81 531 81 q 446 20 485 35 q 311 -1 407 6 l 231 -1 l 190 13 q 135 47 154 31 q 99 82 115 64 q 71 131 83 100 q 56 219 58 163 l 56 1011 q 83 1054 53 1050 l 222 1054 m 499 1110 q 457 1076 493 1086 l 382 1076 q 276 1147 353 1079 q 296 1186 272 1178 l 389 1186 l 432 1161 l 499 1110 z "},"":{"ha":781,"x_min":53,"x_max":696,"o":"m 222 1054 q 243 1008 250 1043 l 243 338 l 254 246 l 283 203 q 374 188 331 186 q 452 213 418 190 q 499 273 486 236 q 515 383 511 310 l 515 1019 q 546 1054 508 1057 l 667 1054 q 693 1008 692 1043 l 696 31 q 667 1 692 8 l 557 1 q 525 29 524 8 l 525 58 q 519 81 531 81 q 446 20 485 35 q 311 -1 407 6 l 231 -1 l 190 13 q 135 47 154 31 q 99 82 115 64 q 71 131 83 100 q 56 219 58 163 l 56 1011 q 83 1054 53 1050 l 222 1054 m 353 1161 l 396 1186 l 489 1186 q 508 1147 513 1178 q 403 1076 432 1079 l 328 1076 q 286 1110 292 1086 l 353 1161 z "},"":{"ha":640,"x_min":47,"x_max":592,"o":"m 47 169 q 128 194 71 200 l 210 194 q 231 218 229 194 l 231 847 q 199 865 229 864 q 156 886 160 856 l 156 1032 q 190 1058 164 1058 l 457 1058 q 481 1026 486 1053 l 481 903 q 464 865 479 876 l 422 865 q 414 846 411 857 l 414 214 q 433 197 414 199 l 564 197 q 592 163 592 194 l 592 36 q 554 0 586 3 l 81 0 q 47 42 53 8 l 47 169 m 428 1110 q 386 1076 422 1086 l 311 1076 q 206 1147 281 1079 q 225 1186 201 1178 l 318 1186 l 361 1161 l 428 1110 z "},"":{"ha":640,"x_min":47,"x_max":592,"o":"m 47 169 q 128 194 71 200 l 210 194 q 231 218 229 194 l 231 847 q 199 865 229 864 q 156 886 160 856 l 156 1032 q 190 1058 164 1058 l 457 1058 q 481 1026 486 1053 l 481 903 q 464 865 479 876 l 422 865 q 414 846 411 857 l 414 214 q 433 197 414 199 l 564 197 q 592 163 592 194 l 592 36 q 554 0 586 3 l 81 0 q 47 42 53 8 l 47 169 m 297 1161 l 342 1186 l 435 1186 q 453 1147 458 1178 q 347 1076 378 1079 l 274 1076 q 231 1110 236 1086 l 297 1161 z "},"":{"ha":640,"x_min":47,"x_max":592,"o":"m 47 169 q 128 194 71 200 l 210 194 q 231 218 229 194 l 231 847 q 199 865 229 864 q 156 886 160 856 l 156 1032 q 190 1058 164 1058 l 457 1058 q 481 1026 486 1053 l 481 903 q 464 865 479 876 l 422 865 q 414 846 411 857 l 414 214 q 433 197 414 199 l 564 197 q 592 163 592 194 l 592 36 q 554 0 586 3 l 81 0 q 47 42 53 8 l 47 169 m 113 1186 l 244 1186 q 274 1169 264 1183 l 274 1097 q 244 1071 264 1079 l 113 1071 q 86 1096 92 1075 l 86 1169 q 113 1186 92 1186 m 400 1186 l 532 1186 q 558 1171 549 1186 l 558 1099 q 532 1074 551 1081 l 400 1074 q 372 1097 379 1076 l 372 1171 q 400 1186 376 1188 z "},"":{"ha":458,"x_min":0,"x_max":361,"o":"m 361 1101 q 319 1068 357 1076 l 244 1068 q 181 1103 224 1069 q 117 1068 138 1069 l 42 1068 q 0 1101 6 1076 l 67 1153 l 110 1178 l 251 1178 l 294 1153 l 361 1101 z "},"":{"ha":756,"x_min":31,"x_max":729,"o":"m 282 408 q 325 381 279 381 l 431 382 q 460 410 476 375 q 425 611 442 508 q 388 788 408 714 q 360 788 376 819 q 313 575 325 642 q 282 408 301 508 m 314 1054 l 463 1054 q 514 1022 506 1058 l 586 676 q 729 36 692 201 l 715 3 l 626 0 l 549 4 l 540 42 q 505 197 508 182 q 475 214 501 213 l 271 214 q 241 194 244 214 q 214 14 238 174 l 181 0 l 68 0 q 31 32 31 6 l 69 197 l 185 742 l 242 1021 q 314 1054 253 1058 m 564 1101 q 522 1068 560 1076 l 447 1068 q 383 1103 426 1069 q 319 1068 342 1069 l 246 1068 q 203 1101 208 1076 l 269 1153 l 314 1178 l 454 1178 l 497 1153 l 564 1101 z "},"":{"ha":781,"x_min":24,"x_max":696,"o":"m 75 1058 l 597 1058 q 672 1029 665 1061 l 672 897 q 636 876 668 872 l 272 876 q 231 847 222 879 l 229 711 q 269 692 226 688 l 515 692 q 558 656 561 694 l 558 558 q 514 524 553 524 l 240 524 q 214 496 214 521 l 214 239 q 267 199 217 199 l 665 199 q 693 158 696 194 l 693 44 q 636 3 693 -7 l 110 3 q 24 25 36 -3 l 24 1018 q 75 1058 38 1047 m 564 1101 q 522 1068 560 1076 l 447 1068 q 383 1103 426 1069 q 319 1068 342 1069 l 246 1068 q 203 1101 208 1076 l 269 1153 l 314 1178 l 454 1178 l 497 1153 l 564 1101 z "},"":{"ha":781,"x_min":53,"x_max":696,"o":"m 222 1054 q 243 1008 250 1043 l 243 338 l 254 246 l 283 203 q 374 188 331 186 q 452 213 418 190 q 499 273 486 236 q 515 383 511 310 l 515 1019 q 546 1054 508 1057 l 667 1054 q 693 1008 692 1043 l 696 31 q 667 1 692 8 l 557 1 q 525 29 524 8 l 525 58 q 519 81 531 81 q 446 20 485 35 q 311 -1 407 6 l 231 -1 l 190 13 q 135 47 154 31 q 99 82 115 64 q 71 131 83 100 q 56 219 58 163 l 56 1011 q 83 1054 53 1050 l 222 1054 m 561 1101 q 519 1068 557 1076 l 444 1068 q 381 1103 424 1069 q 317 1068 338 1069 l 242 1068 q 200 1101 206 1076 l 267 1153 l 310 1178 l 451 1178 l 494 1153 l 561 1101 z "},"":{"ha":600,"x_min":19,"x_max":581,"o":"m 19 439 l 19 531 q 97 560 33 558 l 519 560 q 581 517 575 553 l 581 440 q 528 397 575 397 l 78 397 q 19 439 31 401 z "},"":{"ha":682,"x_min":19,"x_max":663,"o":"m 19 439 l 19 531 q 97 560 33 558 l 603 560 q 663 517 658 553 l 663 440 q 610 397 658 397 l 78 397 q 19 439 31 401 z "},"|":{"ha":306,"x_min":38,"x_max":249,"o":"m 75 1058 l 204 1058 q 247 1036 249 1058 l 247 39 q 219 0 247 7 l 75 0 q 38 36 38 3 l 38 1029 q 75 1058 40 1058 z "},"":{"ha":847,"x_min":31,"x_max":810,"o":"m 806 685 q 783 631 808 653 l 303 500 q 306 446 192 475 l 786 308 q 808 264 810 289 l 808 179 q 769 158 803 142 q 180 335 247 307 q 42 447 113 364 q 42 503 31 475 q 178 617 113 592 q 764 778 243 642 q 806 767 803 792 l 806 685 z "},">":{"ha":847,"x_min":31,"x_max":810,"o":"m 36 767 q 76 778 38 792 q 663 617 597 642 q 799 503 729 592 q 800 447 810 475 q 661 335 729 364 q 71 158 593 307 q 33 179 38 142 l 33 264 q 56 308 31 289 l 536 446 q 538 500 650 475 l 58 631 q 36 685 33 653 l 36 767 z "},"":{"ha":781,"x_min":42,"x_max":692,"o":"m 67 147 l 67 175 q 144 206 81 204 l 276 206 l 276 218 l 125 218 q 67 260 78 222 l 67 288 q 144 318 81 317 l 276 318 l 276 336 q 211 442 231 393 q 56 1014 192 492 q 67 1054 42 1053 l 149 1054 q 203 1032 181 1057 l 333 553 q 388 554 358 440 l 525 1035 q 569 1057 544 1058 l 654 1057 q 675 1019 692 1053 q 503 445 526 497 q 436 336 479 393 l 436 318 l 568 318 q 628 275 624 311 l 628 261 q 575 218 624 218 l 436 218 l 436 206 l 568 206 q 628 163 624 199 l 628 149 q 575 106 624 106 l 436 106 l 436 47 q 401 -3 429 10 l 315 -3 q 276 47 276 13 l 276 106 l 125 106 q 67 147 78 110 z "},"":{"ha":781,"x_min":8,"x_max":732,"o":"m 8 536 l 8 564 q 86 594 24 593 l 133 594 l 133 839 q 117 878 131 863 l 86 878 q 67 908 60 881 l 67 1031 q 133 1051 78 1054 l 536 1051 q 625 1028 589 1050 q 693 968 661 1006 q 732 839 725 931 l 732 192 q 676 65 711 92 q 608 23 642 39 q 522 0 575 7 l 119 0 q 67 50 71 4 l 67 182 q 90 204 69 206 l 117 204 q 133 258 138 208 l 133 494 l 68 494 q 8 536 19 499 m 319 232 q 336 196 315 208 l 483 196 q 542 285 536 213 l 542 810 q 497 892 550 865 l 361 892 q 319 858 319 904 l 319 594 l 361 594 q 421 551 417 588 l 421 538 q 369 494 417 494 l 319 494 l 319 232 z "},"":{"ha":781,"x_min":8,"x_max":732,"o":"m 8 536 l 8 564 q 86 594 24 593 l 133 594 l 133 839 q 117 878 131 863 l 86 878 q 67 908 60 881 l 67 1031 q 133 1051 78 1054 l 536 1051 q 625 1028 589 1050 q 693 968 661 1006 q 732 839 725 931 l 732 192 q 676 65 711 92 q 608 23 642 39 q 522 0 575 7 l 119 0 q 67 50 71 4 l 67 182 q 90 204 69 206 l 117 204 q 133 258 138 208 l 133 494 l 68 494 q 8 536 19 499 m 319 232 q 336 196 315 208 l 483 196 q 542 285 536 213 l 542 810 q 497 892 550 865 l 361 892 q 319 858 319 904 l 319 594 l 361 594 q 421 551 417 588 l 421 538 q 369 494 417 494 l 319 494 l 319 232 z "},"":{"ha":781,"x_min":50,"x_max":699,"o":"m 89 331 l 215 331 q 251 269 246 325 l 260 235 q 298 203 269 214 q 383 190 326 192 q 476 204 440 189 q 525 261 513 219 q 475 381 539 335 q 243 525 425 417 q 124 647 181 564 q 83 767 86 725 q 89 849 81 808 q 115 919 97 890 q 181 1000 132 949 q 424 1057 254 1060 q 603 1006 517 1046 q 672 878 674 943 l 671 796 q 644 757 678 758 l 539 757 q 497 800 503 767 l 493 853 q 358 890 453 892 q 264 840 303 888 q 308 711 247 761 l 624 490 q 681 425 664 458 q 699 325 697 392 q 675 169 697 238 l 656 132 q 592 60 632 97 q 393 0 517 11 q 261 8 286 -1 q 211 30 236 18 q 165 58 186 42 q 103 121 143 75 q 57 225 61 186 q 51 281 53 264 q 58 311 50 297 q 89 331 65 325 m 506 1097 l 463 1072 l 321 1072 l 278 1097 l 211 1149 q 253 1182 217 1174 l 328 1182 q 392 1147 349 1181 q 456 1182 435 1181 l 531 1182 q 572 1149 568 1174 l 506 1097 z "},"":{"ha":781,"x_min":50,"x_max":699,"o":"m 89 331 l 215 331 q 251 269 246 325 l 260 235 q 298 203 269 214 q 383 190 326 192 q 476 204 440 189 q 525 261 513 219 q 475 381 539 335 q 243 525 425 417 q 124 647 181 564 q 83 767 86 725 q 89 849 81 808 q 115 919 97 890 q 181 1000 132 949 q 424 1057 254 1060 q 603 1006 517 1046 q 672 878 674 943 l 671 796 q 644 757 678 758 l 539 757 q 497 800 503 767 l 493 853 q 358 890 453 892 q 264 840 303 888 q 308 711 247 761 l 624 490 q 681 425 664 458 q 699 325 697 392 q 675 169 697 238 l 656 132 q 592 60 632 97 q 393 0 517 11 q 261 8 286 -1 q 211 30 236 18 q 165 58 186 42 q 103 121 143 75 q 57 225 61 186 q 51 281 53 264 q 58 311 50 297 q 89 331 65 325 m 506 1097 l 463 1072 l 321 1072 l 278 1097 l 211 1149 q 253 1182 217 1174 l 328 1182 q 392 1147 349 1181 q 456 1182 435 1181 l 531 1182 q 572 1149 568 1174 l 506 1097 z "},"":{"ha":697,"x_min":233,"x_max":469,"o":"m 233 42 l 233 132 q 288 163 254 163 l 431 163 q 468 119 457 147 l 468 43 q 436 0 464 14 l 269 0 q 233 42 236 14 m 236 364 l 236 456 q 290 486 257 486 l 433 486 q 469 442 458 471 l 469 367 q 438 324 465 336 l 272 324 q 236 364 238 336 z "},"":{"ha":640,"x_min":47,"x_max":592,"o":"m 47 169 q 128 194 71 200 l 210 194 q 231 218 229 194 l 231 847 q 199 865 229 864 q 156 886 160 856 l 156 1032 q 190 1058 164 1058 l 457 1058 q 481 1026 486 1053 l 481 903 q 464 865 479 876 l 422 865 q 414 846 411 857 l 414 214 q 433 197 414 199 l 564 197 q 592 163 592 194 l 592 36 q 554 0 586 3 l 81 0 q 47 42 53 8 l 47 169 m 503 1106 q 460 1072 496 1081 l 386 1072 q 321 1107 364 1074 q 258 1072 279 1074 l 183 1072 q 142 1106 147 1081 l 208 1157 l 251 1182 l 392 1182 l 436 1157 l 503 1106 z "},"":{"ha":532,"x_min":0,"x_max":379,"o":"m 0 431 l 0 531 q 88 560 18 567 l 269 560 l 319 597 q 379 553 375 590 l 379 465 q 326 422 375 422 l 117 422 l 58 388 q 0 431 11 392 z "},"":{"ha":756,"x_min":31,"x_max":729,"o":"m 282 408 q 325 381 279 381 l 431 382 q 460 410 476 375 q 425 611 442 508 q 388 788 408 714 q 360 788 376 819 q 313 575 325 642 q 282 408 301 508 m 314 1054 l 463 1054 q 514 1022 506 1058 l 586 676 q 729 36 692 201 l 715 3 l 626 0 l 549 4 l 540 42 q 505 197 508 182 q 475 214 501 213 l 271 214 q 241 194 244 214 q 214 14 238 174 l 181 0 l 68 0 q 31 32 31 6 l 69 197 l 185 742 l 242 1021 q 314 1054 253 1058 m 221 1081 l 221 1147 q 292 1167 236 1171 l 440 1167 l 481 1192 q 529 1163 525 1186 l 529 1104 q 486 1075 525 1075 l 315 1075 l 269 1053 q 221 1081 231 1056 z "},"":{"ha":781,"x_min":53,"x_max":692,"o":"m 383 1061 q 472 1036 442 1053 q 541 987 503 1019 q 604 917 579 954 q 647 831 629 879 q 675 735 665 783 q 685 628 685 686 q 689 465 686 571 q 682 303 692 358 q 663 210 672 247 q 638 142 653 174 q 596 81 622 110 q 546 34 569 53 q 490 8 522 15 q 420 -2 457 0 q 338 -2 383 -4 q 260 15 292 0 q 197 53 229 29 q 133 129 164 76 q 80 245 101 182 q 58 347 58 308 q 56 455 58 385 q 54 599 53 525 q 69 726 56 672 q 98 817 83 781 q 150 901 113 853 q 210 974 188 950 q 282 1027 233 997 q 383 1061 331 1057 m 236 708 q 226 633 229 671 q 221 517 222 594 q 223 391 219 440 q 240 303 226 342 q 283 234 253 264 q 383 203 313 204 q 478 233 454 203 q 515 305 503 263 q 530 401 526 347 q 530 556 533 456 q 519 697 526 656 q 495 770 511 738 q 449 839 479 803 q 379 879 418 875 q 287 813 329 876 q 236 708 244 749 m 221 1075 l 221 1140 q 292 1160 236 1164 l 440 1160 l 481 1185 q 529 1156 525 1181 l 529 1097 q 486 1069 525 1069 l 315 1069 l 269 1047 q 221 1075 231 1049 z "},"":{"ha":556,"x_min":0,"x_max":0,"o":""},"":{"ha":781,"x_min":51,"x_max":719,"o":"m 83 1049 l 164 1049 q 203 1032 192 1047 l 507 508 q 525 532 525 499 l 525 1031 q 557 1053 536 1053 l 686 1053 q 718 1008 715 1060 l 718 39 q 683 0 719 0 l 553 0 q 525 31 522 -3 l 525 85 q 519 142 526 121 l 238 628 q 219 628 219 651 l 219 36 q 201 0 225 4 l 78 0 q 51 25 58 6 l 51 1017 q 83 1049 56 1049 m 221 1075 l 221 1140 q 292 1160 236 1164 l 440 1160 l 481 1185 q 529 1156 525 1181 l 529 1097 q 486 1069 525 1069 l 315 1069 l 269 1047 q 221 1075 231 1049 z "},"":{"ha":781,"x_min":51,"x_max":719,"o":"m 83 1049 l 164 1049 q 203 1032 192 1047 l 507 508 q 525 532 525 499 l 525 1031 q 557 1053 536 1053 l 686 1053 q 718 1008 715 1060 l 718 39 q 683 0 719 0 l 553 0 q 525 31 522 -3 l 525 85 q 519 142 526 121 l 238 628 q 219 628 219 651 l 219 36 q 201 0 225 4 l 78 0 q 51 25 58 6 l 51 1017 q 83 1049 56 1049 m 221 1075 l 221 1140 q 292 1160 236 1164 l 440 1160 l 481 1185 q 529 1156 525 1181 l 529 1097 q 486 1069 525 1069 l 315 1069 l 269 1047 q 221 1075 231 1049 z "},"":{"ha":847,"x_min":31,"x_max":810,"o":"m 806 685 q 783 631 808 653 l 303 500 q 306 446 192 475 l 786 308 q 808 264 810 289 l 808 179 q 769 158 803 142 q 180 335 247 307 q 42 447 113 364 q 42 503 31 475 q 178 617 113 592 q 764 778 243 642 q 806 767 803 792 l 806 685 z "},"":{"ha":847,"x_min":31,"x_max":810,"o":"m 36 767 q 76 778 38 792 q 663 617 597 642 q 799 503 729 592 q 800 447 810 475 q 661 335 729 364 q 71 158 593 307 q 33 179 38 142 l 33 264 q 56 308 31 289 l 536 446 q 538 500 650 475 l 58 631 q 36 685 33 653 l 36 767 z "},"":{"ha":1249,"x_min":53,"x_max":1201,"o":"m 581 1058 l 1103 1058 q 1178 1029 1171 1061 l 1178 897 q 1142 876 1174 872 l 778 876 q 736 847 728 879 l 735 711 q 775 692 732 688 l 1021 692 q 1064 656 1067 694 l 1064 558 q 1019 524 1058 524 l 746 524 q 719 496 719 521 l 719 239 q 772 199 722 199 l 1171 199 q 1199 158 1201 194 l 1199 44 q 1142 3 1199 -7 l 615 3 q 531 22 544 -3 q 489 8 511 14 q 420 -2 457 0 q 338 -2 383 -4 q 260 15 292 0 q 197 53 229 29 q 133 129 164 76 q 80 245 101 182 q 58 347 58 308 q 56 455 58 385 q 54 599 53 525 q 69 726 56 672 q 98 817 83 781 q 150 901 113 853 q 210 974 188 950 q 282 1027 233 997 q 383 1061 331 1057 q 472 1036 442 1053 q 529 1018 497 1022 q 581 1058 543 1047 m 236 708 q 226 633 229 671 q 221 517 222 594 q 223 391 219 440 q 240 303 226 342 q 283 234 253 264 q 383 203 313 204 q 478 233 454 203 q 514 304 503 263 q 529 385 525 340 l 529 589 q 519 697 525 663 q 495 770 511 738 q 449 839 479 803 q 379 879 418 875 q 287 813 329 876 q 236 708 244 749 z "},"":{"ha":781,"x_min":40,"x_max":735,"o":"m 204 1060 l 281 1060 l 281 1142 q 308 1179 282 1172 l 375 1179 q 403 1147 396 1176 l 403 1060 l 576 1061 q 657 958 667 1032 l 657 753 q 589 703 636 706 l 508 700 q 457 758 461 719 l 457 850 q 436 883 461 883 l 401 883 l 399 188 q 475 201 442 190 q 524 356 528 238 q 578 390 531 392 l 714 390 q 735 342 735 381 q 703 158 735 251 q 634 58 675 101 q 542 0 593 15 l 399 0 l 399 -94 q 379 -136 401 -131 l 301 -136 q 275 -99 282 -133 l 275 0 l 268 0 q 108 61 161 8 q 47 172 40 119 l 47 890 q 51 989 42 968 q 81 1023 61 1010 q 127 1047 101 1036 q 204 1060 153 1058 m 226 826 l 226 317 q 230 266 226 283 q 251 222 233 249 q 276 204 258 213 l 281 881 q 226 826 222 869 z "},"":{"ha":781,"x_min":40,"x_max":735,"o":"m 204 1060 l 576 1061 q 657 958 667 1032 l 657 753 q 589 703 636 706 l 508 700 q 457 758 461 719 l 457 850 q 436 883 461 883 l 304 883 q 226 826 222 879 l 226 317 q 230 266 226 283 q 251 223 233 249 q 364 188 269 197 q 475 201 426 186 q 524 356 528 238 q 578 390 531 392 l 714 390 q 735 342 735 381 q 703 158 735 251 q 634 58 675 101 q 542 0 593 15 l 481 0 q 421 -119 467 -90 q 353 -136 389 -158 l 324 -119 q 328 -76 300 -97 q 368 -15 367 -39 q 363 0 368 -4 l 268 0 q 108 61 161 8 q 47 172 40 119 l 47 890 q 51 989 42 968 q 81 1023 61 1010 q 127 1047 101 1036 q 204 1060 153 1058 z "},"":{"ha":781,"x_min":40,"x_max":735,"o":"m 204 1060 l 576 1061 q 657 958 667 1032 l 657 753 q 589 703 636 706 l 508 700 q 457 758 461 719 l 457 850 q 436 883 461 883 l 304 883 q 226 826 222 879 l 226 317 q 230 266 226 283 q 251 223 233 249 q 364 188 269 197 q 475 201 426 186 q 524 356 528 238 q 578 390 531 392 l 714 390 q 735 342 735 381 q 703 158 735 251 q 634 58 675 101 q 542 0 593 15 l 481 0 q 421 -119 467 -90 q 353 -136 389 -158 l 324 -119 q 328 -76 300 -97 q 368 -15 367 -39 q 363 0 368 -4 l 268 0 q 108 61 161 8 q 47 172 40 119 l 47 890 q 51 989 42 968 q 81 1023 61 1010 q 127 1047 101 1036 q 204 1060 153 1058 z "},"":{"ha":781,"x_min":38,"x_max":692,"o":"m 514 1031 q 561 1057 526 1054 l 654 1057 q 674 1017 678 1047 l 615 897 q 647 831 633 868 q 675 735 665 783 q 685 628 685 686 q 689 465 686 571 q 682 303 692 358 q 663 210 672 247 q 638 142 653 174 q 596 81 622 110 q 546 34 569 53 q 490 8 522 15 q 420 -2 457 0 q 338 -2 383 -4 q 260 14 292 0 q 203 47 232 26 l 194 31 q 153 -1 183 1 l 79 -1 q 38 53 42 8 l 103 186 q 79 246 90 214 q 58 347 58 308 q 56 455 58 385 q 54 599 53 525 q 69 726 56 672 q 98 817 83 781 q 150 901 113 853 q 210 974 188 950 q 282 1027 233 997 q 383 1061 331 1057 q 472 1036 442 1053 q 506 1014 488 1028 l 514 1031 m 383 203 q 478 233 454 203 q 515 305 503 263 q 530 401 526 347 q 530 556 533 456 q 519 697 526 656 l 518 697 l 290 228 q 383 203 319 204 m 236 708 q 226 633 229 671 q 219 517 222 594 q 219 428 219 467 l 429 857 q 379 879 406 875 q 287 813 329 876 q 236 708 244 749 z "},"":{"ha":756,"x_min":31,"x_max":729,"o":"m 282 408 q 325 381 279 381 l 431 382 q 460 410 476 375 q 425 611 442 508 q 388 788 408 714 q 360 788 376 819 q 313 575 325 642 q 282 408 301 508 m 314 1054 l 463 1054 q 514 1022 506 1058 l 586 676 q 729 36 692 201 l 715 3 l 626 0 l 549 4 l 540 42 q 505 197 508 182 q 475 214 501 213 l 271 214 q 241 194 244 214 q 214 14 238 174 l 181 0 l 68 0 q 31 32 31 6 l 69 197 l 185 742 l 242 1021 q 314 1054 253 1058 m 307 1093 l 307 1168 q 342 1192 321 1192 l 431 1192 q 453 1158 447 1181 l 453 1096 q 433 1060 450 1071 l 331 1060 q 307 1093 308 1071 z "},"":{"ha":1108,"x_min":31,"x_max":1074,"o":"m 314 1054 l 975 1058 q 1050 1029 1043 1061 l 1050 897 q 1014 876 1046 872 l 603 876 q 561 847 553 879 l 592 711 q 633 692 590 688 l 893 692 q 936 656 939 694 l 936 558 q 892 524 931 524 l 669 524 q 643 496 643 521 l 703 239 q 754 199 704 199 l 1043 199 q 1071 158 1074 194 l 1071 44 q 1014 3 1071 -7 l 569 0 l 549 4 l 540 42 q 505 197 508 182 q 475 214 501 213 l 271 214 q 241 194 244 214 q 214 14 238 174 l 181 0 l 68 0 q 31 32 31 6 l 69 197 l 185 742 l 242 1021 q 314 1054 253 1058 m 282 408 q 325 381 279 381 l 431 382 q 460 410 476 375 q 425 611 442 508 q 388 788 408 714 q 360 788 376 819 q 313 575 325 642 q 282 408 301 508 z "},"":{"ha":1108,"x_min":31,"x_max":1074,"o":"m 314 1054 l 975 1058 q 1050 1029 1043 1061 l 1050 897 q 1014 876 1046 872 l 603 876 q 561 847 553 879 l 592 711 q 633 692 590 688 l 893 692 q 936 656 939 694 l 936 558 q 892 524 931 524 l 669 524 q 643 496 643 521 l 703 239 q 754 199 704 199 l 1043 199 q 1071 158 1074 194 l 1071 44 q 1014 3 1071 -7 l 569 0 l 549 4 l 540 42 q 505 197 508 182 q 475 214 501 213 l 271 214 q 241 194 244 214 q 214 14 238 174 l 181 0 l 68 0 q 31 32 31 6 l 69 197 l 185 742 l 242 1021 q 314 1054 253 1058 m 282 408 q 325 381 279 381 l 431 382 q 460 410 476 375 q 425 611 442 508 q 388 788 408 714 q 360 788 376 819 q 313 575 325 642 q 282 408 301 508 z "},"":{"ha":914,"x_min":64,"x_max":858,"o":"m 64 439 l 64 531 q 142 560 79 558 l 183 560 l 183 960 q 182 964 182 963 l 182 1056 q 260 1086 197 1085 l 453 1086 q 514 1042 508 1079 l 514 965 q 461 922 508 922 l 386 922 l 386 560 l 436 560 q 496 517 492 553 l 496 440 q 443 397 492 397 l 386 397 l 386 264 q 403 224 381 228 l 635 224 q 657 249 665 221 l 657 361 q 703 386 653 392 l 814 386 q 858 365 854 392 l 858 50 q 782 0 843 0 l 210 0 q 183 42 183 6 l 183 397 l 124 397 q 64 439 75 401 z "},"":{"ha":781,"x_min":50,"x_max":713,"o":"m 186 1057 q 228 1035 224 1061 l 363 776 q 414 776 389 694 l 525 1031 q 574 1057 539 1054 l 667 1057 q 686 1017 690 1047 l 478 592 q 482 536 467 560 l 710 42 q 664 -1 713 6 l 594 -1 q 553 32 558 -1 l 403 385 q 364 385 385 435 l 207 31 q 165 -1 196 1 l 92 -1 q 50 53 54 8 l 282 532 q 285 592 297 558 l 72 1019 q 89 1057 54 1047 l 186 1057 z "},"":{"ha":781,"x_min":47,"x_max":692,"o":"m 153 1058 l 614 1058 q 643 1021 632 1053 l 643 851 q 619 782 646 814 l 279 231 q 279 167 242 186 l 658 167 q 686 132 692 174 l 686 36 q 617 0 685 -6 l 78 0 q 53 53 53 19 l 53 146 q 78 242 49 208 l 443 849 q 397 886 432 888 l 88 886 q 47 922 58 890 l 47 1025 q 86 1058 53 1058 l 153 1058 m 464 1097 l 419 1072 l 279 1072 l 236 1097 l 169 1149 q 211 1182 175 1174 l 286 1182 q 349 1147 307 1181 q 414 1182 392 1181 l 488 1182 q 531 1149 524 1174 l 464 1097 z "},"":{"ha":781,"x_min":47,"x_max":692,"o":"m 153 1058 l 614 1058 q 643 1021 632 1053 l 643 851 q 619 782 646 814 l 279 231 q 279 167 242 186 l 658 167 q 686 132 692 174 l 686 36 q 617 0 685 -6 l 78 0 q 53 53 53 19 l 53 146 q 78 242 49 208 l 443 849 q 397 886 432 888 l 88 886 q 47 922 58 890 l 47 1025 q 86 1058 53 1058 l 153 1058 m 464 1097 l 419 1072 l 279 1072 l 236 1097 l 169 1149 q 211 1182 175 1174 l 286 1182 q 349 1147 307 1181 q 414 1182 392 1181 l 488 1182 q 531 1149 524 1174 l 464 1097 z "},"":{"ha":919,"x_min":36,"x_max":864,"o":"m 403 900 q 442 919 414 918 l 519 922 q 536 896 538 918 l 392 615 l 392 264 q 408 224 386 228 l 640 224 q 663 249 671 221 l 663 361 q 708 386 658 392 l 819 386 q 864 365 860 392 l 864 50 q 788 0 849 0 l 215 0 q 189 42 189 6 l 189 224 l 164 176 q 132 153 157 156 l 71 151 q 36 188 40 157 l 189 485 l 189 1036 q 225 1053 189 1061 l 317 1053 q 392 1033 386 1057 l 392 875 l 403 900 z "},"":{"ha":919,"x_min":36,"x_max":864,"o":"m 403 900 q 442 919 414 918 l 519 922 q 536 896 538 918 l 392 615 l 392 264 q 408 224 386 228 l 640 224 q 663 249 671 221 l 663 361 q 708 386 658 392 l 819 386 q 864 365 860 392 l 864 50 q 788 0 849 0 l 215 0 q 189 42 189 6 l 189 224 l 164 176 q 132 153 157 156 l 71 151 q 36 188 40 157 l 189 485 l 189 1036 q 225 1053 189 1061 l 317 1053 q 392 1033 386 1057 l 392 875 l 403 900 z "},"":{"ha":851,"x_min":36,"x_max":806,"o":"m 514 1031 q 561 1057 526 1054 l 654 1057 q 674 1017 678 1047 l 194 31 q 153 -1 183 1 l 79 -1 q 38 53 42 8 l 514 1031 m 308 72 l 308 164 q 363 194 331 194 l 506 194 q 542 151 531 179 l 542 75 q 510 31 538 44 l 344 31 q 308 72 310 44 m 36 896 l 36 986 q 92 1018 58 1018 l 233 1018 q 271 974 260 1003 l 271 897 q 238 854 267 868 l 74 854 q 36 896 39 868 m 571 72 l 571 164 q 625 194 593 194 l 769 194 q 806 151 794 179 l 806 75 q 774 31 801 44 l 608 31 q 571 72 574 44 z "},"":{"ha":1249,"x_min":53,"x_max":1201,"o":"m 581 1058 l 1103 1058 q 1178 1029 1171 1061 l 1178 897 q 1142 876 1174 872 l 778 876 q 736 847 728 879 l 735 711 q 775 692 732 688 l 1021 692 q 1064 656 1067 694 l 1064 558 q 1019 524 1058 524 l 746 524 q 719 496 719 521 l 719 239 q 772 199 722 199 l 1171 199 q 1199 158 1201 194 l 1199 44 q 1142 3 1199 -7 l 615 3 q 531 22 544 -3 q 489 8 511 14 q 420 -2 457 0 q 338 -2 383 -4 q 260 15 292 0 q 197 53 229 29 q 133 129 164 76 q 80 245 101 182 q 58 347 58 308 q 56 455 58 385 q 54 599 53 525 q 69 726 56 672 q 98 817 83 781 q 150 901 113 853 q 210 974 188 950 q 282 1027 233 997 q 383 1061 331 1057 q 472 1036 442 1053 q 529 1018 497 1022 q 581 1058 543 1047 m 236 708 q 226 633 229 671 q 221 517 222 594 q 223 391 219 440 q 240 303 226 342 q 283 234 253 264 q 383 203 313 204 q 478 233 454 203 q 514 304 503 263 q 529 385 525 340 l 529 589 q 519 697 525 663 q 495 770 511 738 q 449 839 479 803 q 379 879 418 875 q 287 813 329 876 q 236 708 244 749 z "},"":{"ha":679,"x_min":38,"x_max":653,"o":"m 75 1058 l 192 1058 q 235 1036 236 1058 l 235 847 l 458 847 q 548 832 513 846 q 615 794 583 818 q 653 714 646 771 l 653 307 q 598 226 632 243 q 531 200 564 210 q 447 186 497 190 l 235 186 l 235 39 q 207 0 235 7 l 75 0 q 38 36 38 3 l 38 1029 q 75 1058 40 1058 m 250 346 l 421 346 q 478 401 471 357 l 478 621 q 435 671 486 654 l 274 671 q 235 654 236 678 l 235 357 q 250 346 238 351 z "},"^":{"ha":458,"x_min":0,"x_max":361,"o":"m 361 1101 q 319 1068 357 1076 l 244 1068 q 181 1103 224 1069 q 117 1068 138 1069 l 42 1068 q 0 1101 6 1076 l 67 1153 l 110 1178 l 251 1178 l 294 1153 l 361 1101 z "},"!":{"ha":374,"x_min":36,"x_max":342,"o":"m 74 256 l 57 967 q 115 1056 36 1053 l 274 1057 q 324 975 342 1047 l 286 258 q 253 197 285 193 l 114 197 q 74 256 78 203 m 64 42 l 64 132 q 118 163 86 163 l 256 163 q 297 124 288 147 l 299 43 q 265 0 294 14 l 101 0 q 64 42 67 14 z "},"":{"ha":679,"x_min":38,"x_max":653,"o":"m 75 1058 l 192 1058 q 235 1036 236 1058 l 235 847 l 458 847 q 548 832 513 846 q 615 794 583 818 q 653 714 646 771 l 653 307 q 598 226 632 243 q 531 200 564 210 q 447 186 497 190 l 235 186 l 235 39 q 207 0 235 7 l 75 0 q 38 36 38 3 l 38 1029 q 75 1058 40 1058 m 250 346 l 421 346 q 478 401 471 357 l 478 621 q 435 671 486 654 l 274 671 q 235 654 236 678 l 235 357 q 250 346 238 351 z "},"[":{"ha":428,"x_min":0,"x_max":432,"o":"m 432 1197 l 185 1197 q 140 1013 139 1182 l 140 22 q 178 -157 133 -137 l 432 -157 l 432 -289 l 178 -289 q 13 22 0 -293 l 13 1011 q 186 1328 4 1328 l 432 1328 l 432 1197 z "},"]":{"ha":425,"x_min":0,"x_max":431,"o":"m 0 1328 l 244 1328 q 418 1011 425 1338 l 418 22 q 253 -289 431 -286 l 0 -289 l 0 -157 l 253 -157 q 290 22 297 -137 l 290 1013 q 246 1197 292 1182 l 0 1197 l 0 1328 z "},"{":{"ha":428,"x_min":0,"x_max":432,"o":"m 432 1197 l 185 1197 q 140 1013 139 1182 l 140 22 q 178 -157 133 -137 l 432 -157 l 432 -289 l 178 -289 q 13 22 0 -293 l 13 1011 q 186 1328 4 1328 l 432 1328 l 432 1197 z "},"}":{"ha":425,"x_min":0,"x_max":431,"o":"m 0 1328 l 244 1328 q 418 1011 425 1338 l 418 22 q 253 -289 431 -286 l 0 -289 l 0 -157 l 253 -157 q 290 22 297 -137 l 290 1013 q 246 1197 292 1182 l 0 1197 l 0 1328 z "},"":{"ha":694,"x_min":0,"x_max":0,"o":""},"":{"ha":694,"x_min":0,"x_max":0,"o":""},"":{"ha":694,"x_min":0,"x_max":0,"o":""},"":{"ha":847,"x_min":31,"x_max":810,"o":"m 36 767 q 76 778 38 792 q 663 617 597 642 q 799 503 729 592 q 800 447 810 475 q 661 335 729 364 q 71 158 593 307 q 33 179 38 142 l 33 264 q 56 308 31 289 l 536 446 q 538 500 650 475 l 58 631 q 36 685 33 653 l 36 767 z "},"":{"ha":694,"x_min":0,"x_max":0,"o":""},"":{"ha":694,"x_min":0,"x_max":0,"o":""},"":{"ha":694,"x_min":0,"x_max":0,"o":""},"":{"ha":694,"x_min":0,"x_max":0,"o":""},"":{"ha":694,"x_min":0,"x_max":0,"o":""},"":{"ha":694,"x_min":0,"x_max":0,"o":""},"":{"ha":694,"x_min":0,"x_max":0,"o":""},"":{"ha":694,"x_min":0,"x_max":0,"o":""},"":{"ha":694,"x_min":0,"x_max":0,"o":""},"":{"ha":694,"x_min":0,"x_max":0,"o":""},"":{"ha":694,"x_min":0,"x_max":0,"o":""},"":{"ha":847,"x_min":31,"x_max":810,"o":"m 806 685 q 783 631 808 653 l 303 500 q 306 446 192 475 l 786 308 q 808 264 810 289 l 808 179 q 769 158 803 142 q 180 335 247 307 q 42 447 113 364 q 42 503 31 475 q 178 617 113 592 q 764 778 243 642 q 806 767 803 792 l 806 685 z "},"":{"ha":694,"x_min":0,"x_max":0,"o":""},"":{"ha":694,"x_min":0,"x_max":0,"o":""},"":{"ha":694,"x_min":0,"x_max":0,"o":""},"":{"ha":694,"x_min":0,"x_max":0,"o":""},"":{"ha":694,"x_min":0,"x_max":0,"o":""},"":{"ha":694,"x_min":0,"x_max":0,"o":""},"":{"ha":694,"x_min":0,"x_max":0,"o":""},"":{"ha":694,"x_min":0,"x_max":0,"o":""},"":{"ha":640,"x_min":47,"x_max":592,"o":"m 47 169 q 128 194 71 200 l 210 194 q 231 218 229 194 l 231 847 q 199 865 229 864 q 156 886 160 856 l 156 1032 q 190 1058 164 1058 l 457 1058 q 481 1026 486 1053 l 481 903 q 464 865 479 876 l 422 865 q 414 846 411 857 l 414 214 q 433 197 414 199 l 564 197 q 592 163 592 194 l 592 36 q 554 0 586 3 l 81 0 q 47 42 53 8 l 47 169 z "},"":{"ha":694,"x_min":0,"x_max":0,"o":""},"":{"ha":694,"x_min":0,"x_max":0,"o":""},"":{"ha":694,"x_min":0,"x_max":0,"o":""},"":{"ha":694,"x_min":0,"x_max":0,"o":""},"":{"ha":694,"x_min":0,"x_max":0,"o":""},"":{"ha":694,"x_min":0,"x_max":0,"o":""}}}
